Ubuntu-BoldItalic.ufo
<glyph name="exclam" format="2">
	<advance width="295"/>
	<unicode hex="0021"/>
	<outline>
		<contour>
			<point x="142" y="221" type="curve"/>
			<point x="256" y="221" type="line"/>
			<point x="292" y="317"/>
			<point x="321" y="406"/>
			<point x="348" y="514" type="curve"/>
			<point x="391" y="693" type="line"/>
			<point x="232" y="693" type="line"/>
			<point x="189" y="514" type="line" smooth="yes"/>
			<point x="164" y="406"/>
			<point x="153" y="317"/>
		</contour>
		<contour>
			<point x="162" y="-13" type="curve" smooth="yes"/>
			<point x="213" y="-13"/>
			<point x="262" y="29"/>
			<point x="262" y="90" type="curve" smooth="yes"/>
			<point x="262" y="145"/>
			<point x="227" y="171"/>
			<point x="180" y="171" type="curve" smooth="yes"/>
			<point x="129" y="171"/>
			<point x="80" y="129"/>
			<point x="80" y="68" type="curve" smooth="yes"/>
			<point x="80" y="13"/>
			<point x="115" y="-13"/>
		</contour>
	</outline>
</glyph>
<glyph name="numbersign" format="2">
	<advance width="660"/>
	<unicode hex="0023"/>
	<outline>
		<contour>
			<point x="69" y="0" type="line"/>
			<point x="197" y="0" type="line"/>
			<point x="268" y="170" type="line"/>
			<point x="379" y="170" type="line"/>
			<point x="308" y="0" type="line"/>
			<point x="436" y="0" type="line"/>
			<point x="507" y="170" type="line"/>
			<point x="638" y="170" type="line"/>
			<point x="666" y="285" type="line"/>
			<point x="555" y="285" type="line"/>
			<point x="606" y="408" type="line"/>
			<point x="696" y="408" type="line"/>
			<point x="724" y="523" type="line"/>
			<point x="654" y="523" type="line"/>
			<point x="726" y="693" type="line"/>
			<point x="598" y="693" type="line"/>
			<point x="526" y="523" type="line"/>
			<point x="415" y="523" type="line"/>
			<point x="487" y="693" type="line"/>
			<point x="359" y="693" type="line"/>
			<point x="287" y="523" type="line"/>
			<point x="157" y="523" type="line"/>
			<point x="129" y="408" type="line"/>
			<point x="239" y="408" type="line"/>
			<point x="188" y="285" type="line"/>
			<point x="99" y="285" type="line"/>
			<point x="71" y="170" type="line"/>
			<point x="140" y="170" type="line"/>
		</contour>
		<contour>
			<point x="316" y="285" type="line"/>
			<point x="367" y="408" type="line"/>
			<point x="478" y="408" type="line"/>
			<point x="427" y="285" type="line"/>
		</contour>
	</outline>
</glyph>
<glyph name="dollar" format="2">
  <advance width="568"/>
  <unicode hex="0024"/>
  <outline>
    <contour>
      <point x="186" y="-109" type="line"/>
      <point x="312" y="-109" type="line"/>
      <point x="341" y="11" type="line"/>
      <point x="466" y="24"/>
      <point x="550" y="88"/>
      <point x="550" y="212" type="curve" smooth="yes"/>
      <point x="550" y="313"/>
      <point x="478" y="359"/>
      <point x="402" y="398" type="curve"/>
      <point x="336" y="430"/>
      <point x="318" y="451"/>
      <point x="318" y="487" type="curve" smooth="yes"/>
      <point x="318" y="532"/>
      <point x="366" y="553"/>
      <point x="423" y="553" type="curve" smooth="yes"/>
      <point x="470" y="553"/>
      <point x="523" y="539"/>
      <point x="558" y="512" type="curve"/>
      <point x="618" y="618" type="line"/>
      <point x="591" y="635"/>
      <point x="548" y="655"/>
      <point x="497" y="666" type="curve"/>
      <point x="525" y="776" type="line"/>
      <point x="399" y="776" type="line"/>
      <point x="372" y="669" type="line"/>
      <point x="231" y="653"/>
      <point x="169" y="569"/>
      <point x="169" y="480" type="curve" smooth="yes"/>
      <point x="169" y="411"/>
      <point x="205" y="343"/>
      <point x="290" y="300" type="curve" smooth="yes"/>
      <point x="360" y="265"/>
      <point x="401" y="244"/>
      <point x="401" y="202" type="curve" smooth="yes"/>
      <point x="401" y="138"/>
      <point x="339" y="129"/>
      <point x="282" y="129" type="curve" smooth="yes"/>
      <point x="218" y="129"/>
      <point x="157" y="157"/>
      <point x="129" y="178" type="curve"/>
      <point x="68" y="68" type="line"/>
      <point x="92" y="51"/>
      <point x="144" y="24"/>
      <point x="216" y="13" type="curve"/>
    </contour>
  </outline>
</glyph>
<glyph name="percent" format="2">
  <advance width="870"/>
  <unicode hex="0025"/>
  <outline>
    <contour>
      <point x="281" y="417" type="curve" smooth="yes"/>
      <point x="253" y="417"/>
      <point x="230" y="436"/>
      <point x="230" y="472" type="curve" smooth="yes"/>
      <point x="230" y="560"/>
      <point x="273" y="614"/>
      <point x="316" y="614" type="curve" smooth="yes"/>
      <point x="344" y="614"/>
      <point x="364" y="594"/>
      <point x="364" y="558" type="curve" smooth="yes"/>
      <point x="364" y="470"/>
      <point x="324" y="417"/>
    </contour>
    <contour>
      <point x="154" y="0" type="line"/>
      <point x="298" y="0" type="line"/>
      <point x="856" y="693" type="line"/>
      <point x="712" y="693" type="line"/>
    </contour>
    <contour>
      <point x="324" y="709" type="curve" smooth="yes"/>
      <point x="219" y="709"/>
      <point x="120" y="619"/>
      <point x="120" y="468" type="curve" smooth="yes"/>
      <point x="120" y="369"/>
      <point x="182" y="321"/>
      <point x="270" y="321" type="curve" smooth="yes"/>
      <point x="375" y="321"/>
      <point x="474" y="411"/>
      <point x="474" y="562" type="curve" smooth="yes"/>
      <point x="474" y="661"/>
      <point x="412" y="709"/>
    </contour>
    <contour>
      <point x="697" y="80" type="curve" smooth="yes"/>
      <point x="669" y="80"/>
      <point x="646" y="99"/>
      <point x="646" y="135" type="curve" smooth="yes"/>
      <point x="646" y="223"/>
      <point x="689" y="277"/>
      <point x="732" y="277" type="curve" smooth="yes"/>
      <point x="760" y="277"/>
      <point x="780" y="257"/>
      <point x="780" y="221" type="curve" smooth="yes"/>
      <point x="780" y="133"/>
      <point x="740" y="80"/>
    </contour>
    <contour>
      <point x="740" y="372" type="curve" smooth="yes"/>
      <point x="635" y="372"/>
      <point x="536" y="282"/>
      <point x="536" y="131" type="curve" smooth="yes"/>
      <point x="536" y="32"/>
      <point x="598" y="-16"/>
      <point x="686" y="-16" type="curve" smooth="yes"/>
      <point x="791" y="-16"/>
      <point x="890" y="74"/>
      <point x="890" y="225" type="curve" smooth="yes"/>
      <point x="890" y="324"/>
      <point x="828" y="372"/>
    </contour>
  </outline>
</glyph>
<glyph name="parenleft" format="2">
	<advance width="356"/>
	<unicode hex="0028"/>
	<outline>
		<contour>
			<point x="184" y="-185" type="curve"/>
			<point x="294" y="-118" type="line"/>
			<point x="259" y="-34"/>
			<point x="244" y="48"/>
			<point x="244" y="131" type="curve" smooth="yes"/>
			<point x="244" y="347"/>
			<point x="350" y="552"/>
			<point x="501" y="716" type="curve"/>
			<point x="405" y="783" type="line"/>
			<point x="223" y="618"/>
			<point x="98" y="374"/>
			<point x="98" y="135" type="curve" smooth="yes"/>
			<point x="98" y="23"/>
			<point x="124" y="-85"/>
		</contour>
	</outline>
</glyph>
<glyph name="parenright" format="2">
	<advance width="356"/>
	<unicode hex="0029"/>
	<outline>
		<contour>
			<point x="72" y="-184" type="line"/>
			<point x="254" y="-19"/>
			<point x="379" y="225"/>
			<point x="379" y="464" type="curve" smooth="yes"/>
			<point x="379" y="576"/>
			<point x="353" y="684"/>
			<point x="293" y="784" type="curve"/>
			<point x="183" y="717" type="line"/>
			<point x="218" y="633"/>
			<point x="233" y="551"/>
			<point x="233" y="468" type="curve" smooth="yes"/>
			<point x="233" y="253"/>
			<point x="128" y="45"/>
			<point x="-24" y="-117" type="curve"/>
		</contour>
	</outline>
</glyph>
<glyph name="asterisk" format="2">
	<unicode hex="002A"/>
	<advance width="502"/>
	<outline>
		<contour>
			<point x="373" y="536" type="qcurve"/>
			<point x="383" y="545"/>
			<point x="413" y="566"/>
			<point x="444" y="587"/>
			<point x="476" y="604"/>
			<point x="488" y="608" type="qcurve"/>
			<point x="512" y="616" type="line"/>
			<point x="552" y="492" type="line"/>
			<point x="528" y="484" type="line"/>
			<point x="515" y="480"/>
			<point x="481" y="476"/>
			<point x="443" y="475"/>
			<point x="407" y="475"/>
			<point x="393" y="475" type="qcurve"/>
			<point x="405" y="467"/>
			<point x="434" y="446"/>
			<point x="463" y="423"/>
			<point x="489" y="399"/>
			<point x="497" y="388" type="qcurve"/>
			<point x="513" y="367" type="line"/>
			<point x="407" y="292" type="line"/>
			<point x="392" y="312" type="line"/>
			<point x="384" y="322"/>
			<point x="369" y="354"/>
			<point x="355" y="389"/>
			<point x="345" y="423"/>
			<point x="341" y="437" type="qcurve"/>
			<point x="337" y="423"/>
			<point x="327" y="389"/>
			<point x="313" y="354"/>
			<point x="298" y="322"/>
			<point x="290" y="312" type="qcurve"/>
			<point x="275" y="292" type="line"/>
			<point x="169" y="367" type="line"/>
			<point x="185" y="388" type="line"/>
			<point x="193" y="399"/>
			<point x="219" y="423"/>
			<point x="248" y="446"/>
			<point x="277" y="467"/>
			<point x="289" y="475" type="qcurve"/>
			<point x="275" y="475"/>
			<point x="239" y="475"/>
			<point x="201" y="476"/>
			<point x="167" y="480"/>
			<point x="154" y="484" type="qcurve"/>
			<point x="130" y="492" type="line"/>
			<point x="170" y="616" type="line"/>
			<point x="194" y="608" type="line"/>
			<point x="206" y="604"/>
			<point x="238" y="587"/>
			<point x="269" y="566"/>
			<point x="298" y="545"/>
			<point x="309" y="536" type="qcurve"/>
			<point x="304" y="549"/>
			<point x="293" y="584"/>
			<point x="283" y="620"/>
			<point x="276" y="655"/>
			<point x="276" y="668" type="qcurve"/>
			<point x="276" y="693" type="line"/>
			<point x="406" y="693" type="line"/>
			<point x="406" y="668" type="line"/>
			<point x="406" y="655"/>
			<point x="399" y="620"/>
			<point x="389" y="584"/>
			<point x="378" y="549"/>
		</contour>
	</outline>
</glyph>
<glyph name="plus" format="2">
  <advance width="568"/>
  <unicode hex="002B"/>
  <outline>
    <contour>
      <point x="95" y="236" type="line"/>
      <point x="262" y="236" type="line"/>
      <point x="218" y="51" type="line"/>
      <point x="354" y="51" type="line"/>
      <point x="398" y="236" type="line"/>
      <point x="565" y="236" type="line"/>
      <point x="596" y="361" type="line"/>
      <point x="429" y="361" type="line"/>
      <point x="473" y="546" type="line"/>
      <point x="337" y="546" type="line"/>
      <point x="293" y="361" type="line"/>
      <point x="126" y="361" type="line"/>
    </contour>
  </outline>
</glyph>
<glyph name="comma" format="2">
	<unicode hex="002C"/>
	<advance width="251"/>
	<outline>
		<contour>
			<point x="241" y="152" type="line"/>
			<point x="238" y="65"/>
			<point x="157" y="-91"/>
			<point x="99" y="-163" type="qcurve"/>
			<point x="-10" y="-134" type="line"/>
			<point x="28" y="-68"/>
			<point x="80" y="74"/>
			<point x="85" y="152" type="qcurve"/>
		</contour>
	</outline>
</glyph>
<glyph name="period" format="2">
	<unicode hex="002E"/>
	<advance width="252"/>
	<outline>
		<contour>
			<point x="160" y="171" type="qcurve"/>
			<point x="195" y="171"/>
			<point x="242" y="132"/>
			<point x="242" y="90" type="qcurve"/>
			<point x="242" y="67"/>
			<point x="225" y="29"/>
			<point x="197" y="2"/>
			<point x="161" y="-13"/>
			<point x="142" y="-13" type="qcurve"/>
			<point x="107" y="-13"/>
			<point x="60" y="26"/>
			<point x="60" y="68" type="qcurve"/>
			<point x="60" y="91"/>
			<point x="77" y="129"/>
			<point x="105" y="156"/>
			<point x="141" y="171"/>
		</contour>
	</outline>
</glyph>
<glyph name="two" format="2">
	<advance width="568"/>
	<unicode hex="0032"/>
	<outline>
		<contour>
			<point x="60" y="0" type="curve"/>
			<point x="521" y="0" type="line"/>
			<point x="551" y="124" type="line"/>
			<point x="253" y="124" type="line"/>
			<point x="312" y="199"/>
			<point x="388" y="240"/>
			<point x="460" y="296" type="curve" smooth="yes"/>
			<point x="583" y="393"/>
			<point x="623" y="442"/>
			<point x="623" y="544" type="curve" smooth="yes"/>
			<point x="623" y="635"/>
			<point x="543" y="709"/>
			<point x="435" y="709" type="curve" smooth="yes"/>
			<point x="350" y="709"/>
			<point x="271" y="685"/>
			<point x="191" y="620" type="curve"/>
			<point x="242" y="511" type="line"/>
			<point x="303" y="558"/>
			<point x="352" y="581"/>
			<point x="407" y="581" type="curve" smooth="yes"/>
			<point x="446" y="581"/>
			<point x="473" y="555"/>
			<point x="473" y="520" type="curve" smooth="yes"/>
			<point x="473" y="463"/>
			<point x="428" y="425"/>
			<point x="308" y="332" type="curve" smooth="yes"/>
			<point x="181" y="234"/>
			<point x="84" y="168"/>
		</contour>
	</outline>
</glyph>
<glyph name="three" format="2">
  <advance width="568"/>
  <unicode hex="0033"/>
  <outline>
    <contour>
      <point x="474" y="368" type="curve"/>
      <point x="563" y="400"/>
      <point x="608" y="469"/>
      <point x="608" y="539" type="curve" smooth="yes"/>
      <point x="608" y="624"/>
      <point x="538" y="709"/>
      <point x="396" y="709" type="curve" smooth="yes"/>
      <point x="321" y="709"/>
      <point x="252" y="689"/>
      <point x="187" y="652" type="curve"/>
      <point x="225" y="540" type="line"/>
      <point x="278" y="568"/>
      <point x="330" y="583"/>
      <point x="371" y="583" type="curve" smooth="yes"/>
      <point x="423" y="583"/>
      <point x="458" y="562"/>
      <point x="458" y="515" type="curve" smooth="yes"/>
      <point x="458" y="441"/>
      <point x="384" y="423"/>
      <point x="328" y="423" type="curve" smooth="yes"/>
      <point x="256" y="423" type="line"/>
      <point x="227" y="305" type="line"/>
      <point x="291" y="305" type="line" smooth="yes"/>
      <point x="366" y="305"/>
      <point x="414" y="277"/>
      <point x="414" y="222" type="curve" smooth="yes"/>
      <point x="414" y="137"/>
      <point x="345" y="106"/>
      <point x="269" y="106" type="curve" smooth="yes"/>
      <point x="209" y="106"/>
      <point x="148" y="124"/>
      <point x="109" y="151" type="curve"/>
      <point x="55" y="33" type="line"/>
      <point x="116" y="2"/>
      <point x="184" y="-14"/>
      <point x="260" y="-14" type="curve" smooth="yes"/>
      <point x="473" y="-14"/>
      <point x="562" y="107"/>
      <point x="562" y="216" type="curve" smooth="yes"/>
      <point x="562" y="281"/>
      <point x="530" y="341"/>
    </contour>
  </outline>
</glyph>
<glyph name="four" format="2">
  <advance width="568"/>
  <unicode hex="0034"/>
  <outline>
    <contour>
      <point x="327" y="0" type="line"/>
      <point x="469" y="0" type="line"/>
      <point x="507" y="155" type="line"/>
      <point x="581" y="155" type="line"/>
      <point x="610" y="275" type="line"/>
      <point x="537" y="275" type="line"/>
      <point x="638" y="693" type="line"/>
      <point x="496" y="693" type="line"/>
      <point x="347" y="573"/>
      <point x="177" y="382"/>
      <point x="92" y="265" type="curve"/>
      <point x="67" y="155" type="line"/>
      <point x="364" y="155" type="line"/>
    </contour>
    <contour>
      <point x="235" y="275" type="line"/>
      <point x="299" y="358"/>
      <point x="386" y="451"/>
      <point x="455" y="517" type="curve"/>
      <point x="397" y="275" type="line"/>
    </contour>
  </outline>
</glyph>
<glyph name="five" format="2">
	<advance width="568"/>
	<unicode hex="0035"/>
	<outline>
		<contour>
			<point x="273" y="-14" type="curve" smooth="yes"/>
			<point x="466" y="-14"/>
			<point x="566" y="83"/>
			<point x="566" y="233" type="curve" smooth="yes"/>
			<point x="566" y="337"/>
			<point x="493" y="422"/>
			<point x="334" y="435" type="curve"/>
			<point x="346" y="468"/>
			<point x="363" y="521"/>
			<point x="376" y="569" type="curve"/>
			<point x="623" y="569" type="line"/>
			<point x="653" y="693" type="line"/>
			<point x="283" y="693" type="line"/>
			<point x="252" y="581"/>
			<point x="211" y="451"/>
			<point x="167" y="327" type="curve"/>
			<point x="355" y="327"/>
			<point x="418" y="286"/>
			<point x="418" y="222" type="curve" smooth="yes"/>
			<point x="418" y="146"/>
			<point x="366" y="111"/>
			<point x="270" y="111" type="curve" smooth="yes"/>
			<point x="221" y="111"/>
			<point x="165" y="126"/>
			<point x="118" y="154" type="curve"/>
			<point x="63" y="33" type="line"/>
			<point x="124" y="1"/>
			<point x="216" y="-14"/>
		</contour>
	</outline>
</glyph>
<glyph name="seven" format="2">
  <advance width="568"/>
  <unicode hex="0037"/>
  <outline>
    <contour>
      <point x="286" y="0" type="line"/>
      <point x="352" y="246"/>
      <point x="551" y="500"/>
      <point x="652" y="585" type="curve"/>
      <point x="678" y="693" type="line"/>
      <point x="193" y="693" type="line"/>
      <point x="162" y="567" type="line"/>
      <point x="463" y="567" type="line"/>
      <point x="338" y="436"/>
      <point x="186" y="197"/>
      <point x="135" y="0" type="curve"/>
    </contour>
  </outline>
</glyph>
<glyph name="eight" format="2">
  <advance width="568"/>
  <unicode hex="0038"/>
  <outline>
    <contour>
      <point x="93" y="157" type="curve" smooth="yes"/>
      <point x="93" y="29"/>
      <point x="207" y="-14"/>
      <point x="306" y="-14" type="curve" smooth="yes"/>
      <point x="478" y="-14"/>
      <point x="572" y="83"/>
      <point x="572" y="203" type="curve" smooth="yes"/>
      <point x="572" y="278"/>
      <point x="535" y="319"/>
      <point x="490" y="351" type="curve"/>
      <point x="610" y="410"/>
      <point x="630" y="485"/>
      <point x="630" y="543" type="curve" smooth="yes"/>
      <point x="630" y="643"/>
      <point x="546" y="709"/>
      <point x="434" y="709" type="curve" smooth="yes"/>
      <point x="266" y="709"/>
      <point x="189" y="597"/>
      <point x="189" y="492" type="curve" smooth="yes"/>
      <point x="189" y="436"/>
      <point x="214" y="399"/>
      <point x="246" y="368" type="curve"/>
      <point x="137" y="301"/>
      <point x="93" y="238"/>
    </contour>
    <contour>
      <point x="428" y="199" type="curve" smooth="yes"/>
      <point x="428" y="140"/>
      <point x="376" y="105"/>
      <point x="320" y="105" type="curve" smooth="yes"/>
      <point x="273" y="105"/>
      <point x="236" y="128"/>
      <point x="236" y="175" type="curve" smooth="yes"/>
      <point x="236" y="218"/>
      <point x="254" y="267"/>
      <point x="337" y="307" type="curve"/>
      <point x="388" y="280"/>
      <point x="428" y="252"/>
    </contour>
    <contour>
      <point x="326" y="501" type="curve" smooth="yes"/>
      <point x="326" y="550"/>
      <point x="361" y="590"/>
      <point x="416" y="590" type="curve" smooth="yes"/>
      <point x="463" y="590"/>
      <point x="491" y="565"/>
      <point x="491" y="522" type="curve" smooth="yes"/>
      <point x="491" y="485"/>
      <point x="471" y="444"/>
      <point x="394" y="408" type="curve"/>
      <point x="357" y="431"/>
      <point x="326" y="458"/>
    </contour>
  </outline>
</glyph>
<glyph name="equal" format="2">
  <advance width="568"/>
  <unicode hex="003D"/>
  <outline>
    <contour>
      <point x="74" y="126" type="line"/>
      <point x="544" y="126" type="line"/>
      <point x="574" y="251" type="line"/>
      <point x="104" y="251" type="line"/>
    </contour>
    <contour>
      <point x="127" y="345" type="line"/>
      <point x="597" y="345" type="line"/>
      <point x="627" y="470" type="line"/>
      <point x="157" y="470" type="line"/>
    </contour>
  </outline>
</glyph>
<glyph name="question" format="2">
	<advance width="430"/>
	<unicode hex="003F"/>
	<outline>
		<contour>
			<point x="171" y="221" type="curve"/>
			<point x="303" y="221" type="line"/>
			<point x="307" y="270"/>
			<point x="351" y="306"/>
			<point x="402" y="345" type="curve" smooth="yes"/>
			<point x="471" y="398"/>
			<point x="550" y="448"/>
			<point x="550" y="563" type="curve" smooth="yes"/>
			<point x="550" y="660"/>
			<point x="464" y="709"/>
			<point x="368" y="709" type="curve" smooth="yes"/>
			<point x="300" y="709"/>
			<point x="229" y="689"/>
			<point x="177" y="660" type="curve"/>
			<point x="196" y="543" type="line"/>
			<point x="231" y="562"/>
			<point x="290" y="583"/>
			<point x="339" y="583" type="curve" smooth="yes"/>
			<point x="376" y="583"/>
			<point x="404" y="568"/>
			<point x="404" y="533" type="curve" smooth="yes"/>
			<point x="404" y="495"/>
			<point x="371" y="468"/>
			<point x="292" y="407" type="curve" smooth="yes"/>
			<point x="226" y="356"/>
			<point x="171" y="304"/>
		</contour>
		<contour>
			<point x="205" y="-13" type="curve" smooth="yes"/>
			<point x="256" y="-13"/>
			<point x="305" y="29"/>
			<point x="305" y="90" type="curve" smooth="yes"/>
			<point x="305" y="145"/>
			<point x="270" y="171"/>
			<point x="223" y="171" type="curve" smooth="yes"/>
			<point x="172" y="171"/>
			<point x="123" y="129"/>
			<point x="123" y="68" type="curve" smooth="yes"/>
			<point x="123" y="13"/>
			<point x="158" y="-13"/>
		</contour>
	</outline>
</glyph>
<glyph name="A" format="2">
	<advance width="714"/>
	<unicode hex="0041"/>
	<outline>
		<contour>
			<point x="15" y="0" type="curve"/>
			<point x="178" y="0" type="line"/>
			<point x="205" y="52"/>
			<point x="235" y="102"/>
			<point x="262" y="151" type="curve"/>
			<point x="522" y="151" type="line"/>
			<point x="526" y="102"/>
			<point x="529" y="52"/>
			<point x="532" y="0" type="curve"/>
			<point x="689" y="0" type="line"/>
			<point x="665" y="214"/>
			<point x="632" y="500"/>
			<point x="589" y="693" type="curve"/>
			<point x="450" y="693" type="line"/>
			<point x="311" y="501"/>
			<point x="188" y="298"/>
		</contour>
		<contour>
			<point x="325" y="273" type="line"/>
			<point x="376" y="364"/>
			<point x="430" y="452"/>
			<point x="486" y="541" type="curve"/>
			<point x="499" y="449"/>
			<point x="505" y="354"/>
			<point x="512" y="273" type="curve"/>
		</contour>
	</outline>
</glyph>
<glyph name="D" format="2">
	<advance width="718"/>
	<unicode hex="0044"/>
	<outline>
		<contour>
			<point x="278" y="-9" type="curve" smooth="yes"/>
			<point x="573" y="-9"/>
			<point x="754" y="155"/>
			<point x="754" y="423" type="curve" smooth="yes"/>
			<point x="754" y="588"/>
			<point x="638" y="701"/>
			<point x="440" y="701" type="curve" smooth="yes"/>
			<point x="384" y="701"/>
			<point x="312" y="696"/>
			<point x="236" y="681" type="curve"/>
			<point x="75" y="12" type="line"/>
			<point x="143" y="-3"/>
			<point x="222" y="-9"/>
		</contour>
		<contour>
			<point x="311" y="123" type="curve" smooth="yes"/>
			<point x="284" y="123"/>
			<point x="272" y="124"/>
			<point x="257" y="125" type="curve"/>
			<point x="363" y="567" type="line"/>
			<point x="384" y="569"/>
			<point x="404" y="570"/>
			<point x="424" y="570" type="curve" smooth="yes"/>
			<point x="548" y="570"/>
			<point x="594" y="508"/>
			<point x="594" y="415" type="curve" smooth="yes"/>
			<point x="594" y="233"/>
			<point x="484" y="123"/>
		</contour>
	</outline>
</glyph>
<glyph name="F" format="2">
  <advance width="575"/>
  <unicode hex="0046"/>
  <outline>
    <contour>
      <point x="230" y="0" type="line"/>
      <point x="299" y="287" type="line"/>
      <point x="558" y="287" type="line"/>
      <point x="589" y="416" type="line"/>
      <point x="330" y="416" type="line"/>
      <point x="365" y="564" type="line"/>
      <point x="658" y="564" type="line"/>
      <point x="690" y="693" type="line"/>
      <point x="241" y="693" type="line"/>
      <point x="75" y="0" type="line"/>
    </contour>
  </outline>
</glyph>
<glyph name="G" format="2">
  <advance width="688"/>
  <unicode hex="0047"/>
  <outline>
    <contour>
      <point x="408" y="-13" type="curve" smooth="yes"/>
      <point x="517" y="-13"/>
      <point x="587" y="4"/>
      <point x="624" y="19" type="curve"/>
      <point x="708" y="366" type="line"/>
      <point x="552" y="366" type="line"/>
      <point x="494" y="125" type="line"/>
      <point x="477" y="122"/>
      <point x="456" y="120"/>
      <point x="429" y="120" type="curve" smooth="yes"/>
      <point x="333" y="120"/>
      <point x="284" y="173"/>
      <point x="284" y="289" type="curve" smooth="yes"/>
      <point x="284" y="444"/>
      <point x="377" y="576"/>
      <point x="540" y="576" type="curve" smooth="yes"/>
      <point x="591" y="576"/>
      <point x="645" y="561"/>
      <point x="692" y="532" type="curve"/>
      <point x="748" y="653" type="line"/>
      <point x="691" y="690"/>
      <point x="614" y="709"/>
      <point x="550" y="709" type="curve" smooth="yes"/>
      <point x="272" y="709"/>
      <point x="123" y="488"/>
      <point x="123" y="280" type="curve" smooth="yes"/>
      <point x="123" y="99"/>
      <point x="221" y="-13"/>
    </contour>
  </outline>
</glyph>
<glyph name="H" format="2">
  <advance width="714"/>
  <unicode hex="0048"/>
  <outline>
    <contour>
      <point x="579" y="427" type="line"/>
      <point x="333" y="427" type="line"/>
      <point x="397" y="693" type="line"/>
      <point x="241" y="693" type="line"/>
      <point x="75" y="0" type="line"/>
      <point x="230" y="0" type="line"/>
      <point x="301" y="295" type="line"/>
      <point x="547" y="295" type="line"/>
      <point x="476" y="0" type="line"/>
      <point x="632" y="0" type="line"/>
      <point x="799" y="693" type="line"/>
      <point x="643" y="693" type="line"/>
    </contour>
  </outline>
</glyph>
<glyph name="J" format="2">
	<unicode hex="004A"/>
	<advance width="516"/>
	<outline>
		<contour>
			<point x="485" y="210" type="line"/>
			<point x="473" y="159"/>
			<point x="433" y="76"/>
			<point x="369" y="17"/>
			<point x="275" y="-14"/>
			<point x="208" y="-14" type="qcurve"/>
			<point x="154" y="-14"/>
			<point x="57" y="19"/>
			<point x="20" y="47" type="qcurve"/>
			<point x="89" y="163" type="line"/>
			<point x="113" y="146"/>
			<point x="170" y="120"/>
			<point x="209" y="120" type="qcurve"/>
			<point x="237" y="120"/>
			<point x="278" y="133"/>
			<point x="308" y="162"/>
			<point x="329" y="208"/>
			<point x="337" y="241" type="qcurve"/>
			<point x="445" y="693" type="line"/>
			<point x="601" y="693" type="line"/>
		</contour>
	</outline>
</glyph>
<glyph name="K" format="2">
	<unicode hex="004B"/>
	<advance width="662"/>
	<outline>
		<contour>
			<point x="483" y="0" type="line"/>
			<point x="469" y="34"/>
			<point x="430" y="112"/>
			<point x="383" y="190"/>
			<point x="329" y="262"/>
			<point x="301" y="290" type="qcurve"/>
			<point x="230" y="0" type="line"/>
			<point x="75" y="0" type="line"/>
			<point x="241" y="693" type="line"/>
			<point x="397" y="693" type="line"/>
			<point x="336" y="443" type="line"/>
			<point x="414" y="510"/>
			<point x="552" y="633"/>
			<point x="612" y="693" type="qcurve"/>
			<point x="797" y="693" type="line"/>
			<point x="706" y="608"/>
			<point x="527" y="441"/>
			<point x="428" y="362" type="qcurve"/>
			<point x="491" y="293"/>
			<point x="607" y="115"/>
			<point x="653" y="0" type="qcurve"/>
		</contour>
	</outline>
</glyph>
<glyph name="L" format="2">
  <advance width="564"/>
  <unicode hex="004C"/>
  <outline>
    <contour>
      <point x="262" y="132" type="line"/>
      <point x="397" y="693" type="line"/>
      <point x="241" y="693" type="line"/>
      <point x="75" y="0" type="line"/>
      <point x="537" y="0" type="line"/>
      <point x="569" y="132" type="line"/>
    </contour>
  </outline>
</glyph>
<glyph name="M" format="2">
	<advance width="878"/>
	<unicode hex="004D"/>
	<outline>
		<contour>
			<point x="55" y="0" type="curve"/>
			<point x="206" y="0" type="line"/>
			<point x="242" y="135"/>
			<point x="283" y="299"/>
			<point x="335" y="460" type="curve"/>
			<point x="357" y="347"/>
			<point x="384" y="168"/>
			<point x="397" y="88" type="curve"/>
			<point x="511" y="88" type="line"/>
			<point x="570" y="177"/>
			<point x="678" y="351"/>
			<point x="747" y="460" type="curve"/>
			<point x="720" y="299"/>
			<point x="687" y="135"/>
			<point x="659" y="0" type="curve"/>
			<point x="811" y="0" type="line"/>
			<point x="854" y="219"/>
			<point x="899" y="510"/>
			<point x="918" y="693" type="curve"/>
			<point x="780" y="693" type="line"/>
			<point x="714" y="605"/>
			<point x="584" y="410"/>
			<point x="493" y="271" type="curve"/>
			<point x="469" y="411"/>
			<point x="432" y="621"/>
			<point x="416" y="693" type="curve"/>
			<point x="276" y="693" type="line"/>
			<point x="207" y="511"/>
			<point x="116" y="219"/>
		</contour>
	</outline>
</glyph>
<glyph name="N" format="2">
  <advance width="742"/>
  <unicode hex="004E"/>
  <outline>
    <contour>
      <point x="660" y="0" type="line"/>
      <point x="827" y="693" type="line"/>
      <point x="672" y="693" type="line"/>
      <point x="573" y="276" type="line"/>
      <point x="506" y="431"/>
      <point x="421" y="600"/>
      <point x="360" y="693" type="curve"/>
      <point x="241" y="693" type="line"/>
      <point x="75" y="0" type="line"/>
      <point x="228" y="0" type="line"/>
      <point x="338" y="459" type="line"/>
      <point x="417" y="320"/>
      <point x="487" y="157"/>
      <point x="543" y="0" type="curve"/>
    </contour>
  </outline>
</glyph>
<glyph name="Q" format="2">
	<unicode hex="0051"/>
	<advance width="756"/>
	<outline>
		<contour>
			<point x="610" y="-187" type="line"/>
			<point x="531" y="-184"/>
			<point x="425" y="-158"/>
			<point x="360" y="-115"/>
			<point x="332" y="-53"/>
			<point x="332" y="-14" type="qcurve"/>
			<point x="332" y="-7" type="line"/>
			<point x="236" y="13"/>
			<point x="123" y="159"/>
			<point x="123" y="277" type="qcurve"/>
			<point x="123" y="355"/>
			<point x="177" y="509"/>
			<point x="278" y="632"/>
			<point x="424" y="709"/>
			<point x="516" y="709" type="qcurve"/>
			<point x="577" y="709"/>
			<point x="679" y="669"/>
			<point x="753" y="594"/>
			<point x="794" y="486"/>
			<point x="794" y="418" type="qcurve"/>
			<point x="794" y="349"/>
			<point x="752" y="210"/>
			<point x="671" y="93"/>
			<point x="554" y="9"/>
			<point x="479" y="-6" type="qcurve"/>
			<point x="479" y="-9" type="line"/>
			<point x="479" y="-31"/>
			<point x="508" y="-57"/>
			<point x="557" y="-71"/>
			<point x="621" y="-77"/>
			<point x="656" y="-79" type="qcurve"/>
		</contour>
		<contour>
			<point x="500" y="575" type="qcurve"/>
			<point x="454" y="575"/>
			<point x="375" y="527"/>
			<point x="316" y="447"/>
			<point x="283" y="343"/>
			<point x="283" y="288" type="qcurve"/>
			<point x="283" y="213"/>
			<point x="346" y="120"/>
			<point x="417" y="120" type="qcurve"/>
			<point x="463" y="120"/>
			<point x="542" y="168"/>
			<point x="601" y="248"/>
			<point x="634" y="351"/>
			<point x="634" y="407" type="qcurve"/>
			<point x="634" y="482"/>
			<point x="571" y="575"/>
		</contour>
	</outline>
</glyph>
<glyph name="S" format="2">
	<advance width="559"/>
	<unicode hex="0053"/>
	<outline>
		<contour>
			<point x="270" y="-14" type="curve" smooth="yes"/>
			<point x="440" y="-14"/>
			<point x="557" y="58"/>
			<point x="557" y="210" type="curve" smooth="yes"/>
			<point x="557" y="319"/>
			<point x="482" y="367"/>
			<point x="398" y="410" type="curve" smooth="yes"/>
			<point x="351" y="434"/>
			<point x="309" y="449"/>
			<point x="309" y="502" type="curve" smooth="yes"/>
			<point x="309" y="561"/>
			<point x="364" y="581"/>
			<point x="425" y="581" type="curve" smooth="yes"/>
			<point x="480" y="581"/>
			<point x="531" y="561"/>
			<point x="564" y="536" type="curve"/>
			<point x="629" y="651" type="line"/>
			<point x="589" y="678"/>
			<point x="513" y="709"/>
			<point x="427" y="709" type="curve" smooth="yes"/>
			<point x="241" y="709"/>
			<point x="149" y="616"/>
			<point x="149" y="493" type="curve" smooth="yes"/>
			<point x="149" y="398"/>
			<point x="205" y="348"/>
			<point x="278" y="305" type="curve"/>
			<point x="333" y="274"/>
			<point x="397" y="254"/>
			<point x="397" y="200" type="curve" smooth="yes"/>
			<point x="397" y="131"/>
			<point x="330" y="116"/>
			<point x="269" y="116" type="curve" smooth="yes"/>
			<point x="201" y="116"/>
			<point x="137" y="148"/>
			<point x="106" y="169" type="curve"/>
			<point x="40" y="50" type="line"/>
			<point x="74" y="27"/>
			<point x="158" y="-14"/>
		</contour>
	</outline>
</glyph>
<glyph name="X" format="2">
	<advance width="669"/>
	<unicode hex="0058"/>
	<outline>
		<contour>
			<point x="15" y="0" type="curve"/>
			<point x="193" y="0" type="line"/>
			<point x="260" y="82"/>
			<point x="327" y="163"/>
			<point x="394" y="245" type="curve"/>
			<point x="429" y="171"/>
			<point x="450" y="114"/>
			<point x="487" y="0" type="curve"/>
			<point x="654" y="0" type="line"/>
			<point x="609" y="139"/>
			<point x="569" y="233"/>
			<point x="513" y="358" type="curve"/>
			<point x="602" y="457"/>
			<point x="702" y="584"/>
			<point x="779" y="693" type="curve"/>
			<point x="608" y="693" type="line"/>
			<point x="561" y="628"/>
			<point x="504" y="551"/>
			<point x="444" y="479" type="curve"/>
			<point x="361" y="693" type="line"/>
			<point x="189" y="693" type="line"/>
			<point x="330" y="377" type="line"/>
			<point x="225" y="251"/>
			<point x="120" y="126"/>
		</contour>
	</outline>
</glyph>
<glyph name="asciicircum" format="2">
	<advance width="568"/>
	<unicode hex="005E"/>
	<outline>
		<contour>
			<point x="490" y="292" type="line"/>
			<point x="620" y="347" type="line"/>
			<point x="503" y="697" type="line"/>
			<point x="385" y="697" type="line"/>
			<point x="104" y="361" type="line"/>
			<point x="210" y="296" type="line"/>
			<point x="412" y="539" type="line"/>
		</contour>
	</outline>
</glyph>
<glyph name="a" format="2">
	<advance width="588"/>
	<unicode hex="0061"/>
	<outline>
		<contour>
			<point x="286" y="-14" type="curve" smooth="yes"/>
			<point x="342" y="-14"/>
			<point x="387" y="8"/>
			<point x="424" y="39" type="curve"/>
			<point x="431" y="20"/>
			<point x="437" y="7"/>
			<point x="445" y="-9" type="curve"/>
			<point x="578" y="10" type="line"/>
			<point x="555" y="69"/>
			<point x="544" y="151"/>
			<point x="563" y="227" type="curve"/>
			<point x="628" y="499" type="line"/>
			<point x="551" y="536"/>
			<point x="448" y="538"/>
			<point x="423" y="538" type="curve" smooth="yes"/>
			<point x="239" y="538"/>
			<point x="100" y="389"/>
			<point x="100" y="204" type="curve" smooth="yes"/>
			<point x="100" y="85"/>
			<point x="152" y="-14"/>
		</contour>
		<contour>
			<point x="323" y="111" type="curve" smooth="yes"/>
			<point x="266" y="111"/>
			<point x="248" y="151"/>
			<point x="248" y="215" type="curve" smooth="yes"/>
			<point x="248" y="318"/>
			<point x="319" y="415"/>
			<point x="410" y="415" type="curve" smooth="yes"/>
			<point x="430" y="415"/>
			<point x="442" y="414"/>
			<point x="459" y="411" type="curve"/>
			<point x="420" y="253" type="line"/>
			<point x="413" y="222"/>
			<point x="407" y="183"/>
			<point x="404" y="150" type="curve"/>
			<point x="376" y="122"/>
			<point x="354" y="111"/>
		</contour>
	</outline>
</glyph>
<glyph name="c" format="2">
	<advance width="480"/>
	<unicode hex="0063"/>
	<outline>
		<contour>
			<point x="329" y="-14" type="curve" smooth="yes"/>
			<point x="392" y="-14"/>
			<point x="435" y="-1"/>
			<point x="472" y="14" type="curve"/>
			<point x="461" y="133" type="line"/>
			<point x="433" y="121"/>
			<point x="396" y="112"/>
			<point x="357" y="112" type="curve" smooth="yes"/>
			<point x="278" y="112"/>
			<point x="254" y="158"/>
			<point x="254" y="226" type="curve" smooth="yes"/>
			<point x="254" y="341"/>
			<point x="316" y="414"/>
			<point x="415" y="414" type="curve" smooth="yes"/>
			<point x="456" y="414"/>
			<point x="482" y="404"/>
			<point x="509" y="393" type="curve"/>
			<point x="560" y="509" type="line"/>
			<point x="521" y="528"/>
			<point x="475" y="540"/>
			<point x="415" y="540" type="curve" smooth="yes"/>
			<point x="222" y="540"/>
			<point x="100" y="391"/>
			<point x="100" y="210" type="curve" smooth="yes"/>
			<point x="100" y="89"/>
			<point x="165" y="-14"/>
		</contour>
	</outline>
</glyph>
<glyph name="e" format="2">
	<advance width="530"/>
	<unicode hex="0065"/>
	<outline>
		<contour>
			<point x="324" y="-14" type="curve" smooth="yes"/>
			<point x="392" y="-14"/>
			<point x="453" y="0"/>
			<point x="490" y="15" type="curve"/>
			<point x="479" y="132" type="line"/>
			<point x="440" y="117"/>
			<point x="395" y="110"/>
			<point x="352" y="110" type="curve" smooth="yes"/>
			<point x="286" y="110"/>
			<point x="255" y="130"/>
			<point x="247" y="190" type="curve" smooth="yes"/>
			<point x="247" y="191"/>
			<point x="247" y="188"/>
			<point x="247" y="187" type="curve"/>
			<point x="439" y="187"/>
			<point x="580" y="243"/>
			<point x="580" y="392" type="curve" smooth="yes"/>
			<point x="580" y="485"/>
			<point x="508" y="540"/>
			<point x="415" y="540" type="curve" smooth="yes"/>
			<point x="225" y="540"/>
			<point x="100" y="376"/>
			<point x="100" y="206" type="curve" smooth="yes"/>
			<point x="100" y="86"/>
			<point x="160" y="-14"/>
		</contour>
		<contour>
			<point x="251" y="289" type="curve"/>
			<point x="267" y="369"/>
			<point x="323" y="422"/>
			<point x="391" y="422" type="curve" smooth="yes"/>
			<point x="426" y="422"/>
			<point x="445" y="405"/>
			<point x="445" y="374" type="curve" smooth="yes"/>
			<point x="445" y="338"/>
			<point x="416" y="294"/>
		</contour>
	</outline>
</glyph>
<glyph name="f" format="2">
	<advance width="438"/>
	<unicode hex="0066"/>
	<outline>
		<contour>
			<point x="97" y="-189" type="line"/>
			<point x="161" y="-141"/>
			<point x="214" y="-42"/>
			<point x="259" y="149" type="curve" smooth="yes"/>
			<point x="320" y="404" type="line"/>
			<point x="495" y="404" type="line"/>
			<point x="525" y="526" type="line"/>
			<point x="349" y="526" type="line"/>
			<point x="355" y="552" type="line" smooth="yes"/>
			<point x="368" y="608"/>
			<point x="400" y="650"/>
			<point x="473" y="650" type="curve" smooth="yes"/>
			<point x="500" y="650"/>
			<point x="534" y="644"/>
			<point x="558" y="632" type="curve"/>
			<point x="608" y="749" type="line"/>
			<point x="585" y="760"/>
			<point x="538" y="776"/>
			<point x="479" y="776" type="curve" smooth="yes"/>
			<point x="322" y="776"/>
			<point x="239" y="694"/>
			<point x="206" y="554" type="curve" smooth="yes"/>
			<point x="102" y="118" type="line"/>
			<point x="81" y="24"/>
			<point x="34" y="-106"/>
			<point x="-36" y="-170" type="curve"/>
		</contour>
	</outline>
</glyph>
<glyph name="h" format="2">
	<unicode hex="0068"/>
	<advance width="565"/>
	<outline>
		<contour>
			<point x="425" y="535" type="qcurve"/>
			<point x="468" y="535"/>
			<point x="530" y="510"/>
			<point x="570" y="465"/>
			<point x="590" y="403"/>
			<point x="590" y="367" type="qcurve"/>
			<point x="590" y="325"/>
			<point x="580" y="284" type="qcurve"/>
			<point x="512" y="0" type="line"/>
			<point x="363" y="0" type="line"/>
			<point x="429" y="278" type="line"/>
			<point x="433" y="295"/>
			<point x="440" y="333"/>
			<point x="440" y="350" type="qcurve"/>
			<point x="440" y="376"/>
			<point x="413" y="413"/>
			<point x="375" y="413" type="qcurve"/>
			<point x="359" y="413"/>
			<point x="330" y="409"/>
			<point x="316" y="406" type="qcurve"/>
			<point x="219" y="0" type="line"/>
			<point x="70" y="0" type="line"/>
			<point x="250" y="752" type="line"/>
			<point x="405" y="776" type="line"/>
			<point x="344" y="525" type="line"/>
			<point x="364" y="529"/>
			<point x="405" y="535"/>
		</contour>
	</outline>
</glyph>
<glyph name="i" format="2">
	<unicode hex="0069"/>
	<advance width="283"/>
	<outline>
		<contour>
			<point x="218" y="0" type="line"/>
			<point x="70" y="0" type="line"/>
			<point x="195" y="526" type="line"/>
			<point x="344" y="526" type="line"/>
		</contour>
		<contour>
			<point x="290" y="590" type="qcurve"/>
			<point x="259" y="590"/>
			<point x="209" y="627"/>
			<point x="209" y="665" type="qcurve"/>
			<point x="209" y="686"/>
			<point x="226" y="723"/>
			<point x="254" y="750"/>
			<point x="291" y="766"/>
			<point x="312" y="766" type="qcurve"/>
			<point x="343" y="766"/>
			<point x="393" y="729"/>
			<point x="393" y="691" type="qcurve"/>
			<point x="393" y="670"/>
			<point x="376" y="633"/>
			<point x="348" y="606"/>
			<point x="311" y="590"/>
		</contour>
	</outline>
</glyph>
<glyph name="k" format="2">
  <advance width="561"/>
  <unicode hex="006B"/>
  <outline>
    <contour>
      <point x="405" y="776" type="line"/>
      <point x="250" y="752" type="line"/>
      <point x="70" y="0" type="line"/>
      <point x="218" y="0" type="line"/>
      <point x="274" y="230" type="line"/>
      <point x="322" y="169"/>
      <point x="373" y="70"/>
      <point x="397" y="0" type="curve"/>
      <point x="563" y="0" type="line"/>
      <point x="534" y="90"/>
      <point x="472" y="209"/>
      <point x="416" y="278" type="curve"/>
      <point x="520" y="367"/>
      <point x="596" y="443"/>
      <point x="671" y="526" type="curve"/>
      <point x="503" y="526" type="line"/>
      <point x="452" y="470"/>
      <point x="378" y="400"/>
      <point x="299" y="336" type="curve"/>
    </contour>
  </outline>
</glyph>
<glyph name="l" format="2">
	<advance width="315"/>
	<unicode hex="006C"/>
	<outline>
		<contour>
			<point x="288" y="-10" type="curve"/>
			<point x="318" y="113" type="line"/>
			<point x="249" y="118"/>
			<point x="245" y="152"/>
			<point x="256" y="200" type="curve" smooth="yes"/>
			<point x="395" y="776" type="line"/>
			<point x="240" y="752" type="line"/>
			<point x="113" y="221" type="line" smooth="yes"/>
			<point x="84" y="97"/>
			<point x="98" y="-10"/>
		</contour>
	</outline>
</glyph>
<glyph name="p" format="2">
	<advance width="578"/>
	<unicode hex="0070"/>
	<outline>
		<contour>
			<point x="25" y="-185" type="line"/>
			<point x="173" y="-185" type="line"/>
			<point x="218" y="-4" type="line"/>
			<point x="241" y="-8"/>
			<point x="263" y="-10"/>
			<point x="286" y="-10" type="curve" smooth="yes"/>
			<point x="474" y="-10"/>
			<point x="608" y="127"/>
			<point x="608" y="321" type="curve" smooth="yes"/>
			<point x="608" y="441"/>
			<point x="543" y="538"/>
			<point x="394" y="538" type="curve" smooth="yes"/>
			<point x="314" y="538"/>
			<point x="244" y="523"/>
			<point x="191" y="507" type="curve"/>
		</contour>
		<contour>
			<point x="287" y="112" type="curve" smooth="yes"/>
			<point x="272" y="112"/>
			<point x="258" y="113"/>
			<point x="245" y="116" type="curve"/>
			<point x="315" y="407" type="line"/>
			<point x="334" y="411"/>
			<point x="354" y="413"/>
			<point x="375" y="413" type="curve" smooth="yes"/>
			<point x="438" y="413"/>
			<point x="460" y="367"/>
			<point x="460" y="310" type="curve" smooth="yes"/>
			<point x="460" y="193"/>
			<point x="391" y="112"/>
		</contour>
	</outline>
</glyph>
<glyph name="q" format="2">
  <advance width="573"/>
  <unicode hex="0071"/>
  <outline>
    <contour>
      <point x="100" y="204" type="curve" smooth="yes"/>
      <point x="100" y="70"/>
      <point x="176" y="-10"/>
      <point x="277" y="-10" type="curve" smooth="yes"/>
      <point x="307" y="-10"/>
      <point x="337" y="-4"/>
      <point x="367" y="9" type="curve"/>
      <point x="321" y="-185" type="line"/>
      <point x="470" y="-185" type="line"/>
      <point x="633" y="499" type="line"/>
      <point x="568" y="525"/>
      <point x="504" y="538"/>
      <point x="442" y="538" type="curve" smooth="yes"/>
      <point x="251" y="538"/>
      <point x="100" y="412"/>
    </contour>
    <contour>
      <point x="398" y="139" type="line"/>
      <point x="367" y="120"/>
      <point x="344" y="114"/>
      <point x="319" y="114" type="curve" smooth="yes"/>
      <point x="275" y="114"/>
      <point x="248" y="140"/>
      <point x="248" y="215" type="curve" smooth="yes"/>
      <point x="248" y="323"/>
      <point x="312" y="415"/>
      <point x="421" y="415" type="curve" smooth="yes"/>
      <point x="436" y="415"/>
      <point x="451" y="414"/>
      <point x="464" y="411" type="curve"/>
    </contour>
  </outline>
</glyph>
<glyph name="r" format="2">
  <advance width="426"/>
  <unicode hex="0072"/>
  <outline>
    <contour>
      <point x="516" y="518" type="line"/>
      <point x="485" y="531"/>
      <point x="440" y="537"/>
      <point x="407" y="537" type="curve" smooth="yes"/>
      <point x="318" y="537"/>
      <point x="247" y="517"/>
      <point x="190" y="498" type="curve"/>
      <point x="70" y="0" type="line"/>
      <point x="219" y="0" type="line"/>
      <point x="316" y="404" type="line"/>
      <point x="331" y="408"/>
      <point x="356" y="412"/>
      <point x="375" y="412" type="curve" smooth="yes"/>
      <point x="426" y="412"/>
      <point x="445" y="405"/>
      <point x="472" y="398" type="curve"/>
    </contour>
  </outline>
</glyph>
<glyph name="t" format="2">
  <advance width="416"/>
  <unicode hex="0074"/>
  <outline>
    <contour>
      <point x="115" y="243" type="line"/>
      <point x="83" y="107"/>
      <point x="93" y="-12"/>
      <point x="276" y="-12" type="curve" smooth="yes"/>
      <point x="340" y="-12"/>
      <point x="384" y="0"/>
      <point x="424" y="15" type="curve"/>
      <point x="413" y="129" type="line"/>
      <point x="382" y="118"/>
      <point x="353" y="112"/>
      <point x="321" y="112" type="curve" smooth="yes"/>
      <point x="246" y="112"/>
      <point x="241" y="158"/>
      <point x="257" y="220" type="curve"/>
      <point x="301" y="404" type="line"/>
      <point x="466" y="404" type="line"/>
      <point x="496" y="526" type="line"/>
      <point x="330" y="526" type="line"/>
      <point x="368" y="681" type="line"/>
      <point x="213" y="657" type="line"/>
    </contour>
  </outline>
</glyph>
<glyph name="v" format="2">
	<advance width="546"/>
	<unicode hex="0076"/>
	<outline>
		<contour>
			<point x="201" y="0" type="curve"/>
			<point x="325" y="0" type="line"/>
			<point x="429" y="114"/>
			<point x="577" y="337"/>
			<point x="646" y="526" type="curve"/>
			<point x="488" y="526" type="line"/>
			<point x="456" y="419"/>
			<point x="363" y="256"/>
			<point x="303" y="175" type="curve"/>
			<point x="290" y="271"/>
			<point x="282" y="421"/>
			<point x="279" y="526" type="curve"/>
			<point x="125" y="526" type="line"/>
			<point x="136" y="315"/>
			<point x="166" y="133"/>
		</contour>
	</outline>
</glyph>
<glyph name="w" format="2">
	<unicode hex="0077"/>
	<advance width="816"/>
	<outline>
		<contour>
			<point x="482" y="308" type="qcurve"/>
			<point x="463" y="267"/>
			<point x="416" y="182"/>
			<point x="367" y="101"/>
			<point x="321" y="28"/>
			<point x="303" y="0" type="qcurve"/>
			<point x="187" y="0" type="line"/>
			<point x="179" y="42"/>
			<point x="162" y="158"/>
			<point x="146" y="295"/>
			<point x="133" y="448"/>
			<point x="130" y="526" type="qcurve"/>
			<point x="276" y="526" type="line"/>
			<point x="276" y="490"/>
			<point x="277" y="406"/>
			<point x="280" y="316"/>
			<point x="286" y="222"/>
			<point x="291" y="176" type="qcurve"/>
			<point x="316" y="218"/>
			<point x="365" y="309"/>
			<point x="410" y="400"/>
			<point x="449" y="488"/>
			<point x="464" y="526" type="qcurve"/>
			<point x="588" y="526" type="line"/>
			<point x="588" y="454"/>
			<point x="593" y="276"/>
			<point x="603" y="176" type="qcurve"/>
			<point x="630" y="221"/>
			<point x="676" y="316"/>
			<point x="715" y="408"/>
			<point x="746" y="492"/>
			<point x="758" y="526" type="qcurve"/>
			<point x="916" y="526" type="line"/>
			<point x="896" y="476"/>
			<point x="841" y="351"/>
			<point x="769" y="213"/>
			<point x="679" y="69"/>
			<point x="624" y="0" type="qcurve"/>
			<point x="508" y="0" type="line"/>
			<point x="496" y="82"/>
			<point x="484" y="232"/>
		</contour>
	</outline>
</glyph>
<glyph name="x" format="2">
	<advance width="549"/>
	<unicode hex="0078"/>
	<outline>
		<contour>
			<point x="20" y="0" type="line"/>
			<point x="176" y="0" type="line"/>
			<point x="321" y="166" type="line"/>
			<point x="344" y="120"/>
			<point x="368" y="65"/>
			<point x="392" y="0" type="curve"/>
			<point x="539" y="0" type="line"/>
			<point x="510" y="87"/>
			<point x="474" y="167"/>
			<point x="421" y="267" type="curve"/>
			<point x="508" y="360"/>
			<point x="573" y="446"/>
			<point x="629" y="526" type="curve"/>
			<point x="480" y="526" type="line"/>
			<point x="443" y="471"/>
			<point x="402" y="417"/>
			<point x="357" y="362" type="curve"/>
			<point x="281" y="526" type="line"/>
			<point x="130" y="526" type="line"/>
			<point x="259" y="268" type="line"/>
		</contour>
	</outline>
</glyph>
<glyph name="braceleft" format="2">
	<advance width="371"/>
	<unicode hex="007B"/>
	<outline>
		<contour>
			<point x="324" y="-185" type="curve"/>
			<point x="353" y="-66" type="line"/>
			<point x="261" y="-66"/>
			<point x="259" y="-36"/>
			<point x="272" y="16" type="curve" smooth="yes"/>
			<point x="303" y="149" type="line" smooth="yes"/>
			<point x="317" y="212"/>
			<point x="321" y="267"/>
			<point x="250" y="299" type="curve"/>
			<point x="338" y="331"/>
			<point x="360" y="380"/>
			<point x="376" y="449" type="curve" smooth="yes"/>
			<point x="407" y="582" type="line" smooth="yes"/>
			<point x="419" y="635"/>
			<point x="438" y="664"/>
			<point x="528" y="664" type="curve"/>
			<point x="557" y="783" type="line"/>
			<point x="368" y="783"/>
			<point x="302" y="724"/>
			<point x="272" y="603" type="curve"/>
			<point x="236" y="452" type="line" smooth="yes"/>
			<point x="223" y="397"/>
			<point x="192" y="358"/>
			<point x="109" y="358" type="curve"/>
			<point x="80" y="240" type="line"/>
			<point x="156" y="240"/>
			<point x="176" y="210"/>
			<point x="163" y="146" type="curve"/>
			<point x="134" y="22" type="line" smooth="yes"/>
			<point x="102" y="-121"/>
			<point x="139" y="-185"/>
		</contour>
	</outline>
</glyph>
<glyph name="braceright" format="2">
  <advance width="371"/>
  <unicode hex="007D"/>
  <outline>
    <contour>
      <point x="-51" y="-185" type="line"/>
      <point x="138" y="-185"/>
      <point x="204" y="-126"/>
      <point x="234" y="-5" type="curve"/>
      <point x="270" y="146" type="line" smooth="yes"/>
      <point x="283" y="201"/>
      <point x="314" y="240"/>
      <point x="397" y="240" type="curve"/>
      <point x="426" y="358" type="line"/>
      <point x="350" y="358"/>
      <point x="330" y="388"/>
      <point x="343" y="452" type="curve"/>
      <point x="372" y="576" type="line" smooth="yes"/>
      <point x="405" y="724"/>
      <point x="366" y="783"/>
      <point x="182" y="783" type="curve"/>
      <point x="153" y="664" type="line"/>
      <point x="239" y="664"/>
      <point x="250" y="646"/>
      <point x="234" y="582" type="curve" smooth="yes"/>
      <point x="203" y="449" type="line" smooth="yes"/>
      <point x="189" y="386"/>
      <point x="185" y="331"/>
      <point x="256" y="299" type="curve"/>
      <point x="168" y="267"/>
      <point x="146" y="218"/>
      <point x="130" y="149" type="curve" smooth="yes"/>
      <point x="99" y="16" type="line"/>
      <point x="85" y="-38"/>
      <point x="69" y="-66"/>
      <point x="-22" y="-66" type="curve"/>
    </contour>
  </outline>
</glyph>
<glyph name="cent" format="2">
  <advance width="568"/>
  <unicode hex="00A2"/>
  <outline>
    <contour>
      <point x="221" y="-109" type="line"/>
      <point x="363" y="-109" type="line"/>
      <point x="396" y="29" type="line"/>
      <point x="436" y="33"/>
      <point x="478" y="43"/>
      <point x="517" y="59" type="curve"/>
      <point x="506" y="178" type="line"/>
      <point x="471" y="165"/>
      <point x="426" y="152"/>
      <point x="387" y="152" type="curve" smooth="yes"/>
      <point x="339" y="152"/>
      <point x="300" y="172"/>
      <point x="300" y="239" type="curve" smooth="yes"/>
      <point x="300" y="363"/>
      <point x="365" y="433"/>
      <point x="456" y="433" type="curve" smooth="yes"/>
      <point x="487" y="433"/>
      <point x="521" y="426"/>
      <point x="553" y="407" type="curve"/>
      <point x="603" y="522" type="line"/>
      <point x="576" y="537"/>
      <point x="548" y="547"/>
      <point x="520" y="553" type="curve"/>
      <point x="554" y="693" type="line"/>
      <point x="412" y="693" type="line"/>
      <point x="377" y="549" type="line"/>
      <point x="249" y="517"/>
      <point x="146" y="404"/>
      <point x="146" y="234" type="curve" smooth="yes"/>
      <point x="146" y="131"/>
      <point x="191" y="73"/>
      <point x="258" y="45" type="curve"/>
    </contour>
  </outline>
</glyph>
<glyph name="sterling" format="2">
  <advance width="568"/>
  <unicode hex="00A3"/>
  <outline>
    <contour>
      <point x="390" y="459" type="line"/>
      <point x="414" y="560"/>
      <point x="462" y="582"/>
      <point x="519" y="582" type="curve" smooth="yes"/>
      <point x="550" y="582"/>
      <point x="581" y="574"/>
      <point x="614" y="559" type="curve"/>
      <point x="674" y="669" type="line"/>
      <point x="631" y="692"/>
      <point x="580" y="706"/>
      <point x="520" y="706" type="curve" smooth="yes"/>
      <point x="404" y="706"/>
      <point x="297" y="651"/>
      <point x="254" y="490" type="curve" smooth="yes"/>
      <point x="229" y="394" type="line"/>
      <point x="142" y="394" type="line"/>
      <point x="113" y="272" type="line"/>
      <point x="200" y="272" type="line"/>
      <point x="180" y="196"/>
      <point x="152" y="107"/>
      <point x="104" y="0" type="curve"/>
      <point x="538" y="0" type="line"/>
      <point x="568" y="125" type="line"/>
      <point x="297" y="125" type="line"/>
      <point x="314" y="169"/>
      <point x="333" y="225"/>
      <point x="345" y="272" type="curve"/>
      <point x="521" y="272" type="line"/>
      <point x="550" y="394" type="line"/>
      <point x="374" y="394" type="line"/>
    </contour>
  </outline>
</glyph>
<glyph name="currency" format="2">
	<unicode hex="00A4"/>
	<advance width="568"/>
	<outline>
		<contour>
			<point x="354" y="544" type="qcurve"/>
			<point x="379" y="544"/>
			<point x="424" y="536"/>
			<point x="446" y="526" type="qcurve"/>
			<point x="520" y="597" type="line"/>
			<point x="613" y="506" type="line"/>
			<point x="541" y="437" type="line"/>
			<point x="562" y="398"/>
			<point x="562" y="347" type="qcurve"/>
			<point x="562" y="296"/>
			<point x="541" y="257" type="qcurve"/>
			<point x="613" y="188" type="line"/>
			<point x="519" y="96" type="line"/>
			<point x="445" y="168" type="line"/>
			<point x="424" y="158"/>
			<point x="380" y="150"/>
			<point x="354" y="150" type="qcurve"/>
			<point x="329" y="150"/>
			<point x="284" y="158"/>
			<point x="262" y="168" type="qcurve"/>
			<point x="188" y="97" type="line"/>
			<point x="95" y="188" type="line"/>
			<point x="167" y="257" type="line"/>
			<point x="146" y="296"/>
			<point x="146" y="347" type="qcurve"/>
			<point x="146" y="398"/>
			<point x="167" y="437" type="qcurve"/>
			<point x="95" y="506" type="line"/>
			<point x="189" y="598" type="line"/>
			<point x="263" y="526" type="line"/>
			<point x="284" y="536"/>
			<point x="328" y="544"/>
		</contour>
		<contour>
			<point x="436" y="347" type="qcurve"/>
			<point x="436" y="390"/>
			<point x="388" y="434"/>
			<point x="354" y="434" type="qcurve"/>
			<point x="320" y="434"/>
			<point x="272" y="390"/>
			<point x="272" y="347" type="qcurve"/>
			<point x="272" y="304"/>
			<point x="320" y="260"/>
			<point x="354" y="260" type="qcurve"/>
			<point x="388" y="260"/>
			<point x="436" y="304"/>
		</contour>
	</outline>
</glyph>
<glyph name="section" format="2">
  <advance width="515"/>
  <unicode hex="00A7"/>
  <outline>
    <contour>
      <point x="111" y="287" type="curve" smooth="yes"/>
      <point x="111" y="238"/>
      <point x="138" y="191"/>
      <point x="205" y="158" type="curve" smooth="yes"/>
      <point x="280" y="120" type="line" smooth="yes"/>
      <point x="303" y="109"/>
      <point x="316" y="88"/>
      <point x="316" y="67" type="curve" smooth="yes"/>
      <point x="316" y="36"/>
      <point x="286" y="6"/>
      <point x="210" y="6" type="curve" smooth="yes"/>
      <point x="169" y="6"/>
      <point x="128" y="17"/>
      <point x="87" y="40" type="curve"/>
      <point x="36" y="-66" type="line"/>
      <point x="79" y="-95"/>
      <point x="148" y="-110"/>
      <point x="212" y="-110" type="curve" smooth="yes"/>
      <point x="381" y="-110"/>
      <point x="457" y="-17"/>
      <point x="457" y="71" type="curve" smooth="yes"/>
      <point x="457" y="100"/>
      <point x="447" y="128"/>
      <point x="427" y="155" type="curve"/>
      <point x="440" y="163" type="line" smooth="yes"/>
      <point x="503" y="202"/>
      <point x="548" y="266"/>
      <point x="548" y="330" type="curve" smooth="yes"/>
      <point x="548" y="379"/>
      <point x="522" y="425"/>
      <point x="454" y="460" type="curve" smooth="yes"/>
      <point x="379" y="498" type="line" smooth="yes"/>
      <point x="352" y="511"/>
      <point x="343" y="525"/>
      <point x="343" y="540" type="curve" smooth="yes"/>
      <point x="343" y="571"/>
      <point x="379" y="593"/>
      <point x="434" y="593" type="curve" smooth="yes"/>
      <point x="469" y="593"/>
      <point x="508" y="584"/>
      <point x="549" y="563" type="curve"/>
      <point x="600" y="669" type="line"/>
      <point x="555" y="696"/>
      <point x="496" y="709"/>
      <point x="436" y="709" type="curve" smooth="yes"/>
      <point x="281" y="709"/>
      <point x="202" y="626"/>
      <point x="202" y="543" type="curve" smooth="yes"/>
      <point x="202" y="512"/>
      <point x="211" y="485"/>
      <point x="230" y="462" type="curve"/>
      <point x="158" y="419"/>
      <point x="111" y="351"/>
    </contour>
    <contour>
      <point x="243" y="311" type="curve" smooth="yes"/>
      <point x="243" y="344"/>
      <point x="270" y="378"/>
      <point x="309" y="403" type="curve"/>
      <point x="344" y="387" type="line" smooth="yes"/>
      <point x="395" y="363"/>
      <point x="416" y="334"/>
      <point x="416" y="305" type="curve" smooth="yes"/>
      <point x="416" y="272"/>
      <point x="390" y="241"/>
      <point x="350" y="214" type="curve"/>
      <point x="307" y="235" type="line" smooth="yes"/>
      <point x="260" y="258"/>
      <point x="243" y="284"/>
    </contour>
  </outline>
</glyph>
<glyph name="dieresis" format="2">
	<unicode hex="00A8"/>
	<advance width="536"/>
	<outline>
		<contour>
			<point x="298" y="602" type="qcurve"/>
			<point x="269" y="602"/>
			<point x="231" y="638"/>
			<point x="231" y="668" type="qcurve"/>
			<point x="231" y="687"/>
			<point x="245" y="719"/>
			<point x="268" y="741"/>
			<point x="297" y="754"/>
			<point x="312" y="754" type="qcurve"/>
			<point x="340" y="754"/>
			<point x="380" y="717"/>
			<point x="380" y="686" type="qcurve"/>
			<point x="380" y="668"/>
			<point x="365" y="637"/>
			<point x="341" y="614"/>
			<point x="312" y="602"/>
		</contour>
		<contour>
			<point x="520" y="602" type="qcurve"/>
			<point x="491" y="602"/>
			<point x="453" y="638"/>
			<point x="453" y="668" type="qcurve"/>
			<point x="453" y="687"/>
			<point x="467" y="719"/>
			<point x="490" y="741"/>
			<point x="519" y="754"/>
			<point x="534" y="754" type="qcurve"/>
			<point x="562" y="754"/>
			<point x="602" y="717"/>
			<point x="602" y="686" type="qcurve"/>
			<point x="602" y="668"/>
			<point x="587" y="637"/>
			<point x="563" y="614"/>
			<point x="534" y="602"/>
		</contour>
	</outline>
</glyph>
<glyph name="copyright" format="2">
	<advance width="796"/>
	<unicode hex="00A9"/>
	<outline>
		<contour>
			<point x="468" y="-15" type="curve" smooth="yes"/>
			<point x="652" y="-15"/>
			<point x="816" y="119"/>
			<point x="816" y="347" type="curve" smooth="yes"/>
			<point x="816" y="575"/>
			<point x="652" y="709"/>
			<point x="468" y="709" type="curve" smooth="yes"/>
			<point x="284" y="709"/>
			<point x="120" y="575"/>
			<point x="120" y="347" type="curve" smooth="yes"/>
			<point x="120" y="119"/>
			<point x="284" y="-15"/>
		</contour>
		<contour>
			<point x="484" y="160" type="curve" smooth="yes"/>
			<point x="544" y="160"/>
			<point x="587" y="182"/>
			<point x="604" y="191" type="curve"/>
			<point x="576" y="282" type="line"/>
			<point x="555" y="274"/>
			<point x="530" y="262"/>
			<point x="490" y="262" type="curve" smooth="yes"/>
			<point x="430" y="262"/>
			<point x="417" y="307"/>
			<point x="417" y="354" type="curve" smooth="yes"/>
			<point x="417" y="407"/>
			<point x="446" y="436"/>
			<point x="490" y="436" type="curve" smooth="yes"/>
			<point x="527" y="436"/>
			<point x="548" y="428"/>
			<point x="567" y="417" type="curve"/>
			<point x="599" y="505" type="line"/>
			<point x="584" y="513"/>
			<point x="545" y="537"/>
			<point x="481" y="537" type="curve" smooth="yes"/>
			<point x="373" y="537"/>
			<point x="301" y="469"/>
			<point x="301" y="349" type="curve" smooth="yes"/>
			<point x="301" y="228"/>
			<point x="365" y="160"/>
		</contour>
		<contour>
			<point x="468" y="81" type="curve" smooth="yes"/>
			<point x="323" y="81"/>
			<point x="222" y="187"/>
			<point x="222" y="347" type="curve" smooth="yes"/>
			<point x="222" y="507"/>
			<point x="323" y="613"/>
			<point x="468" y="613" type="curve" smooth="yes"/>
			<point x="613" y="613"/>
			<point x="714" y="507"/>
			<point x="714" y="347" type="curve" smooth="yes"/>
			<point x="714" y="187"/>
			<point x="613" y="81"/>
		</contour>
	</outline>
</glyph>
<glyph name="ordfeminine" format="2">
  <advance width="472"/>
  <unicode hex="00AA"/>
  <outline>
    <contour>
      <point x="292" y="305" type="curve" smooth="yes"/>
      <point x="327" y="305"/>
      <point x="362" y="317"/>
      <point x="397" y="340" type="curve"/>
      <point x="401" y="330"/>
      <point x="406" y="319"/>
      <point x="410" y="309" type="curve"/>
      <point x="504" y="322" type="line"/>
      <point x="475" y="398"/>
      <point x="485" y="459"/>
      <point x="498" y="504" type="curve"/>
      <point x="542" y="690" type="line"/>
      <point x="495" y="703"/>
      <point x="453" y="708"/>
      <point x="414" y="708" type="curve" smooth="yes"/>
      <point x="234" y="708"/>
      <point x="150" y="579"/>
      <point x="150" y="467" type="curve" smooth="yes"/>
      <point x="150" y="381"/>
      <point x="199" y="305"/>
    </contour>
    <contour>
      <point x="319" y="405" type="curve" smooth="yes"/>
      <point x="276" y="405"/>
      <point x="256" y="438"/>
      <point x="256" y="478" type="curve" smooth="yes"/>
      <point x="256" y="558"/>
      <point x="317" y="609"/>
      <point x="389" y="609" type="curve" smooth="yes"/>
      <point x="397" y="609"/>
      <point x="406" y="608"/>
      <point x="415" y="607" type="curve"/>
      <point x="388" y="503" type="line"/>
      <point x="383" y="483"/>
      <point x="375" y="450"/>
      <point x="379" y="427" type="curve"/>
      <point x="358" y="411"/>
      <point x="338" y="405"/>
    </contour>
  </outline>
</glyph>
<glyph name="logicalnot" format="2">
	<advance width="568"/>
	<unicode hex="00AC"/>
	<outline>
		<contour>
			<point x="378" y="51" type="line"/>
			<point x="514" y="51" type="line"/>
			<point x="601" y="410" type="line"/>
			<point x="131" y="410" type="line"/>
			<point x="101" y="285" type="line"/>
			<point x="435" y="285" type="line"/>
		</contour>
	</outline>
</glyph>
<glyph name="registered" format="2">
	<unicode hex="00AE"/>
	<advance width="796"/>
	<outline>
		<contour>
			<point x="816" y="347" type="qcurve"/>
			<point x="816" y="261"/>
			<point x="759" y="127"/>
			<point x="663" y="34"/>
			<point x="537" y="-15"/>
			<point x="468" y="-15" type="qcurve"/>
			<point x="399" y="-15"/>
			<point x="273" y="34"/>
			<point x="177" y="127"/>
			<point x="120" y="261"/>
			<point x="120" y="347" type="qcurve"/>
			<point x="120" y="432"/>
			<point x="177" y="567"/>
			<point x="273" y="660"/>
			<point x="399" y="709"/>
			<point x="468" y="709" type="qcurve"/>
			<point x="537" y="709"/>
			<point x="663" y="660"/>
			<point x="759" y="567"/>
			<point x="816" y="432"/>
		</contour>
		<contour>
			<point x="714" y="347" type="qcurve"/>
			<point x="714" y="407"/>
			<point x="678" y="505"/>
			<point x="613" y="575"/>
			<point x="522" y="613"/>
			<point x="468" y="613" type="qcurve"/>
			<point x="414" y="613"/>
			<point x="323" y="575"/>
			<point x="258" y="505"/>
			<point x="222" y="407"/>
			<point x="222" y="347" type="qcurve"/>
			<point x="222" y="287"/>
			<point x="258" y="189"/>
			<point x="323" y="119"/>
			<point x="414" y="81"/>
			<point x="468" y="81" type="qcurve"/>
			<point x="522" y="81"/>
			<point x="613" y="119"/>
			<point x="678" y="189"/>
			<point x="714" y="287"/>
		</contour>
		<contour>
			<point x="529" y="177" type="line"/>
			<point x="512" y="215"/>
			<point x="488" y="272"/>
			<point x="473" y="295" type="qcurve"/>
			<point x="433" y="295" type="line"/>
			<point x="433" y="177" type="line"/>
			<point x="336" y="177" type="line"/>
			<point x="336" y="519" type="line"/>
			<point x="370" y="527"/>
			<point x="429" y="534"/>
			<point x="451" y="534" type="qcurve"/>
			<point x="612" y="534"/>
			<point x="612" y="413" type="qcurve"/>
			<point x="612" y="351"/>
			<point x="558" y="322" type="qcurve"/>
			<point x="569" y="305"/>
			<point x="586" y="274"/>
			<point x="603" y="241"/>
			<point x="620" y="202"/>
			<point x="631" y="177" type="qcurve"/>
		</contour>
		<contour>
			<point x="433" y="373" type="line"/>
			<point x="451" y="373" type="line"/>
			<point x="483" y="373"/>
			<point x="515" y="390"/>
			<point x="515" y="414" type="qcurve"/>
			<point x="515" y="434"/>
			<point x="487" y="450"/>
			<point x="460" y="450" type="qcurve"/>
			<point x="453" y="450"/>
			<point x="438" y="449"/>
			<point x="433" y="448" type="qcurve"/>
		</contour>
	</outline>
</glyph>
<glyph name="degree" format="2">
  <advance width="382"/>
  <unicode hex="00B0"/>
  <outline>
    <contour>
      <point x="321" y="781" type="curve" smooth="yes"/>
      <point x="235" y="781"/>
      <point x="160" y="722"/>
      <point x="160" y="626" type="curve" smooth="yes"/>
      <point x="160" y="530"/>
      <point x="235" y="471"/>
      <point x="321" y="471" type="curve" smooth="yes"/>
      <point x="407" y="471"/>
      <point x="482" y="530"/>
      <point x="482" y="626" type="curve" smooth="yes"/>
      <point x="482" y="722"/>
      <point x="407" y="781"/>
    </contour>
    <contour>
      <point x="321" y="569" type="curve" smooth="yes"/>
      <point x="293" y="569"/>
      <point x="266" y="591"/>
      <point x="266" y="626" type="curve" smooth="yes"/>
      <point x="266" y="661"/>
      <point x="293" y="683"/>
      <point x="321" y="683" type="curve" smooth="yes"/>
      <point x="349" y="683"/>
      <point x="376" y="661"/>
      <point x="376" y="626" type="curve" smooth="yes"/>
      <point x="376" y="591"/>
      <point x="349" y="569"/>
    </contour>
  </outline>
</glyph>
<glyph name="twosuperior" format="2">
	<unicode hex="00B2"/>
	<advance width="363"/>
	<outline>
		<contour>
			<point x="411" y="393" type="line"/>
			<point x="391" y="302" type="line"/>
			<point x="104" y="302" type="line"/>
			<point x="104" y="333"/>
			<point x="116" y="386"/>
			<point x="146" y="434"/>
			<point x="199" y="479"/>
			<point x="241" y="502" type="qcurve"/>
			<point x="270" y="518"/>
			<point x="304" y="541"/>
			<point x="322" y="560"/>
			<point x="327" y="577"/>
			<point x="327" y="587" type="qcurve"/>
			<point x="327" y="600"/>
			<point x="307" y="616"/>
			<point x="290" y="616" type="qcurve"/>
			<point x="271" y="616"/>
			<point x="220" y="594"/>
			<point x="188" y="568" type="qcurve"/>
			<point x="151" y="647" type="line"/>
			<point x="219" y="709"/>
			<point x="310" y="709" type="qcurve"/>
			<point x="335" y="709"/>
			<point x="380" y="697"/>
			<point x="414" y="672"/>
			<point x="434" y="632"/>
			<point x="434" y="605" type="qcurve"/>
			<point x="434" y="559"/>
			<point x="386" y="490"/>
			<point x="332" y="456" type="qcurve"/>
			<point x="318" y="447"/>
			<point x="290" y="430"/>
			<point x="265" y="413"/>
			<point x="247" y="399"/>
			<point x="244" y="393" type="qcurve"/>
		</contour>
	</outline>
</glyph>
<glyph name="mu" format="2">
	<advance width="632"/>
	<unicode hex="00B5"/>
	<outline>
		<contour>
			<point x="35" y="-166" type="line"/>
			<point x="183" y="-166" type="line"/>
			<point x="202" y="-89" type="line" smooth="yes"/>
			<point x="214" y="-40"/>
			<point x="217" y="-16"/>
			<point x="217" y="15" type="curve"/>
			<point x="241" y="-4"/>
			<point x="270" y="-12"/>
			<point x="299" y="-12" type="curve" smooth="yes"/>
			<point x="346" y="-12"/>
			<point x="396" y="8"/>
			<point x="440" y="40" type="curve"/>
			<point x="459" y="12"/>
			<point x="497" y="-10"/>
			<point x="581" y="-11" type="curve"/>
			<point x="630" y="113" type="line"/>
			<point x="551" y="118"/>
			<point x="564" y="162"/>
			<point x="581" y="227" type="curve" smooth="yes"/>
			<point x="652" y="526" type="line"/>
			<point x="503" y="526" type="line"/>
			<point x="438" y="253" type="line" smooth="yes"/>
			<point x="431" y="224"/>
			<point x="425" y="184"/>
			<point x="422" y="151" type="curve"/>
			<point x="383" y="116"/>
			<point x="355" y="112"/>
			<point x="338" y="112" type="curve" smooth="yes"/>
			<point x="254" y="112"/>
			<point x="265" y="168"/>
			<point x="282" y="244" type="curve" smooth="yes"/>
			<point x="349" y="526" type="line"/>
			<point x="200" y="526" type="line"/>
		</contour>
	</outline>
</glyph>
<glyph name="paragraph" format="2">
  <advance width="710"/>
  <unicode hex="00B6"/>
  <outline>
    <contour>
      <point x="202" y="-185" type="line"/>
      <point x="344" y="-185" type="line"/>
      <point x="529" y="586" type="line"/>
      <point x="558" y="586"/>
      <point x="586" y="585"/>
      <point x="605" y="582" type="curve"/>
      <point x="421" y="-185" type="line"/>
      <point x="563" y="-185" type="line"/>
      <point x="771" y="683" type="line"/>
      <point x="700" y="695"/>
      <point x="636" y="700"/>
      <point x="575" y="700" type="curve" smooth="yes"/>
      <point x="320" y="700"/>
      <point x="155" y="609"/>
      <point x="155" y="437" type="curve" smooth="yes"/>
      <point x="155" y="334"/>
      <point x="213" y="273"/>
      <point x="309" y="258" type="curve"/>
    </contour>
  </outline>
</glyph>
<glyph name="cedilla" format="2">
	<unicode hex="00B8"/>
	<advance width="326"/>
	<outline>
		<contour>
			<point x="194" y="-44" type="qcurve"/>
			<point x="216" y="-55"/>
			<point x="238" y="-91"/>
			<point x="238" y="-111" type="qcurve"/>
			<point x="238" y="-140"/>
			<point x="215" y="-182"/>
			<point x="176" y="-209"/>
			<point x="126" y="-221"/>
			<point x="100" y="-221" type="qcurve"/>
			<point x="73" y="-221"/>
			<point x="20" y="-209"/>
			<point x="-1" y="-198" type="qcurve"/>
			<point x="35" y="-116" type="line"/>
			<point x="48" y="-122"/>
			<point x="81" y="-130"/>
			<point x="96" y="-130" type="qcurve"/>
			<point x="136" y="-130"/>
			<point x="136" y="-106" type="qcurve"/>
			<point x="136" y="-95"/>
			<point x="122" y="-81"/>
			<point x="106" y="-74" type="qcurve"/>
			<point x="86" y="-65" type="line"/>
			<point x="92" y="-55"/>
			<point x="110" y="-30"/>
			<point x="127" y="-5"/>
			<point x="142" y="15"/>
			<point x="145" y="20" type="qcurve"/>
			<point x="239" y="20" type="line"/>
			<point x="235" y="15"/>
			<point x="223" y="-2"/>
			<point x="210" y="-20"/>
			<point x="198" y="-38"/>
		</contour>
	</outline>
</glyph>
<glyph name="onesuperior" format="2">
	<advance width="363"/>
	<unicode hex="00B9"/>
	<outline>
		<contour>
			<point x="204" y="302" type="line"/>
			<point x="318" y="302" type="line"/>
			<point x="413" y="701" type="line"/>
			<point x="326" y="701" type="line"/>
			<point x="279" y="670"/>
			<point x="219" y="641"/>
			<point x="156" y="618" type="curve"/>
			<point x="167" y="531" type="line"/>
			<point x="210" y="546"/>
			<point x="239" y="557"/>
			<point x="268" y="572" type="curve"/>
		</contour>
	</outline>
</glyph>
<glyph name="ordmasculine" format="2">
  <advance width="439"/>
  <unicode hex="00BA"/>
  <outline>
    <contour>
      <point x="244" y="456" type="curve" smooth="yes"/>
      <point x="244" y="548"/>
      <point x="298" y="619"/>
      <point x="357" y="619" type="curve" smooth="yes"/>
      <point x="386" y="619"/>
      <point x="415" y="608"/>
      <point x="415" y="559" type="curve" smooth="yes"/>
      <point x="415" y="467"/>
      <point x="361" y="396"/>
      <point x="302" y="396" type="curve" smooth="yes"/>
      <point x="273" y="396"/>
      <point x="244" y="406"/>
    </contour>
    <contour>
      <point x="140" y="448" type="curve" smooth="yes"/>
      <point x="140" y="361"/>
      <point x="187" y="306"/>
      <point x="291" y="306" type="curve" smooth="yes"/>
      <point x="441" y="306"/>
      <point x="519" y="434"/>
      <point x="519" y="567" type="curve" smooth="yes"/>
      <point x="519" y="654"/>
      <point x="472" y="709"/>
      <point x="368" y="709" type="curve" smooth="yes"/>
      <point x="218" y="709"/>
      <point x="140" y="581"/>
    </contour>
  </outline>
</glyph>
<glyph name="Aring" format="2">
	<unicode hex="00C5"/>
	<advance width="714"/>
	<outline>
		<contour>
			<point x="532" y="0" type="line"/>
			<point x="530" y="39"/>
			<point x="525" y="114"/>
			<point x="522" y="151" type="qcurve"/>
			<point x="262" y="151" type="line"/>
			<point x="242" y="114"/>
			<point x="198" y="39"/>
			<point x="178" y="0" type="qcurve"/>
			<point x="15" y="0" type="line"/>
			<point x="79" y="110"/>
			<point x="191" y="298"/>
			<point x="294" y="465"/>
			<point x="393" y="614"/>
			<point x="444" y="685" type="qcurve"/>
			<point x="430" y="700"/>
			<point x="413" y="741"/>
			<point x="413" y="767" type="qcurve"/>
			<point x="413" y="795"/>
			<point x="432" y="838"/>
			<point x="465" y="867"/>
			<point x="507" y="882"/>
			<point x="530" y="882" type="qcurve"/>
			<point x="554" y="882"/>
			<point x="597" y="867"/>
			<point x="630" y="838"/>
			<point x="649" y="795"/>
			<point x="649" y="767" type="qcurve"/>
			<point x="649" y="732"/>
			<point x="618" y="682"/>
			<point x="594" y="668" type="qcurve"/>
			<point x="609" y="596"/>
			<point x="637" y="427"/>
			<point x="661" y="251"/>
			<point x="681" y="77"/>
			<point x="689" y="0" type="qcurve"/>
		</contour>
		<contour>
			<point x="486" y="541" type="qcurve"/>
			<point x="444" y="474"/>
			<point x="363" y="342"/>
			<point x="325" y="273" type="qcurve"/>
			<point x="512" y="273" type="line"/>
			<point x="507" y="334"/>
			<point x="496" y="472"/>
		</contour>
		<contour>
			<point x="576" y="767" type="qcurve"/>
			<point x="576" y="790"/>
			<point x="548" y="814"/>
			<point x="530" y="814" type="qcurve"/>
			<point x="513" y="814"/>
			<point x="485" y="790"/>
			<point x="485" y="767" type="qcurve"/>
			<point x="485" y="744"/>
			<point x="513" y="720"/>
			<point x="530" y="720" type="qcurve"/>
			<point x="548" y="720"/>
			<point x="576" y="744"/>
		</contour>
	</outline>
</glyph>
<glyph name="Ccedilla" format="2">
  <advance width="638"/>
  <unicode hex="00C7"/>
  <outline>
    <contour>
      <point x="597" y="157" type="line"/>
      <point x="550" y="136"/>
      <point x="497" y="121"/>
      <point x="433" y="121" type="curve" smooth="yes"/>
      <point x="337" y="121"/>
      <point x="284" y="173"/>
      <point x="284" y="289" type="curve" smooth="yes"/>
      <point x="284" y="444"/>
      <point x="379" y="576"/>
      <point x="531" y="576" type="curve" smooth="yes"/>
      <point x="582" y="576"/>
      <point x="621" y="567"/>
      <point x="677" y="538" type="curve"/>
      <point x="733" y="659" type="line"/>
      <point x="666" y="696"/>
      <point x="605" y="709"/>
      <point x="541" y="709" type="curve" smooth="yes"/>
      <point x="273" y="709"/>
      <point x="123" y="488"/>
      <point x="123" y="280" type="curve" smooth="yes"/>
      <point x="123" y="131"/>
      <point x="198" y="27"/>
      <point x="318" y="-4" type="curve"/>
      <point x="277" y="-65" type="line"/>
      <point x="297" y="-74" type="line" smooth="yes"/>
      <point x="318" y="-83"/>
      <point x="327" y="-91"/>
      <point x="327" y="-106" type="curve" smooth="yes"/>
      <point x="327" y="-122"/>
      <point x="314" y="-130"/>
      <point x="287" y="-130" type="curve" smooth="yes"/>
      <point x="267" y="-130"/>
      <point x="243" y="-124"/>
      <point x="226" y="-116" type="curve"/>
      <point x="190" y="-198" type="line"/>
      <point x="218" y="-213"/>
      <point x="255" y="-221"/>
      <point x="291" y="-221" type="curve" smooth="yes"/>
      <point x="361" y="-221"/>
      <point x="429" y="-189"/>
      <point x="429" y="-111" type="curve" smooth="yes"/>
      <point x="429" y="-84"/>
      <point x="414" y="-59"/>
      <point x="385" y="-44" type="curve"/>
      <point x="390" y="-36"/>
      <point x="397" y="-25"/>
      <point x="405" y="-14" type="curve"/>
      <point x="500" y="-13"/>
      <point x="559" y="3"/>
      <point x="614" y="30" type="curve"/>
    </contour>
  </outline>
</glyph>
<glyph name="Eth" format="2">
  <advance width="718"/>
  <unicode hex="00D0"/>
  <outline>
    <contour>
      <point x="278" y="-9" type="curve" smooth="yes"/>
      <point x="573" y="-9"/>
      <point x="754" y="155"/>
      <point x="754" y="423" type="curve" smooth="yes"/>
      <point x="754" y="588"/>
      <point x="638" y="701"/>
      <point x="440" y="701" type="curve" smooth="yes"/>
      <point x="384" y="701"/>
      <point x="312" y="696"/>
      <point x="236" y="681" type="curve"/>
      <point x="172" y="417" type="line"/>
      <point x="91" y="417" type="line"/>
      <point x="65" y="302" type="line"/>
      <point x="145" y="302" type="line"/>
      <point x="75" y="12" type="line"/>
      <point x="143" y="-3"/>
      <point x="222" y="-9"/>
    </contour>
    <contour>
      <point x="311" y="123" type="curve" smooth="yes"/>
      <point x="284" y="123"/>
      <point x="272" y="124"/>
      <point x="257" y="125" type="curve"/>
      <point x="299" y="302" type="line"/>
      <point x="427" y="302" type="line"/>
      <point x="454" y="417" type="line"/>
      <point x="327" y="417" type="line"/>
      <point x="363" y="567" type="line"/>
      <point x="384" y="569"/>
      <point x="404" y="570"/>
      <point x="424" y="570" type="curve" smooth="yes"/>
      <point x="548" y="570"/>
      <point x="594" y="508"/>
      <point x="594" y="415" type="curve" smooth="yes"/>
      <point x="594" y="233"/>
      <point x="484" y="123"/>
    </contour>
  </outline>
</glyph>
<glyph name="Thorn" format="2">
	<unicode hex="00DE"/>
	<advance width="643"/>
	<outline>
		<contour>
			<point x="453" y="596" type="qcurve"/>
			<point x="516" y="596"/>
			<point x="606" y="564"/>
			<point x="665" y="510"/>
			<point x="693" y="440"/>
			<point x="693" y="402" type="qcurve"/>
			<point x="693" y="356"/>
			<point x="654" y="259"/>
			<point x="567" y="179"/>
			<point x="428" y="128"/>
			<point x="329" y="128" type="qcurve"/>
			<point x="260" y="128" type="line"/>
			<point x="229" y="0" type="line"/>
			<point x="74" y="0" type="line"/>
			<point x="240" y="693" type="line"/>
			<point x="396" y="693" type="line"/>
			<point x="372" y="593" type="line"/>
			<point x="379" y="594"/>
			<point x="402" y="595"/>
			<point x="426" y="596"/>
			<point x="447" y="596"/>
		</contour>
		<contour>
			<point x="403" y="464" type="qcurve"/>
			<point x="386" y="464"/>
			<point x="352" y="462"/>
			<point x="340" y="461" type="qcurve"/>
			<point x="292" y="261" type="line"/>
			<point x="341" y="261" type="line"/>
			<point x="383" y="261"/>
			<point x="453" y="274"/>
			<point x="504" y="304"/>
			<point x="532" y="354"/>
			<point x="532" y="392" type="qcurve"/>
			<point x="532" y="433"/>
			<point x="462" y="464"/>
		</contour>
	</outline>
</glyph>
<glyph name="germandbls" format="2">
	<advance width="637"/>
	<unicode hex="00DF"/>
	<outline>
		<contour>
			<point x="93" y="-189" type="line"/>
			<point x="157" y="-141"/>
			<point x="210" y="-42"/>
			<point x="255" y="149" type="curve" smooth="yes"/>
			<point x="350" y="548" type="line"/>
			<point x="369" y="623"/>
			<point x="414" y="650"/>
			<point x="462" y="650" type="curve" smooth="yes"/>
			<point x="501" y="650"/>
			<point x="535" y="636"/>
			<point x="535" y="605" type="curve" smooth="yes"/>
			<point x="535" y="523"/>
			<point x="378" y="488"/>
			<point x="378" y="366" type="curve" smooth="yes"/>
			<point x="378" y="327"/>
			<point x="389" y="293"/>
			<point x="441" y="254" type="curve" smooth="yes"/>
			<point x="509" y="204"/>
			<point x="519" y="194"/>
			<point x="519" y="168" type="curve" smooth="yes"/>
			<point x="519" y="135"/>
			<point x="487" y="110"/>
			<point x="438" y="110" type="curve" smooth="yes"/>
			<point x="409" y="110"/>
			<point x="374" y="118"/>
			<point x="335" y="141" type="curve"/>
			<point x="282" y="24" type="line"/>
			<point x="326" y="0"/>
			<point x="379" y="-12"/>
			<point x="432" y="-12" type="curve" smooth="yes"/>
			<point x="552" y="-12"/>
			<point x="668" y="51"/>
			<point x="668" y="184" type="curve" smooth="yes"/>
			<point x="668" y="231"/>
			<point x="649" y="274"/>
			<point x="613" y="301" type="curve" smooth="yes"/>
			<point x="561" y="340"/>
			<point x="531" y="358"/>
			<point x="531" y="386" type="curve" smooth="yes"/>
			<point x="531" y="467"/>
			<point x="677" y="488"/>
			<point x="677" y="628" type="curve" smooth="yes"/>
			<point x="677" y="719"/>
			<point x="579" y="776"/>
			<point x="471" y="776" type="curve" smooth="yes"/>
			<point x="356" y="776"/>
			<point x="244" y="720"/>
			<point x="209" y="568" type="curve"/>
			<point x="102" y="118" type="line"/>
			<point x="81" y="24"/>
			<point x="34" y="-106"/>
			<point x="-36" y="-170" type="curve"/>
		</contour>
	</outline>
</glyph>
<glyph name="ae" format="2">
  <advance width="837"/>
  <unicode hex="00E6"/>
  <outline>
    <contour>
      <point x="187" y="394" type="line"/>
      <point x="226" y="409"/>
      <point x="271" y="416"/>
      <point x="314" y="416" type="curve" smooth="yes"/>
      <point x="381" y="416"/>
      <point x="410" y="394"/>
      <point x="419" y="339" type="curve"/>
      <point x="228" y="339"/>
      <point x="90" y="283"/>
      <point x="90" y="134" type="curve" smooth="yes"/>
      <point x="90" y="30"/>
      <point x="168" y="-14"/>
      <point x="255" y="-14" type="curve" smooth="yes"/>
      <point x="327" y="-14"/>
      <point x="409" y="17"/>
      <point x="455" y="71" type="curve"/>
      <point x="498" y="7"/>
      <point x="565" y="-14"/>
      <point x="638" y="-14" type="curve" smooth="yes"/>
      <point x="694" y="-14"/>
      <point x="750" y="-2"/>
      <point x="801" y="15" type="curve"/>
      <point x="790" y="132" type="line"/>
      <point x="751" y="117"/>
      <point x="706" y="110"/>
      <point x="663" y="110" type="curve" smooth="yes"/>
      <point x="596" y="110"/>
      <point x="567" y="132"/>
      <point x="558" y="187" type="curve"/>
      <point x="749" y="187"/>
      <point x="887" y="243"/>
      <point x="887" y="392" type="curve" smooth="yes"/>
      <point x="887" y="492"/>
      <point x="810" y="540"/>
      <point x="722" y="540" type="curve" smooth="yes"/>
      <point x="653" y="540"/>
      <point x="573" y="510"/>
      <point x="522" y="453" type="curve"/>
      <point x="482" y="518"/>
      <point x="412" y="540"/>
      <point x="337" y="540" type="curve" smooth="yes"/>
      <point x="281" y="540"/>
      <point x="223" y="527"/>
      <point x="176" y="511" type="curve"/>
    </contour>
    <contour>
      <point x="279" y="104" type="curve" smooth="yes"/>
      <point x="244" y="104"/>
      <point x="225" y="121"/>
      <point x="225" y="152" type="curve" smooth="yes"/>
      <point x="225" y="188"/>
      <point x="250" y="232"/>
      <point x="415" y="237" type="curve"/>
      <point x="399" y="157"/>
      <point x="347" y="104"/>
    </contour>
    <contour>
      <point x="698" y="422" type="curve" smooth="yes"/>
      <point x="733" y="422"/>
      <point x="752" y="405"/>
      <point x="752" y="374" type="curve" smooth="yes"/>
      <point x="752" y="338"/>
      <point x="727" y="294"/>
      <point x="562" y="289" type="curve"/>
      <point x="578" y="369"/>
      <point x="630" y="422"/>
    </contour>
  </outline>
</glyph>
<glyph name="eth" format="2">
	<advance width="606"/>
	<unicode hex="00F0"/>
	<outline>
		<contour>
			<point x="305" y="-14" type="curve" smooth="yes"/>
			<point x="524" y="-14"/>
			<point x="630" y="170"/>
			<point x="630" y="397" type="curve" smooth="yes"/>
			<point x="630" y="476"/>
			<point x="618" y="548"/>
			<point x="587" y="612" type="curve"/>
			<point x="696" y="647" type="line"/>
			<point x="686" y="732" type="line"/>
			<point x="543" y="685" type="line"/>
			<point x="516" y="720"/>
			<point x="484" y="750"/>
			<point x="445" y="776" type="curve"/>
			<point x="346" y="709" type="line"/>
			<point x="376" y="688"/>
			<point x="400" y="666"/>
			<point x="418" y="645" type="curve"/>
			<point x="334" y="618" type="line"/>
			<point x="345" y="535" type="line"/>
			<point x="463" y="573" type="line"/>
			<point x="478" y="540"/>
			<point x="484" y="505"/>
			<point x="488" y="465" type="curve"/>
			<point x="456" y="480"/>
			<point x="417" y="489"/>
			<point x="374" y="489" type="curve" smooth="yes"/>
			<point x="247" y="489"/>
			<point x="100" y="416"/>
			<point x="100" y="201" type="curve" smooth="yes"/>
			<point x="100" y="83"/>
			<point x="174" y="-14"/>
		</contour>
		<contour>
			<point x="323" y="115" type="curve" smooth="yes"/>
			<point x="272" y="115"/>
			<point x="250" y="155"/>
			<point x="250" y="203" type="curve" smooth="yes"/>
			<point x="250" y="296"/>
			<point x="293" y="371"/>
			<point x="378" y="371" type="curve" smooth="yes"/>
			<point x="406" y="371"/>
			<point x="438" y="363"/>
			<point x="474" y="346" type="curve"/>
			<point x="466" y="236"/>
			<point x="419" y="115"/>
		</contour>
	</outline>
</glyph>
<glyph name="thorn" format="2">
  <advance width="578"/>
  <unicode hex="00FE"/>
  <outline>
    <contour>
      <point x="405" y="776" type="line"/>
      <point x="250" y="752" type="line"/>
      <point x="26" y="-185" type="line"/>
      <point x="174" y="-185" type="line"/>
      <point x="217" y="-4" type="line"/>
      <point x="241" y="-8"/>
      <point x="264" y="-10"/>
      <point x="286" y="-10" type="curve" smooth="yes"/>
      <point x="475" y="-10"/>
      <point x="608" y="126"/>
      <point x="608" y="321" type="curve" smooth="yes"/>
      <point x="608" y="441"/>
      <point x="543" y="538"/>
      <point x="394" y="538" type="curve" smooth="yes"/>
      <point x="378" y="538"/>
      <point x="362" y="537"/>
      <point x="347" y="536" type="curve"/>
    </contour>
    <contour>
      <point x="375" y="413" type="curve" smooth="yes"/>
      <point x="438" y="413"/>
      <point x="460" y="367"/>
      <point x="460" y="310" type="curve" smooth="yes"/>
      <point x="460" y="193"/>
      <point x="396" y="112"/>
      <point x="287" y="112" type="curve" smooth="yes"/>
      <point x="274" y="112"/>
      <point x="261" y="112"/>
      <point x="246" y="115" type="curve"/>
      <point x="316" y="407" type="line"/>
      <point x="335" y="411"/>
      <point x="354" y="413"/>
    </contour>
  </outline>
</glyph>
<glyph name="dcroat" format="2">
	<unicode hex="0111"/>
	<advance width="590"/>
	<outline>
		<contour>
			<point x="287" y="-14" type="qcurve"/>
			<point x="237" y="-14"/>
			<point x="166" y="20"/>
			<point x="121" y="79"/>
			<point x="100" y="158"/>
			<point x="100" y="203" type="qcurve"/>
			<point x="100" y="271"/>
			<point x="149" y="392"/>
			<point x="235" y="482"/>
			<point x="353" y="534"/>
			<point x="423" y="534" type="qcurve"/>
			<point x="441" y="534"/>
			<point x="472" y="530"/>
			<point x="488" y="526" type="qcurve"/>
			<point x="504" y="596" type="line"/>
			<point x="373" y="596" type="line"/>
			<point x="395" y="689" type="line"/>
			<point x="527" y="689" type="line"/>
			<point x="542" y="752" type="line"/>
			<point x="697" y="776" type="line"/>
			<point x="676" y="689" type="line"/>
			<point x="749" y="689" type="line"/>
			<point x="727" y="596" type="line"/>
			<point x="653" y="596" type="line"/>
			<point x="565" y="227" type="line"/>
			<point x="551" y="170"/>
			<point x="563" y="55"/>
			<point x="580" y="10" type="qcurve"/>
			<point x="447" y="-9" type="line"/>
			<point x="441" y="3"/>
			<point x="431" y="25"/>
			<point x="426" y="39" type="qcurve"/>
			<point x="398" y="16"/>
			<point x="329" y="-14"/>
		</contour>
		<contour>
			<point x="459" y="407" type="line"/>
			<point x="453" y="408"/>
			<point x="444" y="410"/>
			<point x="435" y="411"/>
			<point x="421" y="411"/>
			<point x="410" y="411" type="qcurve"/>
			<point x="375" y="411"/>
			<point x="315" y="378"/>
			<point x="272" y="322"/>
			<point x="248" y="251"/>
			<point x="248" y="214" type="qcurve"/>
			<point x="248" y="166"/>
			<point x="281" y="111"/>
			<point x="324" y="111" type="qcurve"/>
			<point x="347" y="111"/>
			<point x="385" y="129"/>
			<point x="406" y="150" type="qcurve"/>
			<point x="408" y="175"/>
			<point x="417" y="230"/>
			<point x="422" y="253" type="qcurve"/>
		</contour>
	</outline>
</glyph>
<glyph name="Eogonek" format="2">
	<unicode hex="0118"/>
	<advance width="594"/>
	<outline>
		<contour>
			<point x="75" y="0" type="line"/>
			<point x="241" y="693" type="line"/>
			<point x="694" y="693" type="line"/>
			<point x="662" y="565" type="line"/>
			<point x="365" y="565" type="line"/>
			<point x="333" y="425" type="line"/>
			<point x="595" y="425" type="line"/>
			<point x="564" y="299" type="line"/>
			<point x="302" y="299" type="line"/>
			<point x="262" y="129" type="line"/>
			<point x="582" y="129" type="line"/>
			<point x="550" y="0" type="line"/>
			<point x="546" y="-3" type="line"/>
			<point x="495" y="-38"/>
			<point x="455" y="-84"/>
			<point x="455" y="-97" type="qcurve"/>
			<point x="455" y="-113"/>
			<point x="480" y="-113" type="qcurve"/>
			<point x="494" y="-113"/>
			<point x="526" y="-104"/>
			<point x="533" y="-102" type="qcurve"/>
			<point x="523" y="-201" type="line"/>
			<point x="503" y="-210"/>
			<point x="454" y="-221"/>
			<point x="428" y="-221" type="qcurve"/>
			<point x="407" y="-221"/>
			<point x="367" y="-212"/>
			<point x="336" y="-192"/>
			<point x="318" y="-160"/>
			<point x="318" y="-136" type="qcurve"/>
			<point x="318" y="-106"/>
			<point x="360" y="-42"/>
			<point x="408" y="-13" type="qcurve"/>
			<point x="430" y="0" type="line"/>
		</contour>
	</outline>
</glyph>
<glyph name="eogonek" format="2">
	<unicode hex="0119"/>
	<advance width="530"/>
	<outline>
		<contour>
			<point x="100" y="206" type="qcurve"/>
			<point x="100" y="270"/>
			<point x="145" y="390"/>
			<point x="227" y="483"/>
			<point x="344" y="540"/>
			<point x="415" y="540" type="qcurve"/>
			<point x="450" y="540"/>
			<point x="510" y="520"/>
			<point x="555" y="482"/>
			<point x="580" y="427"/>
			<point x="580" y="392" type="qcurve"/>
			<point x="580" y="336"/>
			<point x="530" y="258"/>
			<point x="441" y="209"/>
			<point x="319" y="187"/>
			<point x="247" y="187" type="qcurve"/>
			<point x="254" y="145"/>
			<point x="301" y="110"/>
			<point x="352" y="110" type="qcurve"/>
			<point x="384" y="110"/>
			<point x="450" y="121"/>
			<point x="479" y="132" type="qcurve"/>
			<point x="490" y="15" type="line"/>
			<point x="464" y="-3" type="line"/>
			<point x="413" y="-38"/>
			<point x="373" y="-84"/>
			<point x="373" y="-97" type="qcurve"/>
			<point x="373" y="-113"/>
			<point x="398" y="-113" type="qcurve"/>
			<point x="412" y="-113"/>
			<point x="444" y="-104"/>
			<point x="451" y="-102" type="qcurve"/>
			<point x="441" y="-201" type="line"/>
			<point x="421" y="-210"/>
			<point x="372" y="-221"/>
			<point x="346" y="-221" type="qcurve"/>
			<point x="325" y="-221"/>
			<point x="285" y="-212"/>
			<point x="254" y="-192"/>
			<point x="236" y="-160"/>
			<point x="236" y="-136" type="qcurve"/>
			<point x="236" y="-106"/>
			<point x="276" y="-43"/>
			<point x="324" y="-14" type="qcurve"/>
			<point x="262" y="-14"/>
			<point x="177" y="21"/>
			<point x="124" y="81"/>
			<point x="100" y="161"/>
		</contour>
		<contour>
			<point x="391" y="422" type="qcurve"/>
			<point x="340" y="422"/>
			<point x="263" y="349"/>
			<point x="251" y="289" type="qcurve"/>
			<point x="313" y="291"/>
			<point x="389" y="308"/>
			<point x="431" y="332"/>
			<point x="445" y="360"/>
			<point x="445" y="374" type="qcurve"/>
			<point x="445" y="422"/>
		</contour>
	</outline>
</glyph>
<glyph name="iogonek" format="2">
	<unicode hex="012F"/>
	<advance width="283"/>
	<outline>
		<contour>
			<point x="218" y="0" type="line"/>
			<point x="204" y="-10"/>
			<point x="170" y="-35"/>
			<point x="142" y="-60"/>
			<point x="123" y="-85"/>
			<point x="123" y="-96" type="qcurve"/>
			<point x="123" y="-104"/>
			<point x="134" y="-113"/>
			<point x="148" y="-113" type="qcurve"/>
			<point x="157" y="-113"/>
			<point x="183" y="-110"/>
			<point x="201" y="-105" type="qcurve"/>
			<point x="189" y="-205" type="line"/>
			<point x="168" y="-213"/>
			<point x="109" y="-221"/>
			<point x="86" y="-221" type="qcurve"/>
			<point x="38" y="-221"/>
			<point x="-14" y="-178"/>
			<point x="-14" y="-144" type="qcurve"/>
			<point x="-14" y="-123"/>
			<point x="6" y="-83"/>
			<point x="37" y="-47"/>
			<point x="77" y="-14"/>
			<point x="98" y="0" type="qcurve"/>
			<point x="70" y="0" type="line"/>
			<point x="195" y="526" type="line"/>
			<point x="344" y="526" type="line"/>
		</contour>
		<contour>
			<point x="290" y="590" type="qcurve"/>
			<point x="259" y="590"/>
			<point x="209" y="627"/>
			<point x="209" y="665" type="qcurve"/>
			<point x="209" y="686"/>
			<point x="226" y="723"/>
			<point x="254" y="750"/>
			<point x="291" y="766"/>
			<point x="312" y="766" type="qcurve"/>
			<point x="343" y="766"/>
			<point x="393" y="729"/>
			<point x="393" y="691" type="qcurve"/>
			<point x="393" y="670"/>
			<point x="376" y="633"/>
			<point x="348" y="606"/>
			<point x="311" y="590"/>
		</contour>
	</outline>
</glyph>
<glyph name="kgreenlandic" format="2">
	<advance width="574"/>
	<unicode hex="0138"/>
	<outline>
		<contour>
			<point x="70" y="0" type="line"/>
			<point x="218" y="0" type="line"/>
			<point x="274" y="230" type="line"/>
			<point x="322" y="169"/>
			<point x="373" y="70"/>
			<point x="397" y="0" type="curve"/>
			<point x="563" y="0" type="line"/>
			<point x="534" y="90"/>
			<point x="472" y="209"/>
			<point x="416" y="278" type="curve"/>
			<point x="527" y="366"/>
			<point x="604" y="443"/>
			<point x="679" y="526" type="curve"/>
			<point x="499" y="526" type="line"/>
			<point x="451" y="478"/>
			<point x="371" y="400"/>
			<point x="299" y="336" type="curve"/>
			<point x="345" y="526" type="line"/>
			<point x="196" y="526" type="line"/>
		</contour>
	</outline>
</glyph>
<glyph name="Eng" format="2">
  <advance width="742"/>
  <unicode hex="014A"/>
  <outline>
    <contour>
      <point x="453" y="-187" type="curve" smooth="yes"/>
      <point x="569" y="-187"/>
      <point x="634" y="-110"/>
      <point x="665" y="17" type="curve" smooth="yes"/>
      <point x="827" y="693" type="line"/>
      <point x="672" y="693" type="line"/>
      <point x="573" y="276" type="line"/>
      <point x="517" y="408"/>
      <point x="435" y="568"/>
      <point x="360" y="693" type="curve"/>
      <point x="241" y="693" type="line"/>
      <point x="75" y="0" type="line"/>
      <point x="228" y="0" type="line"/>
      <point x="338" y="459" type="line"/>
      <point x="407" y="338"/>
      <point x="470" y="196"/>
      <point x="522" y="57" type="curve"/>
      <point x="505" y="-16"/>
      <point x="487" y="-61"/>
      <point x="439" y="-61" type="curve" smooth="yes"/>
      <point x="427" y="-61"/>
      <point x="413" y="-58"/>
      <point x="397" y="-52" type="curve"/>
      <point x="350" y="-170" type="line"/>
      <point x="389" y="-182"/>
      <point x="422" y="-187"/>
    </contour>
  </outline>
</glyph>
<glyph name="Scedilla" format="2">
	<advance width="559"/>
	<unicode hex="015E"/>
	<outline>
		<contour>
			<point x="177" y="-221" type="curve" smooth="yes"/>
			<point x="247" y="-221"/>
			<point x="315" y="-189"/>
			<point x="315" y="-111" type="curve" smooth="yes"/>
			<point x="315" y="-84"/>
			<point x="300" y="-59"/>
			<point x="271" y="-44" type="curve"/>
			<point x="278" y="-34"/>
			<point x="284" y="-23"/>
			<point x="291" y="-13" type="curve"/>
			<point x="448" y="-8"/>
			<point x="557" y="64"/>
			<point x="557" y="210" type="curve" smooth="yes"/>
			<point x="557" y="319"/>
			<point x="482" y="367"/>
			<point x="398" y="410" type="curve" smooth="yes"/>
			<point x="351" y="434"/>
			<point x="309" y="449"/>
			<point x="309" y="502" type="curve" smooth="yes"/>
			<point x="309" y="561"/>
			<point x="364" y="581"/>
			<point x="425" y="581" type="curve" smooth="yes"/>
			<point x="480" y="581"/>
			<point x="531" y="561"/>
			<point x="564" y="536" type="curve"/>
			<point x="629" y="651" type="line"/>
			<point x="589" y="678"/>
			<point x="513" y="709"/>
			<point x="427" y="709" type="curve" smooth="yes"/>
			<point x="241" y="709"/>
			<point x="149" y="616"/>
			<point x="149" y="493" type="curve" smooth="yes"/>
			<point x="149" y="398"/>
			<point x="205" y="348"/>
			<point x="278" y="305" type="curve"/>
			<point x="333" y="274"/>
			<point x="397" y="254"/>
			<point x="397" y="200" type="curve" smooth="yes"/>
			<point x="397" y="131"/>
			<point x="330" y="116"/>
			<point x="269" y="116" type="curve" smooth="yes"/>
			<point x="201" y="116"/>
			<point x="137" y="148"/>
			<point x="106" y="169" type="curve"/>
			<point x="40" y="50" type="line"/>
			<point x="67" y="31"/>
			<point x="124" y="3"/>
			<point x="201" y="-9" type="curve"/>
			<point x="188" y="-28"/>
			<point x="172" y="-50"/>
			<point x="163" y="-65" type="curve"/>
			<point x="204" y="-81"/>
			<point x="213" y="-91"/>
			<point x="213" y="-106" type="curve" smooth="yes"/>
			<point x="213" y="-122"/>
			<point x="200" y="-130"/>
			<point x="173" y="-130" type="curve" smooth="yes"/>
			<point x="153" y="-130"/>
			<point x="129" y="-124"/>
			<point x="112" y="-116" type="curve"/>
			<point x="76" y="-198" type="line"/>
			<point x="104" y="-213"/>
			<point x="141" y="-221"/>
		</contour>
	</outline>
</glyph>
<glyph name="scedilla" format="2">
  <advance width="483"/>
  <unicode hex="015F"/>
  <outline>
    <contour>
      <point x="184" y="-221" type="curve" smooth="yes"/>
      <point x="254" y="-221"/>
      <point x="322" y="-189"/>
      <point x="322" y="-111" type="curve" smooth="yes"/>
      <point x="322" y="-84"/>
      <point x="307" y="-59"/>
      <point x="278" y="-44" type="curve"/>
      <point x="283" y="-35"/>
      <point x="292" y="-22"/>
      <point x="301" y="-10" type="curve"/>
      <point x="426" y="9"/>
      <point x="480" y="83"/>
      <point x="480" y="158" type="curve" smooth="yes"/>
      <point x="480" y="242"/>
      <point x="447" y="272"/>
      <point x="344" y="322" type="curve"/>
      <point x="307" y="341"/>
      <point x="285" y="349"/>
      <point x="285" y="376" type="curve" smooth="yes"/>
      <point x="285" y="416"/>
      <point x="327" y="422"/>
      <point x="363" y="422" type="curve" smooth="yes"/>
      <point x="406" y="422"/>
      <point x="454" y="406"/>
      <point x="482" y="391" type="curve"/>
      <point x="533" y="502" type="line"/>
      <point x="498" y="521"/>
      <point x="440" y="540"/>
      <point x="369" y="540" type="curve" smooth="yes"/>
      <point x="218" y="540"/>
      <point x="136" y="473"/>
      <point x="136" y="365" type="curve" smooth="yes"/>
      <point x="136" y="283"/>
      <point x="190" y="247"/>
      <point x="257" y="218" type="curve" smooth="yes"/>
      <point x="315" y="192"/>
      <point x="330" y="181"/>
      <point x="330" y="152" type="curve" smooth="yes"/>
      <point x="330" y="129"/>
      <point x="309" y="106"/>
      <point x="241" y="106" type="curve" smooth="yes"/>
      <point x="173" y="106"/>
      <point x="124" y="133"/>
      <point x="101" y="146" type="curve"/>
      <point x="50" y="32" type="line"/>
      <point x="73" y="19"/>
      <point x="122" y="-5"/>
      <point x="205" y="-12" type="curve"/>
      <point x="193" y="-31"/>
      <point x="179" y="-50"/>
      <point x="170" y="-65" type="curve"/>
      <point x="211" y="-80"/>
      <point x="220" y="-91"/>
      <point x="220" y="-106" type="curve" smooth="yes"/>
      <point x="220" y="-122"/>
      <point x="207" y="-130"/>
      <point x="180" y="-130" type="curve" smooth="yes"/>
      <point x="160" y="-130"/>
      <point x="136" y="-124"/>
      <point x="119" y="-116" type="curve"/>
      <point x="83" y="-198" type="line"/>
      <point x="111" y="-213"/>
      <point x="148" y="-221"/>
    </contour>
  </outline>
</glyph>
<glyph name="uogonek" format="2">
  <advance width="581"/>
  <unicode hex="0173"/>
  <outline>
    <contour>
      <point x="428" y="-221" type="curve" smooth="yes"/>
      <point x="463" y="-221"/>
      <point x="496" y="-213"/>
      <point x="523" y="-201" type="curve"/>
      <point x="533" y="-102" type="line"/>
      <point x="524" y="-105"/>
      <point x="499" y="-113"/>
      <point x="480" y="-113" type="curve" smooth="yes"/>
      <point x="463" y="-113"/>
      <point x="455" y="-108"/>
      <point x="455" y="-97" type="curve" smooth="yes"/>
      <point x="455" y="-80"/>
      <point x="478" y="-45"/>
      <point x="565" y="10" type="curve"/>
      <point x="550" y="48"/>
      <point x="540" y="96"/>
      <point x="540" y="145" type="curve" smooth="yes"/>
      <point x="540" y="172"/>
      <point x="543" y="200"/>
      <point x="550" y="227" type="curve"/>
      <point x="621" y="526" type="line"/>
      <point x="472" y="526" type="line"/>
      <point x="407" y="253" type="line" smooth="yes"/>
      <point x="400" y="222"/>
      <point x="394" y="183"/>
      <point x="391" y="150" type="curve"/>
      <point x="362" y="122"/>
      <point x="338" y="112"/>
      <point x="307" y="112" type="curve" smooth="yes"/>
      <point x="235" y="112"/>
      <point x="248" y="186"/>
      <point x="261" y="244" type="curve"/>
      <point x="328" y="526" type="line"/>
      <point x="179" y="526" type="line"/>
      <point x="111" y="242" type="line"/>
      <point x="79" y="113"/>
      <point x="114" y="-12"/>
      <point x="270" y="-12" type="curve" smooth="yes"/>
      <point x="327" y="-12"/>
      <point x="374" y="11"/>
      <point x="411" y="40" type="curve"/>
      <point x="416" y="25"/>
      <point x="421" y="12"/>
      <point x="428" y="-1" type="curve"/>
      <point x="344" y="-47"/>
      <point x="318" y="-96"/>
      <point x="318" y="-136" type="curve" smooth="yes"/>
      <point x="318" y="-199"/>
      <point x="371" y="-221"/>
    </contour>
  </outline>
</glyph>
<glyph name="longs" format="2">
  <advance width="435"/>
  <unicode hex="017F"/>
  <outline>
    <contour>
      <point x="95" y="-189" type="line"/>
      <point x="159" y="-141"/>
      <point x="212" y="-42"/>
      <point x="257" y="149" type="curve" smooth="yes"/>
      <point x="353" y="552" type="line" smooth="yes"/>
      <point x="366" y="608"/>
      <point x="398" y="650"/>
      <point x="471" y="650" type="curve" smooth="yes"/>
      <point x="498" y="650"/>
      <point x="532" y="644"/>
      <point x="556" y="632" type="curve"/>
      <point x="606" y="749" type="line"/>
      <point x="583" y="760"/>
      <point x="536" y="776"/>
      <point x="477" y="776" type="curve" smooth="yes"/>
      <point x="320" y="776"/>
      <point x="237" y="694"/>
      <point x="204" y="554" type="curve" smooth="yes"/>
      <point x="100" y="118" type="line"/>
      <point x="79" y="24"/>
      <point x="32" y="-106"/>
      <point x="-38" y="-170" type="curve"/>
    </contour>
  </outline>
</glyph>
<glyph name="uni0180" format="2">
	<advance width="575"/>
	<unicode hex="0180"/>
	<outline>
		<contour>
			<point x="276" y="-14" type="curve" smooth="yes"/>
			<point x="462" y="-14"/>
			<point x="605" y="137"/>
			<point x="605" y="322" type="curve" smooth="yes"/>
			<point x="605" y="441"/>
			<point x="547" y="537"/>
			<point x="419" y="537" type="curve" smooth="yes"/>
			<point x="388" y="537"/>
			<point x="363" y="530"/>
			<point x="336" y="518" type="curve"/>
			<point x="354" y="596" type="line"/>
			<point x="498" y="596" type="line"/>
			<point x="520" y="689" type="line"/>
			<point x="377" y="689" type="line"/>
			<point x="398" y="776" type="line"/>
			<point x="243" y="752" type="line"/>
			<point x="228" y="689" type="line"/>
			<point x="166" y="689" type="line"/>
			<point x="144" y="596" type="line"/>
			<point x="206" y="596" type="line"/>
			<point x="70" y="25" type="line"/>
			<point x="148" y="-13"/>
			<point x="251" y="-14"/>
		</contour>
		<contour>
			<point x="289" y="109" type="curve" smooth="yes"/>
			<point x="259" y="109"/>
			<point x="256" y="110"/>
			<point x="239" y="113" type="curve"/>
			<point x="305" y="387" type="line"/>
			<point x="329" y="408"/>
			<point x="363" y="413"/>
			<point x="382" y="413" type="curve" smooth="yes"/>
			<point x="439" y="413"/>
			<point x="457" y="375"/>
			<point x="457" y="311" type="curve" smooth="yes"/>
			<point x="457" y="208"/>
			<point x="383" y="109"/>
		</contour>
	</outline>
</glyph>
<glyph name="uni0181" format="2">
  <advance width="810"/>
  <unicode hex="0181"/>
  <outline>
    <contour>
      <point x="464" y="-9" type="curve" smooth="yes"/>
      <point x="720" y="-9"/>
      <point x="816" y="110"/>
      <point x="816" y="238" type="curve" smooth="yes"/>
      <point x="816" y="294"/>
      <point x="788" y="342"/>
      <point x="729" y="369" type="curve"/>
      <point x="830" y="414"/>
      <point x="850" y="486"/>
      <point x="850" y="545" type="curve" smooth="yes"/>
      <point x="850" y="630"/>
      <point x="781" y="701"/>
      <point x="621" y="701" type="curve" smooth="yes"/>
      <point x="608" y="701"/>
      <point x="595" y="701"/>
      <point x="580" y="700" type="curve"/>
      <point x="581" y="701" type="line"/>
      <point x="284" y="701"/>
      <point x="135" y="671"/>
      <point x="135" y="486" type="curve" smooth="yes"/>
      <point x="135" y="479"/>
      <point x="135" y="473"/>
      <point x="136" y="466" type="curve"/>
      <point x="257" y="482" type="line"/>
      <point x="262" y="534"/>
      <point x="285" y="556"/>
      <point x="359" y="564" type="curve"/>
      <point x="227" y="12" type="line"/>
      <point x="295" y="-3"/>
      <point x="384" y="-9"/>
    </contour>
    <contour>
      <point x="558" y="303" type="line"/>
      <point x="631" y="303"/>
      <point x="659" y="262"/>
      <point x="659" y="225" type="curve" smooth="yes"/>
      <point x="659" y="137"/>
      <point x="572" y="117"/>
      <point x="493" y="117" type="curve" smooth="yes"/>
      <point x="465" y="117"/>
      <point x="428" y="119"/>
      <point x="407" y="123" type="curve"/>
      <point x="450" y="303" type="line"/>
    </contour>
    <contour>
      <point x="515" y="572" type="line"/>
      <point x="531" y="575"/>
      <point x="568" y="577"/>
      <point x="596" y="577" type="curve" smooth="yes"/>
      <point x="647" y="577"/>
      <point x="696" y="560"/>
      <point x="696" y="508" type="curve" smooth="yes"/>
      <point x="696" y="460"/>
      <point x="657" y="420"/>
      <point x="577" y="420" type="curve" smooth="yes"/>
      <point x="479" y="420" type="line"/>
    </contour>
  </outline>
</glyph>
<glyph name="uni0183" format="2">
  <advance width="575"/>
  <unicode hex="0183"/>
  <outline>
    <contour>
      <point x="654" y="646" type="line"/>
      <point x="683" y="769" type="line"/>
      <point x="247" y="769" type="line"/>
      <point x="70" y="25" type="line"/>
      <point x="148" y="-13"/>
      <point x="251" y="-14"/>
      <point x="276" y="-14" type="curve" smooth="yes"/>
      <point x="462" y="-14"/>
      <point x="605" y="137"/>
      <point x="605" y="322" type="curve" smooth="yes"/>
      <point x="605" y="441"/>
      <point x="547" y="537"/>
      <point x="419" y="537" type="curve" smooth="yes"/>
      <point x="388" y="537"/>
      <point x="363" y="530"/>
      <point x="336" y="518" type="curve"/>
      <point x="367" y="646" type="line"/>
    </contour>
    <contour>
      <point x="289" y="109" type="curve" smooth="yes"/>
      <point x="259" y="109"/>
      <point x="256" y="110"/>
      <point x="239" y="113" type="curve"/>
      <point x="305" y="387" type="line"/>
      <point x="329" y="408"/>
      <point x="363" y="413"/>
      <point x="382" y="413" type="curve" smooth="yes"/>
      <point x="439" y="413"/>
      <point x="457" y="375"/>
      <point x="457" y="311" type="curve" smooth="yes"/>
      <point x="457" y="208"/>
      <point x="383" y="109"/>
    </contour>
  </outline>
</glyph>
<glyph name="uni0185" format="2">
  <advance width="650"/>
  <unicode hex="0185"/>
  <outline>
    <contour>
      <point x="90" y="16" type="line"/>
      <point x="149" y="1"/>
      <point x="225" y="-7"/>
      <point x="296" y="-7" type="curve" smooth="yes"/>
      <point x="476" y="-7"/>
      <point x="660" y="53"/>
      <point x="660" y="253" type="curve" smooth="yes"/>
      <point x="660" y="378"/>
      <point x="591" y="447"/>
      <point x="399" y="447" type="curve" smooth="yes"/>
      <point x="350" y="447" type="line"/>
      <point x="412" y="703" type="line"/>
      <point x="320" y="680"/>
      <point x="222" y="640"/>
      <point x="146" y="603" type="curve"/>
      <point x="210" y="514" type="line"/>
    </contour>
    <contour>
      <point x="319" y="318" type="line"/>
      <point x="374" y="318" type="line" smooth="yes"/>
      <point x="471" y="318"/>
      <point x="499" y="284"/>
      <point x="499" y="238" type="curve" smooth="yes"/>
      <point x="499" y="183"/>
      <point x="468" y="124"/>
      <point x="335" y="124" type="curve" smooth="yes"/>
      <point x="312" y="124"/>
      <point x="291" y="125"/>
      <point x="274" y="128" type="curve"/>
    </contour>
  </outline>
</glyph>
<glyph name="uni0186" format="2">
  <advance width="634"/>
  <unicode hex="0186"/>
  <outline>
    <contour>
      <point x="201" y="538" type="line"/>
      <point x="248" y="558"/>
      <point x="309" y="574"/>
      <point x="365" y="574" type="curve" smooth="yes"/>
      <point x="445" y="574"/>
      <point x="514" y="540"/>
      <point x="514" y="435" type="curve" smooth="yes"/>
      <point x="514" y="255"/>
      <point x="419" y="119"/>
      <point x="267" y="119" type="curve" smooth="yes"/>
      <point x="216" y="119"/>
      <point x="172" y="128"/>
      <point x="116" y="157" type="curve"/>
      <point x="50" y="36" type="line"/>
      <point x="113" y="3"/>
      <point x="184" y="-14"/>
      <point x="259" y="-14" type="curve" smooth="yes"/>
      <point x="479" y="-14"/>
      <point x="675" y="137"/>
      <point x="675" y="458" type="curve" smooth="yes"/>
      <point x="675" y="642"/>
      <point x="543" y="709"/>
      <point x="400" y="709" type="curve" smooth="yes"/>
      <point x="328" y="709"/>
      <point x="255" y="692"/>
      <point x="191" y="665" type="curve"/>
    </contour>
  </outline>
</glyph>
<glyph name="uni0188" format="2">
  <advance width="549"/>
  <unicode hex="0188"/>
  <outline>
    <contour>
      <point x="100" y="210" type="curve" smooth="yes"/>
      <point x="100" y="89"/>
      <point x="165" y="-14"/>
      <point x="329" y="-14" type="curve" smooth="yes"/>
      <point x="392" y="-14"/>
      <point x="435" y="-1"/>
      <point x="472" y="14" type="curve"/>
      <point x="461" y="133" type="line"/>
      <point x="433" y="121"/>
      <point x="396" y="112"/>
      <point x="357" y="112" type="curve" smooth="yes"/>
      <point x="278" y="112"/>
      <point x="254" y="158"/>
      <point x="254" y="226" type="curve" smooth="yes"/>
      <point x="254" y="341"/>
      <point x="316" y="414"/>
      <point x="415" y="414" type="curve" smooth="yes"/>
      <point x="456" y="414"/>
      <point x="482" y="404"/>
      <point x="509" y="393" type="curve"/>
      <point x="541" y="466" type="line"/>
      <point x="555" y="495"/>
      <point x="576" y="509"/>
      <point x="605" y="509" type="curve" smooth="yes"/>
      <point x="618" y="509"/>
      <point x="633" y="506"/>
      <point x="648" y="500" type="curve"/>
      <point x="699" y="611" type="line"/>
      <point x="670" y="623"/>
      <point x="640" y="629"/>
      <point x="611" y="629" type="curve" smooth="yes"/>
      <point x="550" y="629"/>
      <point x="494" y="603"/>
      <point x="463" y="536" type="curve"/>
      <point x="448" y="539"/>
      <point x="432" y="540"/>
      <point x="415" y="540" type="curve" smooth="yes"/>
      <point x="222" y="540"/>
      <point x="100" y="391"/>
    </contour>
  </outline>
</glyph>
<glyph name="uni018A" format="2">
  <advance width="872"/>
  <unicode hex="018A"/>
  <outline>
    <contour>
      <point x="517" y="567" type="line"/>
      <point x="538" y="569"/>
      <point x="558" y="570"/>
      <point x="578" y="570" type="curve" smooth="yes"/>
      <point x="702" y="570"/>
      <point x="748" y="508"/>
      <point x="748" y="415" type="curve" smooth="yes"/>
      <point x="748" y="233"/>
      <point x="638" y="123"/>
      <point x="465" y="123" type="curve" smooth="yes"/>
      <point x="438" y="123"/>
      <point x="426" y="124"/>
      <point x="411" y="125" type="curve"/>
    </contour>
    <contour>
      <point x="908" y="423" type="curve" smooth="yes"/>
      <point x="908" y="588"/>
      <point x="792" y="701"/>
      <point x="594" y="701" type="curve" smooth="yes"/>
      <point x="582" y="701" type="line" smooth="yes"/>
      <point x="298" y="701"/>
      <point x="123" y="686"/>
      <point x="136" y="446" type="curve"/>
      <point x="257" y="462" type="line"/>
      <point x="257" y="523"/>
      <point x="279" y="561"/>
      <point x="362" y="565" type="curve"/>
      <point x="229" y="12" type="line"/>
      <point x="297" y="-3"/>
      <point x="376" y="-9"/>
      <point x="432" y="-9" type="curve" smooth="yes"/>
      <point x="727" y="-9"/>
      <point x="908" y="155"/>
    </contour>
  </outline>
</glyph>
<glyph name="uni018B" format="2">
	<advance width="653"/>
	<unicode hex="018B"/>
	<outline>
		<contour>
			<point x="358" y="-7" type="curve" smooth="yes"/>
			<point x="414" y="-7"/>
			<point x="498" y="0"/>
			<point x="575" y="16" type="curve"/>
			<point x="738" y="693" type="line"/>
			<point x="270" y="693" type="line"/>
			<point x="238" y="561" type="line"/>
			<point x="549" y="561" type="line"/>
			<point x="521" y="447" type="line"/>
			<point x="446" y="447" type="line" smooth="yes"/>
			<point x="179" y="447"/>
			<point x="95" y="314"/>
			<point x="95" y="177" type="curve" smooth="yes"/>
			<point x="95" y="72"/>
			<point x="175" y="-7"/>
		</contour>
		<contour>
			<point x="373" y="126" type="curve" smooth="yes"/>
			<point x="297" y="126"/>
			<point x="247" y="142"/>
			<point x="247" y="207" type="curve" smooth="yes"/>
			<point x="247" y="260"/>
			<point x="290" y="318"/>
			<point x="425" y="318" type="curve" smooth="yes"/>
			<point x="490" y="318" type="line"/>
			<point x="446" y="132" type="line"/>
			<point x="426" y="129"/>
			<point x="400" y="126"/>
		</contour>
	</outline>
</glyph>
<glyph name="uni018C" format="2">
  <advance width="590"/>
  <unicode hex="018C"/>
  <outline>
    <contour>
      <point x="287" y="-14" type="curve" smooth="yes"/>
      <point x="343" y="-14"/>
      <point x="389" y="8"/>
      <point x="426" y="39" type="curve"/>
      <point x="433" y="20"/>
      <point x="439" y="7"/>
      <point x="447" y="-9" type="curve"/>
      <point x="580" y="10" type="line"/>
      <point x="557" y="69"/>
      <point x="546" y="151"/>
      <point x="565" y="227" type="curve"/>
      <point x="695" y="769" type="line"/>
      <point x="259" y="769" type="line"/>
      <point x="230" y="646" type="line"/>
      <point x="517" y="646" type="line"/>
      <point x="488" y="526" type="line"/>
      <point x="467" y="531"/>
      <point x="447" y="534"/>
      <point x="423" y="534" type="curve" smooth="yes"/>
      <point x="237" y="534"/>
      <point x="100" y="385"/>
      <point x="100" y="203" type="curve" smooth="yes"/>
      <point x="100" y="83"/>
      <point x="154" y="-14"/>
    </contour>
    <contour>
      <point x="324" y="111" type="curve" smooth="yes"/>
      <point x="267" y="111"/>
      <point x="248" y="150"/>
      <point x="248" y="214" type="curve" smooth="yes"/>
      <point x="248" y="314"/>
      <point x="316" y="411"/>
      <point x="410" y="411" type="curve" smooth="yes"/>
      <point x="440" y="411"/>
      <point x="442" y="410"/>
      <point x="459" y="407" type="curve"/>
      <point x="422" y="253" type="line"/>
      <point x="414" y="222"/>
      <point x="409" y="183"/>
      <point x="406" y="150" type="curve"/>
      <point x="378" y="122"/>
      <point x="355" y="111"/>
    </contour>
  </outline>
</glyph>
<glyph name="uni0190" format="2">
	<advance width="594"/>
	<unicode hex="0190"/>
	<outline>
		<contour>
			<point x="347" y="-14" type="curve" smooth="yes"/>
			<point x="431" y="-14"/>
			<point x="517" y="6"/>
			<point x="580" y="35" type="curve"/>
			<point x="566" y="159" type="line"/>
			<point x="510" y="135"/>
			<point x="437" y="119"/>
			<point x="376" y="119" type="curve" smooth="yes"/>
			<point x="309" y="119"/>
			<point x="258" y="137"/>
			<point x="258" y="185" type="curve" smooth="yes"/>
			<point x="258" y="274"/>
			<point x="355" y="295"/>
			<point x="451" y="295" type="curve" smooth="yes"/>
			<point x="525" y="295" type="line"/>
			<point x="556" y="423" type="line"/>
			<point x="471" y="423" type="line" smooth="yes"/>
			<point x="407" y="423"/>
			<point x="359" y="438"/>
			<point x="359" y="486" type="curve" smooth="yes"/>
			<point x="359" y="553"/>
			<point x="416" y="575"/>
			<point x="482" y="575" type="curve" smooth="yes"/>
			<point x="545" y="575"/>
			<point x="596" y="554"/>
			<point x="631" y="533" type="curve"/>
			<point x="704" y="652" type="line"/>
			<point x="647" y="689"/>
			<point x="575" y="709"/>
			<point x="504" y="709" type="curve" smooth="yes"/>
			<point x="353" y="709"/>
			<point x="206" y="632"/>
			<point x="206" y="488" type="curve" smooth="yes"/>
			<point x="206" y="444"/>
			<point x="223" y="403"/>
			<point x="255" y="379" type="curve"/>
			<point x="151" y="339"/>
			<point x="100" y="255"/>
			<point x="100" y="176" type="curve" smooth="yes"/>
			<point x="100" y="26"/>
			<point x="215" y="-14"/>
		</contour>
	</outline>
</glyph>
<glyph name="uni0191" format="2">
  <advance width="560"/>
  <unicode hex="0191"/>
  <outline>
    <contour>
      <point x="299" y="286" type="line"/>
      <point x="553" y="286" type="line"/>
      <point x="585" y="417" type="line"/>
      <point x="331" y="417" type="line"/>
      <point x="366" y="562" type="line"/>
      <point x="654" y="562" type="line"/>
      <point x="685" y="693" type="line"/>
      <point x="241" y="693" type="line"/>
      <point x="78" y="12" type="line" smooth="yes"/>
      <point x="66" y="-36"/>
      <point x="48" y="-58"/>
      <point x="13" y="-58" type="curve" smooth="yes"/>
      <point x="-1" y="-58"/>
      <point x="-17" y="-55"/>
      <point x="-34" y="-48" type="curve"/>
      <point x="-75" y="-166" type="line"/>
      <point x="-42" y="-181"/>
      <point x="-8" y="-188"/>
      <point x="26" y="-188" type="curve" smooth="yes"/>
      <point x="118" y="-188"/>
      <point x="199" y="-134"/>
      <point x="227" y="-17" type="curve" smooth="yes"/>
    </contour>
  </outline>
</glyph>
<glyph name="uni0195" format="2">
	<advance width="870"/>
	<unicode hex="0195"/>
	<outline>
		<contour>
			<point x="586" y="-14" type="curve" smooth="yes"/>
			<point x="735" y="-14"/>
			<point x="819" y="60"/>
			<point x="859" y="227" type="curve" smooth="yes"/>
			<point x="930" y="526" type="line"/>
			<point x="781" y="526" type="line"/>
			<point x="714" y="244" type="line"/>
			<point x="693" y="151"/>
			<point x="676" y="114"/>
			<point x="616" y="114" type="curve" smooth="yes"/>
			<point x="569" y="114"/>
			<point x="554" y="128"/>
			<point x="554" y="159" type="curve" smooth="yes"/>
			<point x="554" y="180"/>
			<point x="561" y="208"/>
			<point x="570" y="244" type="curve" smooth="yes"/>
			<point x="588" y="321" type="line"/>
			<point x="593" y="346"/>
			<point x="596" y="369"/>
			<point x="596" y="389" type="curve" smooth="yes"/>
			<point x="596" y="477"/>
			<point x="545" y="535"/>
			<point x="425" y="535" type="curve" smooth="yes"/>
			<point x="398" y="535"/>
			<point x="371" y="530"/>
			<point x="344" y="525" type="curve"/>
			<point x="405" y="776" type="line"/>
			<point x="250" y="752" type="line"/>
			<point x="70" y="0" type="line"/>
			<point x="219" y="0" type="line"/>
			<point x="316" y="406" type="line"/>
			<point x="335" y="410"/>
			<point x="354" y="413"/>
			<point x="375" y="413" type="curve" smooth="yes"/>
			<point x="426" y="413"/>
			<point x="441" y="390"/>
			<point x="441" y="353" type="curve" smooth="yes"/>
			<point x="441" y="337"/>
			<point x="438" y="318"/>
			<point x="433" y="295" type="curve" smooth="yes"/>
			<point x="411" y="202" type="line" smooth="yes"/>
			<point x="406" y="179"/>
			<point x="403" y="158"/>
			<point x="403" y="140" type="curve" smooth="yes"/>
			<point x="403" y="47"/>
			<point x="462" y="-14"/>
		</contour>
	</outline>
</glyph>
<glyph name="uni0197" format="2">
	<advance width="359"/>
	<unicode hex="0197"/>
	<outline>
		<contour>
			<point x="93" y="0" type="line"/>
			<point x="249" y="0" type="line"/>
			<point x="322" y="304" type="line"/>
			<point x="407" y="304" type="line"/>
			<point x="434" y="414" type="line"/>
			<point x="349" y="414" type="line"/>
			<point x="416" y="693" type="line"/>
			<point x="260" y="693" type="line"/>
			<point x="193" y="414" type="line"/>
			<point x="112" y="414" type="line"/>
			<point x="85" y="304" type="line"/>
			<point x="166" y="304" type="line"/>
		</contour>
	</outline>
</glyph>
<glyph name="uni0198" format="2">
  <advance width="696"/>
  <unicode hex="0198"/>
  <outline>
    <contour>
      <point x="653" y="0" type="line"/>
      <point x="592" y="153"/>
      <point x="512" y="270"/>
      <point x="428" y="362" type="curve"/>
      <point x="624" y="542" type="line"/>
      <point x="647" y="562"/>
      <point x="672" y="572"/>
      <point x="695" y="573" type="curve" smooth="yes"/>
      <point x="716" y="573"/>
      <point x="733" y="565"/>
      <point x="746" y="549" type="curve"/>
      <point x="826" y="653" type="line"/>
      <point x="791" y="688"/>
      <point x="749" y="709"/>
      <point x="702" y="709" type="curve" smooth="yes"/>
      <point x="654" y="709"/>
      <point x="602" y="689"/>
      <point x="547" y="638" type="curve" smooth="yes"/>
      <point x="336" y="443" type="line"/>
      <point x="397" y="693" type="line"/>
      <point x="241" y="693" type="line"/>
      <point x="75" y="0" type="line"/>
      <point x="230" y="0" type="line"/>
      <point x="301" y="290" type="line"/>
      <point x="376" y="215"/>
      <point x="446" y="91"/>
      <point x="483" y="0" type="curve"/>
    </contour>
  </outline>
</glyph>
<glyph name="uni019A" format="2">
	<advance width="365"/>
	<unicode hex="019A"/>
	<outline>
		<contour>
			<point x="298" y="-10" type="curve"/>
			<point x="328" y="113" type="line"/>
			<point x="277" y="117"/>
			<point x="261" y="136"/>
			<point x="261" y="166" type="curve" smooth="yes"/>
			<point x="261" y="176"/>
			<point x="263" y="188"/>
			<point x="266" y="200" type="curve" smooth="yes"/>
			<point x="303" y="353" type="line"/>
			<point x="413" y="353" type="line"/>
			<point x="436" y="448" type="line"/>
			<point x="326" y="448" type="line"/>
			<point x="405" y="776" type="line"/>
			<point x="250" y="752" type="line"/>
			<point x="177" y="448" type="line"/>
			<point x="117" y="448" type="line"/>
			<point x="94" y="353" type="line"/>
			<point x="154" y="353" type="line"/>
			<point x="123" y="221" type="line" smooth="yes"/>
			<point x="116" y="191"/>
			<point x="111" y="161"/>
			<point x="111" y="134" type="curve" smooth="yes"/>
			<point x="111" y="51"/>
			<point x="154" y="-10"/>
		</contour>
	</outline>
</glyph>
<glyph name="uni019B" format="2">
  <advance width="546"/>
  <unicode hex="019B"/>
  <outline>
    <contour>
      <point x="536" y="0" type="line"/>
      <point x="531" y="176"/>
      <point x="506" y="403"/>
      <point x="471" y="587" type="curve"/>
      <point x="571" y="620" type="line"/>
      <point x="560" y="703" type="line"/>
      <point x="454" y="668" type="line"/>
      <point x="429" y="751"/>
      <point x="372" y="776"/>
      <point x="307" y="776" type="curve" smooth="yes"/>
      <point x="276" y="776"/>
      <point x="244" y="770"/>
      <point x="212" y="763" type="curve"/>
      <point x="205" y="642" type="line"/>
      <point x="224" y="647"/>
      <point x="241" y="649"/>
      <point x="257" y="649" type="curve" smooth="yes"/>
      <point x="284" y="649"/>
      <point x="304" y="640"/>
      <point x="316" y="622" type="curve"/>
      <point x="211" y="587" type="line"/>
      <point x="220" y="504" type="line"/>
      <point x="339" y="543" type="line"/>
      <point x="339" y="539"/>
      <point x="340" y="535"/>
      <point x="341" y="530" type="curve"/>
      <point x="237" y="395"/>
      <point x="121" y="221"/>
      <point x="30" y="0" type="curve"/>
      <point x="182" y="0" type="line"/>
      <point x="230" y="120"/>
      <point x="308" y="263"/>
      <point x="366" y="358" type="curve"/>
      <point x="377" y="253"/>
      <point x="380" y="91"/>
      <point x="383" y="0" type="curve"/>
    </contour>
  </outline>
</glyph>
<glyph name="uni019D" format="2">
  <advance width="742"/>
  <unicode hex="019D"/>
  <outline>
    <contour>
      <point x="26" y="-188" type="curve" smooth="yes"/>
      <point x="118" y="-188"/>
      <point x="196" y="-134"/>
      <point x="224" y="-17" type="curve" smooth="yes"/>
      <point x="338" y="459" type="line"/>
      <point x="417" y="320"/>
      <point x="487" y="157"/>
      <point x="543" y="0" type="curve"/>
      <point x="660" y="0" type="line"/>
      <point x="827" y="693" type="line"/>
      <point x="672" y="693" type="line"/>
      <point x="573" y="276" type="line"/>
      <point x="506" y="431"/>
      <point x="421" y="600"/>
      <point x="360" y="693" type="curve"/>
      <point x="241" y="693" type="line"/>
      <point x="77" y="9" type="line"/>
      <point x="65" y="-36"/>
      <point x="46" y="-58"/>
      <point x="13" y="-58" type="curve" smooth="yes"/>
      <point x="-1" y="-58"/>
      <point x="-17" y="-55"/>
      <point x="-34" y="-48" type="curve"/>
      <point x="-75" y="-166" type="line"/>
      <point x="-42" y="-181"/>
      <point x="-8" y="-188"/>
    </contour>
  </outline>
</glyph>
<glyph name="uni019F" format="2">
	<advance width="757"/>
	<unicode hex="019F"/>
	<outline>
		<contour>
			<point x="401" y="-14" type="curve" smooth="yes"/>
			<point x="649" y="-14"/>
			<point x="794" y="209"/>
			<point x="794" y="418" type="curve" smooth="yes"/>
			<point x="794" y="599"/>
			<point x="679" y="709"/>
			<point x="516" y="709" type="curve" smooth="yes"/>
			<point x="271" y="709"/>
			<point x="123" y="484"/>
			<point x="123" y="277" type="curve" smooth="yes"/>
			<point x="123" y="96"/>
			<point x="238" y="-14"/>
		</contour>
		<contour>
			<point x="417" y="120" type="curve" smooth="yes"/>
			<point x="326" y="120"/>
			<point x="286" y="182"/>
			<point x="283" y="282" type="curve" smooth="yes"/>
			<point x="283" y="286"/>
			<point x="283" y="290"/>
			<point x="283" y="294" type="curve"/>
			<point x="615" y="294" type="line"/>
			<point x="583" y="195"/>
			<point x="507" y="120"/>
		</contour>
		<contour>
			<point x="302" y="404" type="line"/>
			<point x="337" y="501"/>
			<point x="408" y="575"/>
			<point x="500" y="575" type="curve" smooth="yes"/>
			<point x="592" y="575"/>
			<point x="631" y="512"/>
			<point x="634" y="414" type="curve" smooth="yes"/>
			<point x="634" y="411"/>
			<point x="634" y="407"/>
			<point x="634" y="404" type="curve"/>
		</contour>
	</outline>
</glyph>
<glyph name="Ohorn" format="2">
	<advance width="757"/>
	<unicode hex="01A0"/>
	<outline>
		<contour>
			<point x="401" y="-14" type="curve" smooth="yes"/>
			<point x="649" y="-14"/>
			<point x="794" y="209"/>
			<point x="794" y="418" type="curve" smooth="yes"/>
			<point x="794" y="481"/>
			<point x="781" y="535"/>
			<point x="754" y="580" type="curve"/>
			<point x="838" y="636"/>
			<point x="877" y="713"/>
			<point x="884" y="801" type="curve"/>
			<point x="746" y="801" type="line"/>
			<point x="741" y="755"/>
			<point x="737" y="703"/>
			<point x="686" y="658" type="curve"/>
			<point x="639" y="692"/>
			<point x="582" y="709"/>
			<point x="516" y="709" type="curve" smooth="yes"/>
			<point x="271" y="709"/>
			<point x="123" y="484"/>
			<point x="123" y="277" type="curve" smooth="yes"/>
			<point x="123" y="96"/>
			<point x="238" y="-14"/>
		</contour>
		<contour>
			<point x="417" y="120" type="curve" smooth="yes"/>
			<point x="322" y="120"/>
			<point x="283" y="188"/>
			<point x="283" y="288" type="curve" smooth="yes"/>
			<point x="283" y="436"/>
			<point x="377" y="575"/>
			<point x="500" y="575" type="curve" smooth="yes"/>
			<point x="595" y="575"/>
			<point x="634" y="507"/>
			<point x="634" y="407" type="curve" smooth="yes"/>
			<point x="634" y="259"/>
			<point x="540" y="120"/>
		</contour>
	</outline>
</glyph>
<glyph name="ohorn" format="2">
  <advance width="581"/>
  <unicode hex="01A1"/>
  <outline>
    <contour>
      <point x="308" y="-14" type="curve" smooth="yes"/>
      <point x="503" y="-14"/>
      <point x="604" y="164"/>
      <point x="604" y="323" type="curve" smooth="yes"/>
      <point x="604" y="354"/>
      <point x="599" y="383"/>
      <point x="591" y="410" type="curve"/>
      <point x="674" y="465"/>
      <point x="716" y="540"/>
      <point x="721" y="632" type="curve"/>
      <point x="596" y="632" type="line"/>
      <point x="585" y="550"/>
      <point x="572" y="525"/>
      <point x="538" y="493" type="curve"/>
      <point x="503" y="524"/>
      <point x="455" y="540"/>
      <point x="396" y="540" type="curve" smooth="yes"/>
      <point x="207" y="540"/>
      <point x="100" y="362"/>
      <point x="100" y="203" type="curve" smooth="yes"/>
      <point x="100" y="76"/>
      <point x="168" y="-14"/>
    </contour>
    <contour>
      <point x="382" y="414" type="curve" smooth="yes"/>
      <point x="438" y="414"/>
      <point x="456" y="375"/>
      <point x="456" y="308" type="curve" smooth="yes"/>
      <point x="456" y="225"/>
      <point x="410" y="112"/>
      <point x="322" y="112" type="curve" smooth="yes"/>
      <point x="266" y="112"/>
      <point x="248" y="151"/>
      <point x="248" y="218" type="curve" smooth="yes"/>
      <point x="248" y="301"/>
      <point x="294" y="414"/>
    </contour>
  </outline>
</glyph>
<glyph name="uni01A2" format="2">
  <advance width="1045"/>
  <unicode hex="01A2"/>
  <outline>
    <contour>
      <point x="409" y="-14" type="curve" smooth="yes"/>
      <point x="657" y="-14"/>
      <point x="802" y="209"/>
      <point x="802" y="418" type="curve" smooth="yes"/>
      <point x="802" y="467"/>
      <point x="794" y="511"/>
      <point x="778" y="549" type="curve"/>
      <point x="807" y="566"/>
      <point x="834" y="574"/>
      <point x="859" y="574" type="curve" smooth="yes"/>
      <point x="910" y="574"/>
      <point x="924" y="547"/>
      <point x="924" y="511" type="curve" smooth="yes"/>
      <point x="924" y="485"/>
      <point x="912" y="433"/>
      <point x="909" y="425" type="curve"/>
      <point x="807" y="0" type="line"/>
      <point x="963" y="0" type="line"/>
      <point x="1072" y="454" type="line" smooth="yes"/>
      <point x="1080" y="487"/>
      <point x="1085" y="520"/>
      <point x="1085" y="551" type="curve" smooth="yes"/>
      <point x="1085" y="637"/>
      <point x="1047" y="709"/>
      <point x="911" y="709" type="curve" smooth="yes"/>
      <point x="844" y="709"/>
      <point x="771" y="688"/>
      <point x="707" y="647" type="curve"/>
      <point x="660" y="687"/>
      <point x="596" y="709"/>
      <point x="524" y="709" type="curve" smooth="yes"/>
      <point x="279" y="709"/>
      <point x="131" y="484"/>
      <point x="131" y="277" type="curve" smooth="yes"/>
      <point x="131" y="96"/>
      <point x="246" y="-14"/>
    </contour>
    <contour>
      <point x="425" y="120" type="curve" smooth="yes"/>
      <point x="330" y="120"/>
      <point x="291" y="188"/>
      <point x="291" y="288" type="curve" smooth="yes"/>
      <point x="291" y="436"/>
      <point x="385" y="575"/>
      <point x="508" y="575" type="curve" smooth="yes"/>
      <point x="603" y="575"/>
      <point x="642" y="507"/>
      <point x="642" y="407" type="curve" smooth="yes"/>
      <point x="642" y="259"/>
      <point x="548" y="120"/>
    </contour>
  </outline>
</glyph>
<glyph name="uni01AA" format="2">
	<advance width="442"/>
	<unicode hex="01AA"/>
	<outline>
		<contour>
			<point x="383" y="-188" type="curve"/>
			<point x="416" y="-69" type="line"/>
			<point x="365" y="-60"/>
			<point x="345" y="-38"/>
			<point x="345" y="-3" type="curve" smooth="yes"/>
			<point x="345" y="6"/>
			<point x="346" y="16"/>
			<point x="349" y="26" type="curve" smooth="yes"/>
			<point x="472" y="537" type="line" smooth="yes"/>
			<point x="479" y="564"/>
			<point x="482" y="591"/>
			<point x="482" y="618" type="curve" smooth="yes"/>
			<point x="482" y="709"/>
			<point x="436" y="780"/>
			<point x="324" y="780" type="curve" smooth="yes"/>
			<point x="210" y="780"/>
			<point x="110" y="709"/>
			<point x="110" y="589" type="curve" smooth="yes"/>
			<point x="110" y="494"/>
			<point x="176" y="442"/>
			<point x="252" y="442" type="curve" smooth="yes"/>
			<point x="269" y="442"/>
			<point x="285" y="444"/>
			<point x="301" y="449" type="curve"/>
			<point x="201" y="41" type="line" smooth="yes"/>
			<point x="193" y="10"/>
			<point x="190" y="-18"/>
			<point x="190" y="-41" type="curve" smooth="yes"/>
			<point x="190" y="-156"/>
			<point x="275" y="-188"/>
		</contour>
		<contour>
			<point x="270" y="554" type="curve" smooth="yes"/>
			<point x="242" y="554"/>
			<point x="228" y="573"/>
			<point x="228" y="597" type="curve" smooth="yes"/>
			<point x="228" y="645"/>
			<point x="265" y="670"/>
			<point x="297" y="670" type="curve" smooth="yes"/>
			<point x="322" y="670"/>
			<point x="343" y="656"/>
			<point x="343" y="627" type="curve" smooth="yes"/>
			<point x="343" y="621"/>
			<point x="342" y="614"/>
			<point x="332" y="577" type="curve"/>
			<point x="315" y="564"/>
			<point x="290" y="554"/>
		</contour>
	</outline>
</glyph>
<glyph name="uni01AB" format="2">
	<unicode hex="01AB"/>
	<advance width="416"/>
	<outline>
		<contour>
			<point x="268" y="-11" type="qcurve"/>
			<point x="221" y="-11"/>
			<point x="158" y="11"/>
			<point x="118" y="52"/>
			<point x="101" y="108"/>
			<point x="101" y="142" type="qcurve"/>
			<point x="101" y="187"/>
			<point x="115" y="243" type="qcurve"/>
			<point x="213" y="657" type="line"/>
			<point x="368" y="681" type="line"/>
			<point x="330" y="526" type="line"/>
			<point x="496" y="526" type="line"/>
			<point x="466" y="404" type="line"/>
			<point x="301" y="404" type="line"/>
			<point x="257" y="220" type="line"/>
			<point x="254" y="208"/>
			<point x="250" y="185"/>
			<point x="250" y="174" type="qcurve"/>
			<point x="250" y="147"/>
			<point x="280" y="112"/>
			<point x="322" y="112" type="qcurve"/>
			<point x="345" y="112"/>
			<point x="394" y="122"/>
			<point x="413" y="129" type="qcurve"/>
			<point x="410" y="62"/>
			<point x="388" y="-55"/>
			<point x="343" y="-141"/>
			<point x="271" y="-190"/>
			<point x="217" y="-190" type="qcurve"/>
			<point x="188" y="-190"/>
			<point x="146" y="-182"/>
			<point x="121" y="-173" type="qcurve"/>
			<point x="162" y="-64" type="line"/>
			<point x="186" y="-72"/>
			<point x="206" y="-72" type="qcurve"/>
			<point x="230" y="-72"/>
			<point x="265" y="-44"/>
		</contour>
	</outline>
</glyph>
<glyph name="uni01AE" format="2">
	<advance width="594"/>
	<unicode hex="01AE"/>
	<outline>
		<contour>
			<point x="350" y="-186" type="curve" smooth="yes"/>
			<point x="377" y="-186"/>
			<point x="409" y="-182"/>
			<point x="444" y="-174" type="curve"/>
			<point x="455" y="-53" type="line"/>
			<point x="435" y="-58"/>
			<point x="420" y="-61"/>
			<point x="409" y="-61" type="curve" smooth="yes"/>
			<point x="380" y="-61"/>
			<point x="369" y="-46"/>
			<point x="369" y="-21" type="curve" smooth="yes"/>
			<point x="369" y="-9"/>
			<point x="371" y="5"/>
			<point x="375" y="21" type="curve" smooth="yes"/>
			<point x="504" y="562" type="line"/>
			<point x="707" y="562" type="line"/>
			<point x="738" y="693" type="line"/>
			<point x="177" y="693" type="line"/>
			<point x="145" y="562" type="line"/>
			<point x="348" y="562" type="line"/>
			<point x="213" y="1" type="line" smooth="yes"/>
			<point x="208" y="-22"/>
			<point x="205" y="-43"/>
			<point x="205" y="-60" type="curve" smooth="yes"/>
			<point x="205" y="-144"/>
			<point x="258" y="-186"/>
		</contour>
	</outline>
</glyph>
<glyph name="Uhorn" format="2">
	<unicode hex="01AF"/>
	<advance width="746"/>
	<outline>
		<contour>
			<point x="668" y="252" type="line"/>
			<point x="634" y="111"/>
			<point x="481" y="-14"/>
			<point x="355" y="-14" type="qcurve"/>
			<point x="290" y="-14"/>
			<point x="201" y="17"/>
			<point x="145" y="72"/>
			<point x="120" y="149"/>
			<point x="120" y="194" type="qcurve"/>
			<point x="120" y="246"/>
			<point x="135" y="305" type="qcurve"/>
			<point x="228" y="693" type="line"/>
			<point x="384" y="693" type="line"/>
			<point x="286" y="283" type="line"/>
			<point x="281" y="264"/>
			<point x="276" y="227"/>
			<point x="276" y="210" type="qcurve"/>
			<point x="276" y="191"/>
			<point x="285" y="158"/>
			<point x="308" y="134"/>
			<point x="347" y="121"/>
			<point x="376" y="121" type="qcurve"/>
			<point x="436" y="121"/>
			<point x="498" y="196"/>
			<point x="515" y="265" type="qcurve"/>
			<point x="617" y="693" type="line"/>
			<point x="685" y="693" type="line"/>
			<point x="742" y="693"/>
			<point x="790" y="747"/>
			<point x="792" y="801" type="qcurve"/>
			<point x="926" y="801" type="line"/>
			<point x="922" y="765"/>
			<point x="902" y="694"/>
			<point x="863" y="638"/>
			<point x="799" y="600"/>
			<point x="750" y="597" type="qcurve"/>
		</contour>
	</outline>
</glyph>
<glyph name="uhorn" format="2">
  <advance width="611"/>
  <unicode hex="01B0"/>
  <outline>
    <contour>
      <point x="407" y="253" type="line"/>
      <point x="400" y="222"/>
      <point x="394" y="183"/>
      <point x="391" y="150" type="curve"/>
      <point x="362" y="122"/>
      <point x="338" y="112"/>
      <point x="307" y="112" type="curve" smooth="yes"/>
      <point x="235" y="112"/>
      <point x="248" y="186"/>
      <point x="261" y="244" type="curve"/>
      <point x="328" y="526" type="line"/>
      <point x="179" y="526" type="line"/>
      <point x="111" y="242" type="line"/>
      <point x="79" y="113"/>
      <point x="114" y="-12"/>
      <point x="270" y="-12" type="curve" smooth="yes"/>
      <point x="327" y="-12"/>
      <point x="374" y="11"/>
      <point x="411" y="40" type="curve"/>
      <point x="418" y="21"/>
      <point x="424" y="7"/>
      <point x="432" y="-9" type="curve"/>
      <point x="565" y="10" type="line"/>
      <point x="542" y="69"/>
      <point x="531" y="151"/>
      <point x="550" y="227" type="curve"/>
      <point x="600" y="439" type="line"/>
      <point x="728" y="455"/>
      <point x="765" y="553"/>
      <point x="770" y="632" type="curve"/>
      <point x="650" y="632" type="line"/>
      <point x="647" y="567"/>
      <point x="623" y="529"/>
      <point x="563" y="526" type="curve"/>
      <point x="472" y="526" type="line"/>
    </contour>
  </outline>
</glyph>
<glyph name="uni01B2" format="2">
  <advance width="716"/>
  <unicode hex="01B2"/>
  <outline>
    <contour>
      <point x="340" y="-14" type="curve" smooth="yes"/>
      <point x="623" y="-14"/>
      <point x="746" y="229"/>
      <point x="746" y="450" type="curve" smooth="yes"/>
      <point x="746" y="605"/>
      <point x="710" y="701"/>
      <point x="565" y="701" type="curve" smooth="yes"/>
      <point x="538" y="701"/>
      <point x="501" y="699"/>
      <point x="470" y="692" type="curve"/>
      <point x="455" y="562" type="line"/>
      <point x="472" y="566"/>
      <point x="487" y="568"/>
      <point x="500" y="568" type="curve" smooth="yes"/>
      <point x="560" y="568"/>
      <point x="585" y="528"/>
      <point x="585" y="437" type="curve" smooth="yes"/>
      <point x="585" y="278"/>
      <point x="501" y="121"/>
      <point x="372" y="121" type="curve" smooth="yes"/>
      <point x="296" y="121"/>
      <point x="271" y="153"/>
      <point x="271" y="208" type="curve" smooth="yes"/>
      <point x="271" y="231"/>
      <point x="275" y="256"/>
      <point x="282" y="285" type="curve" smooth="yes"/>
      <point x="380" y="693" type="line"/>
      <point x="224" y="693" type="line"/>
      <point x="123" y="272" type="line" smooth="yes"/>
      <point x="117" y="247"/>
      <point x="114" y="221"/>
      <point x="114" y="196" type="curve" smooth="yes"/>
      <point x="114" y="89"/>
      <point x="172" y="-14"/>
    </contour>
  </outline>
</glyph>
<glyph name="uni01B3" format="2">
	<advance width="694"/>
	<unicode hex="01B3"/>
	<outline>
		<contour>
			<point x="244" y="0" type="line"/>
			<point x="400" y="0" type="line"/>
			<point x="466" y="274" type="line"/>
			<point x="535" y="362"/>
			<point x="597" y="444"/>
			<point x="667" y="530" type="curve" smooth="yes"/>
			<point x="688" y="557"/>
			<point x="702" y="568"/>
			<point x="729" y="568" type="curve" smooth="yes"/>
			<point x="753" y="568"/>
			<point x="765" y="559"/>
			<point x="777" y="544" type="curve"/>
			<point x="865" y="646" type="line"/>
			<point x="831" y="690"/>
			<point x="788" y="703"/>
			<point x="735" y="703" type="curve" smooth="yes"/>
			<point x="635" y="703"/>
			<point x="589" y="639"/>
			<point x="538" y="572" type="curve" smooth="yes"/>
			<point x="496" y="517"/>
			<point x="455" y="463"/>
			<point x="413" y="408" type="curve"/>
			<point x="385" y="501"/>
			<point x="357" y="597"/>
			<point x="336" y="693" type="curve"/>
			<point x="170" y="693" type="line"/>
			<point x="212" y="544"/>
			<point x="252" y="415"/>
			<point x="310" y="274" type="curve"/>
		</contour>
	</outline>
</glyph>
<glyph name="uni01B4" format="2">
  <advance width="595"/>
  <unicode hex="01B4"/>
  <outline>
    <contour>
      <point x="316" y="151" type="line"/>
      <point x="300" y="246"/>
      <point x="283" y="422"/>
      <point x="280" y="526" type="curve"/>
      <point x="127" y="526" type="line"/>
      <point x="138" y="319"/>
      <point x="177" y="144"/>
      <point x="212" y="11" type="curve"/>
      <point x="169" y="-48"/>
      <point x="132" y="-61"/>
      <point x="85" y="-61" type="curve" smooth="yes"/>
      <point x="54" y="-61"/>
      <point x="37" y="-55"/>
      <point x="10" y="-44" type="curve"/>
      <point x="-35" y="-161" type="line"/>
      <point x="-3" y="-180"/>
      <point x="32" y="-189"/>
      <point x="71" y="-189" type="curve" smooth="yes"/>
      <point x="213" y="-189"/>
      <point x="335" y="-108"/>
      <point x="439" y="135" type="curve" smooth="yes"/>
      <point x="520" y="323" type="line" smooth="yes"/>
      <point x="547" y="387"/>
      <point x="563" y="416"/>
      <point x="608" y="416" type="curve" smooth="yes"/>
      <point x="621" y="416"/>
      <point x="642" y="412"/>
      <point x="659" y="405" type="curve"/>
      <point x="695" y="514" type="line"/>
      <point x="659" y="525"/>
      <point x="624" y="533"/>
      <point x="591" y="533" type="curve" smooth="yes"/>
      <point x="523" y="533"/>
      <point x="465" y="502"/>
      <point x="424" y="406" type="curve" smooth="yes"/>
    </contour>
  </outline>
</glyph>
<glyph name="uni01B8" format="2">
	<advance width="615"/>
	<unicode hex="01B8"/>
	<outline>
		<contour>
			<point x="359" y="-14" type="curve" smooth="yes"/>
			<point x="443" y="-14"/>
			<point x="532" y="5"/>
			<point x="605" y="42" type="curve"/>
			<point x="589" y="166" type="line"/>
			<point x="540" y="143"/>
			<point x="462" y="118"/>
			<point x="385" y="118" type="curve" smooth="yes"/>
			<point x="304" y="118"/>
			<point x="265" y="141"/>
			<point x="265" y="194" type="curve" smooth="yes"/>
			<point x="265" y="261"/>
			<point x="329" y="306"/>
			<point x="462" y="306" type="curve" smooth="yes"/>
			<point x="511" y="306" type="line"/>
			<point x="531" y="392" type="line"/>
			<point x="493" y="443"/>
			<point x="435" y="516"/>
			<point x="401" y="563" type="curve"/>
			<point x="694" y="563" type="line"/>
			<point x="725" y="693" type="line"/>
			<point x="240" y="693" type="line"/>
			<point x="218" y="600" type="line"/>
			<point x="242" y="560"/>
			<point x="311" y="473"/>
			<point x="357" y="408" type="curve"/>
			<point x="169" y="384"/>
			<point x="100" y="272"/>
			<point x="100" y="168" type="curve" smooth="yes"/>
			<point x="100" y="41"/>
			<point x="220" y="-14"/>
		</contour>
	</outline>
</glyph>
<glyph name="uni01BA" format="2">
	<advance width="500"/>
	<unicode hex="01BA"/>
	<outline>
		<contour>
			<point x="2" y="-195" type="curve"/>
			<point x="130" y="-169" type="line"/>
			<point x="127" y="-158"/>
			<point x="124" y="-148"/>
			<point x="124" y="-137" type="curve" smooth="yes"/>
			<point x="124" y="-108"/>
			<point x="136" y="-80"/>
			<point x="267" y="-54" type="curve" smooth="yes"/>
			<point x="458" y="-16"/>
			<point x="507" y="41"/>
			<point x="507" y="138" type="curve" smooth="yes"/>
			<point x="507" y="201"/>
			<point x="463" y="262"/>
			<point x="363" y="285" type="curve"/>
			<point x="421" y="325"/>
			<point x="506" y="386"/>
			<point x="555" y="424" type="curve"/>
			<point x="580" y="526" type="line"/>
			<point x="157" y="526" type="line"/>
			<point x="127" y="402" type="line"/>
			<point x="368" y="402" type="line"/>
			<point x="330" y="372"/>
			<point x="258" y="322"/>
			<point x="205" y="283" type="curve"/>
			<point x="186" y="200" type="line"/>
			<point x="318" y="195"/>
			<point x="353" y="183"/>
			<point x="353" y="139" type="curve" smooth="yes"/>
			<point x="353" y="89"/>
			<point x="307" y="76"/>
			<point x="183" y="48" type="curve" smooth="yes"/>
			<point x="66" y="22"/>
			<point x="-11" y="-24"/>
			<point x="-11" y="-122" type="curve" smooth="yes"/>
			<point x="-11" y="-145"/>
			<point x="-5" y="-168"/>
		</contour>
	</outline>
</glyph>
<glyph name="uni01BB" format="2">
	<advance width="551"/>
	<unicode hex="01BB"/>
	<outline>
		<contour>
			<point x="40" y="0" type="curve"/>
			<point x="501" y="0" type="line"/>
			<point x="531" y="125" type="line"/>
			<point x="233" y="125" type="line"/>
			<point x="286" y="191"/>
			<point x="342" y="234"/>
			<point x="402" y="278" type="curve" smooth="yes"/>
			<point x="406" y="281"/>
			<point x="411" y="285"/>
			<point x="416" y="288" type="curve"/>
			<point x="558" y="288" type="line"/>
			<point x="584" y="398" type="line"/>
			<point x="526" y="398" type="line"/>
			<point x="573" y="451"/>
			<point x="591" y="501"/>
			<point x="591" y="552" type="curve" smooth="yes"/>
			<point x="591" y="640"/>
			<point x="530" y="708"/>
			<point x="407" y="708" type="curve" smooth="yes"/>
			<point x="322" y="708"/>
			<point x="227" y="675"/>
			<point x="175" y="615" type="curve"/>
			<point x="224" y="511" type="line"/>
			<point x="280" y="560"/>
			<point x="334" y="582"/>
			<point x="377" y="582" type="curve" smooth="yes"/>
			<point x="412" y="582"/>
			<point x="441" y="562"/>
			<point x="441" y="526" type="curve" smooth="yes"/>
			<point x="441" y="494"/>
			<point x="422" y="455"/>
			<point x="353" y="398" type="curve"/>
			<point x="167" y="398" type="line"/>
			<point x="143" y="288" type="line"/>
			<point x="226" y="288" type="line"/>
			<point x="136" y="219"/>
			<point x="56" y="135"/>
		</contour>
	</outline>
</glyph>
<glyph name="uni01BE" format="2">
  <advance width="488"/>
  <unicode hex="01BE"/>
  <outline>
    <contour>
      <point x="305" y="373" type="curve" smooth="yes"/>
      <point x="305" y="378"/>
      <point x="305" y="384"/>
      <point x="310" y="404" type="curve"/>
      <point x="489" y="404" type="line"/>
      <point x="519" y="526" type="line"/>
      <point x="340" y="526" type="line"/>
      <point x="377" y="681" type="line"/>
      <point x="222" y="657" type="line"/>
      <point x="163" y="410" type="line" smooth="yes"/>
      <point x="157" y="384"/>
      <point x="154" y="361"/>
      <point x="154" y="341" type="curve" smooth="yes"/>
      <point x="154" y="206"/>
      <point x="335" y="224"/>
      <point x="335" y="152" type="curve" smooth="yes"/>
      <point x="335" y="127"/>
      <point x="310" y="107"/>
      <point x="253" y="107" type="curve" smooth="yes"/>
      <point x="208" y="107"/>
      <point x="152" y="120"/>
      <point x="107" y="145" type="curve"/>
      <point x="56" y="28" type="line"/>
      <point x="115" y="-1"/>
      <point x="175" y="-14"/>
      <point x="232" y="-14" type="curve" smooth="yes"/>
      <point x="392" y="-14"/>
      <point x="485" y="62"/>
      <point x="485" y="170" type="curve" smooth="yes"/>
      <point x="485" y="321"/>
      <point x="305" y="300"/>
    </contour>
  </outline>
</glyph>
<glyph name="uni01BF" format="2">
  <advance width="577"/>
  <unicode hex="01BF"/>
  <outline>
    <contour>
      <point x="313" y="397" type="line"/>
      <point x="334" y="406"/>
      <point x="355" y="410"/>
      <point x="376" y="410" type="curve" smooth="yes"/>
      <point x="431" y="410"/>
      <point x="457" y="374"/>
      <point x="457" y="325" type="curve" smooth="yes"/>
      <point x="457" y="244"/>
      <point x="381" y="122"/>
      <point x="238" y="88" type="curve"/>
    </contour>
    <contour>
      <point x="25" y="-185" type="line"/>
      <point x="173" y="-185" type="line"/>
      <point x="204" y="-53" type="line"/>
      <point x="476" y="8"/>
      <point x="607" y="177"/>
      <point x="607" y="348" type="curve" smooth="yes"/>
      <point x="607" y="469"/>
      <point x="544" y="537"/>
      <point x="411" y="537" type="curve" smooth="yes"/>
      <point x="344" y="537"/>
      <point x="254" y="521"/>
      <point x="187" y="496" type="curve"/>
    </contour>
  </outline>
</glyph>
<glyph name="uni01C2" format="2">
	<advance width="572"/>
	<unicode hex="01C2"/>
	<outline>
		<contour>
			<point x="162" y="-185" type="line"/>
			<point x="305" y="-185" type="line"/>
			<point x="386" y="151" type="line"/>
			<point x="569" y="151" type="line"/>
			<point x="595" y="259" type="line"/>
			<point x="412" y="259" type="line"/>
			<point x="434" y="349" type="line"/>
			<point x="617" y="349" type="line"/>
			<point x="642" y="457" type="line"/>
			<point x="459" y="457" type="line"/>
			<point x="538" y="783" type="line"/>
			<point x="395" y="783" type="line"/>
			<point x="316" y="457" type="line"/>
			<point x="132" y="457" type="line"/>
			<point x="107" y="349" type="line"/>
			<point x="291" y="349" type="line"/>
			<point x="269" y="259" type="line"/>
			<point x="85" y="259" type="line"/>
			<point x="60" y="151" type="line"/>
			<point x="243" y="151" type="line"/>
		</contour>
	</outline>
</glyph>
<glyph name="uni01E4" format="2">
  <advance width="688"/>
  <unicode hex="01E4"/>
  <outline>
    <contour>
      <point x="408" y="-13" type="curve" smooth="yes"/>
      <point x="517" y="-13"/>
      <point x="587" y="4"/>
      <point x="624" y="19" type="curve"/>
      <point x="668" y="205" type="line"/>
      <point x="738" y="205" type="line"/>
      <point x="764" y="312" type="line"/>
      <point x="694" y="312" type="line"/>
      <point x="712" y="386" type="line"/>
      <point x="556" y="386" type="line"/>
      <point x="538" y="312" type="line"/>
      <point x="430" y="312" type="line"/>
      <point x="404" y="205" type="line"/>
      <point x="513" y="205" type="line"/>
      <point x="494" y="125" type="line"/>
      <point x="477" y="122"/>
      <point x="456" y="120"/>
      <point x="429" y="120" type="curve" smooth="yes"/>
      <point x="333" y="120"/>
      <point x="284" y="173"/>
      <point x="284" y="289" type="curve" smooth="yes"/>
      <point x="284" y="444"/>
      <point x="377" y="576"/>
      <point x="540" y="576" type="curve" smooth="yes"/>
      <point x="591" y="576"/>
      <point x="645" y="561"/>
      <point x="692" y="532" type="curve"/>
      <point x="748" y="653" type="line"/>
      <point x="691" y="690"/>
      <point x="614" y="709"/>
      <point x="550" y="709" type="curve" smooth="yes"/>
      <point x="272" y="709"/>
      <point x="123" y="488"/>
      <point x="123" y="280" type="curve" smooth="yes"/>
      <point x="123" y="99"/>
      <point x="221" y="-13"/>
    </contour>
  </outline>
</glyph>
<glyph name="uni01F7" format="2">
  <advance width="694"/>
  <unicode hex="01F7"/>
  <outline>
    <contour>
      <point x="240" y="0" type="line"/>
      <point x="561" y="72"/>
      <point x="749" y="299"/>
      <point x="749" y="493" type="curve" smooth="yes"/>
      <point x="749" y="609"/>
      <point x="671" y="699"/>
      <point x="483" y="699" type="curve" smooth="yes"/>
      <point x="404" y="699"/>
      <point x="319" y="682"/>
      <point x="242" y="655" type="curve"/>
      <point x="40" y="-185" type="line"/>
      <point x="195" y="-185" type="line"/>
    </contour>
    <contour>
      <point x="371" y="551" type="line"/>
      <point x="399" y="559"/>
      <point x="433" y="565"/>
      <point x="466" y="565" type="curve" smooth="yes"/>
      <point x="546" y="565"/>
      <point x="583" y="524"/>
      <point x="583" y="467" type="curve" smooth="yes"/>
      <point x="583" y="337"/>
      <point x="471" y="210"/>
      <point x="275" y="146" type="curve"/>
    </contour>
  </outline>
</glyph>
<glyph name="uni021D" format="2">
  <advance width="481"/>
  <unicode hex="021D"/>
  <outline>
    <contour>
      <point x="-10" y="-186" type="line"/>
      <point x="345" y="-186"/>
      <point x="467" y="-38"/>
      <point x="467" y="79" type="curve" smooth="yes"/>
      <point x="467" y="136"/>
      <point x="440" y="184"/>
      <point x="380" y="207" type="curve"/>
      <point x="482" y="256"/>
      <point x="511" y="325"/>
      <point x="511" y="390" type="curve" smooth="yes"/>
      <point x="511" y="470"/>
      <point x="444" y="540"/>
      <point x="320" y="540" type="curve" smooth="yes"/>
      <point x="256" y="540"/>
      <point x="190" y="526"/>
      <point x="138" y="511" type="curve"/>
      <point x="149" y="390" type="line"/>
      <point x="173" y="398"/>
      <point x="232" y="413"/>
      <point x="280" y="413" type="curve" smooth="yes"/>
      <point x="321" y="413"/>
      <point x="354" y="402"/>
      <point x="354" y="367" type="curve" smooth="yes"/>
      <point x="354" y="299"/>
      <point x="286" y="265"/>
      <point x="195" y="265" type="curve"/>
      <point x="165" y="144" type="line"/>
      <point x="191" y="144" type="line" smooth="yes"/>
      <point x="259" y="144"/>
      <point x="310" y="125"/>
      <point x="310" y="80" type="curve" smooth="yes"/>
      <point x="310" y="-35"/>
      <point x="149" y="-55"/>
      <point x="11" y="-60" type="curve"/>
    </contour>
  </outline>
</glyph>
<glyph name="uni0220" format="2">
	<advance width="697"/>
	<unicode hex="0220"/>
	<outline>
		<contour>
			<point x="413" y="-185" type="line"/>
			<point x="569" y="-185" type="line"/>
			<point x="713" y="412" type="line" smooth="yes"/>
			<point x="722" y="449"/>
			<point x="727" y="484"/>
			<point x="727" y="516" type="curve" smooth="yes"/>
			<point x="727" y="669"/>
			<point x="613" y="709"/>
			<point x="483" y="709" type="curve" smooth="yes"/>
			<point x="399" y="709"/>
			<point x="309" y="693"/>
			<point x="237" y="678" type="curve"/>
			<point x="75" y="0" type="line"/>
			<point x="231" y="0" type="line"/>
			<point x="367" y="567" type="line"/>
			<point x="391" y="570"/>
			<point x="421" y="574"/>
			<point x="452" y="574" type="curve" smooth="yes"/>
			<point x="511" y="574"/>
			<point x="568" y="558"/>
			<point x="568" y="490" type="curve" smooth="yes"/>
			<point x="568" y="469"/>
			<point x="564" y="443"/>
			<point x="557" y="414" type="curve" smooth="yes"/>
		</contour>
	</outline>
</glyph>
<glyph name="uni0221" format="2">
	<unicode hex="0221"/>
	<advance width="746"/>
	<outline>
		<contour>
			<point x="542" y="752" type="line"/>
			<point x="697" y="776" type="line"/>
			<point x="546" y="146" type="line"/>
			<point x="561" y="151"/>
			<point x="592" y="155"/>
			<point x="606" y="155" type="qcurve"/>
			<point x="640" y="155"/>
			<point x="690" y="132"/>
			<point x="723" y="93"/>
			<point x="739" y="42"/>
			<point x="739" y="14" type="qcurve"/>
			<point x="739" y="-21"/>
			<point x="713" y="-92"/>
			<point x="663" y="-149"/>
			<point x="589" y="-185"/>
			<point x="541" y="-185" type="qcurve"/>
			<point x="489" y="-185"/>
			<point x="406" y="-132"/>
			<point x="395" y="-75" type="qcurve"/>
			<point x="280" y="-175" type="line"/>
			<point x="224" y="-106" type="line"/>
			<point x="331" y="-9" type="line"/>
			<point x="308" y="-14"/>
			<point x="287" y="-14" type="qcurve"/>
			<point x="237" y="-14"/>
			<point x="166" y="20"/>
			<point x="121" y="79"/>
			<point x="100" y="158"/>
			<point x="100" y="203" type="qcurve"/>
			<point x="100" y="271"/>
			<point x="149" y="392"/>
			<point x="235" y="482"/>
			<point x="353" y="534"/>
			<point x="423" y="534" type="qcurve"/>
			<point x="441" y="534"/>
			<point x="472" y="530"/>
			<point x="488" y="526" type="qcurve"/>
		</contour>
		<contour>
			<point x="459" y="407" type="line"/>
			<point x="453" y="408"/>
			<point x="444" y="410"/>
			<point x="435" y="411"/>
			<point x="421" y="411"/>
			<point x="410" y="411" type="qcurve"/>
			<point x="375" y="411"/>
			<point x="315" y="378"/>
			<point x="272" y="322"/>
			<point x="248" y="251"/>
			<point x="248" y="214" type="qcurve"/>
			<point x="248" y="166"/>
			<point x="281" y="111"/>
			<point x="324" y="111" type="qcurve"/>
			<point x="347" y="111"/>
			<point x="385" y="129"/>
			<point x="406" y="150" type="qcurve"/>
			<point x="406" y="175"/>
			<point x="416" y="229"/>
			<point x="422" y="253" type="qcurve"/>
		</contour>
		<contour>
			<point x="515" y="20" type="qcurve"/>
			<point x="510" y="6"/>
			<point x="505" y="-20"/>
			<point x="505" y="-30" type="qcurve"/>
			<point x="505" y="-53"/>
			<point x="530" y="-75"/>
			<point x="547" y="-75" type="qcurve"/>
			<point x="559" y="-75"/>
			<point x="585" y="-65"/>
			<point x="606" y="-45"/>
			<point x="620" y="-17"/>
			<point x="620" y="1" type="qcurve"/>
			<point x="620" y="24"/>
			<point x="594" y="41"/>
			<point x="576" y="41" type="qcurve"/>
			<point x="559" y="41"/>
			<point x="526" y="29"/>
		</contour>
	</outline>
</glyph>
<glyph name="uni0222" format="2">
	<advance width="722"/>
	<unicode hex="0222"/>
	<outline>
		<contour>
			<point x="352" y="-14" type="curve" smooth="yes"/>
			<point x="620" y="-14"/>
			<point x="715" y="112"/>
			<point x="715" y="225" type="curve" smooth="yes"/>
			<point x="715" y="290"/>
			<point x="680" y="351"/>
			<point x="623" y="379" type="curve"/>
			<point x="749" y="435"/>
			<point x="759" y="578"/>
			<point x="762" y="693" type="curve"/>
			<point x="611" y="693" type="line"/>
			<point x="608" y="557"/>
			<point x="583" y="433"/>
			<point x="459" y="433" type="curve" smooth="yes"/>
			<point x="395" y="433"/>
			<point x="374" y="465"/>
			<point x="374" y="509" type="curve" smooth="yes"/>
			<point x="374" y="566"/>
			<point x="410" y="643"/>
			<point x="431" y="693" type="curve"/>
			<point x="280" y="693" type="line"/>
			<point x="252" y="626"/>
			<point x="220" y="552"/>
			<point x="220" y="485" type="curve" smooth="yes"/>
			<point x="220" y="442"/>
			<point x="233" y="406"/>
			<point x="269" y="379" type="curve"/>
			<point x="151" y="339"/>
			<point x="95" y="250"/>
			<point x="95" y="168" type="curve" smooth="yes"/>
			<point x="95" y="73"/>
			<point x="173" y="-14"/>
		</contour>
		<contour>
			<point x="383" y="115" type="curve" smooth="yes"/>
			<point x="314" y="115"/>
			<point x="257" y="139"/>
			<point x="257" y="191" type="curve" smooth="yes"/>
			<point x="257" y="271"/>
			<point x="337" y="306"/>
			<point x="428" y="306" type="curve" smooth="yes"/>
			<point x="504" y="306"/>
			<point x="554" y="283"/>
			<point x="554" y="232" type="curve" smooth="yes"/>
			<point x="554" y="151"/>
			<point x="466" y="115"/>
		</contour>
	</outline>
</glyph>
<glyph name="uni0224" format="2">
	<advance width="638"/>
	<unicode hex="0224"/>
	<outline>
		<contour>
			<point x="381" y="-187" type="curve" smooth="yes"/>
			<point x="473" y="-187"/>
			<point x="545" y="-152"/>
			<point x="585" y="12" type="curve" smooth="yes"/>
			<point x="614" y="131" type="line"/>
			<point x="266" y="131" type="line"/>
			<point x="400" y="292"/>
			<point x="605" y="494"/>
			<point x="712" y="585" type="curve"/>
			<point x="738" y="693" type="line"/>
			<point x="227" y="693" type="line"/>
			<point x="195" y="562" type="line"/>
			<point x="501" y="562" type="line"/>
			<point x="368" y="437"/>
			<point x="175" y="235"/>
			<point x="68" y="93" type="curve"/>
			<point x="45" y="0" type="line"/>
			<point x="438" y="0" type="line"/>
			<point x="437" y="-4" type="line"/>
			<point x="424" y="-46"/>
			<point x="405" y="-66"/>
			<point x="371" y="-66" type="curve" smooth="yes"/>
			<point x="358" y="-66"/>
			<point x="345" y="-64"/>
			<point x="332" y="-59" type="curve"/>
			<point x="293" y="-171" type="line"/>
			<point x="320" y="-180"/>
			<point x="338" y="-187"/>
		</contour>
	</outline>
</glyph>
<glyph name="uni0228" format="2">
	<unicode hex="0228"/>
	<advance width="594"/>
	<outline>
		<contour>
			<point x="75" y="0" type="line"/>
			<point x="241" y="693" type="line"/>
			<point x="694" y="693" type="line"/>
			<point x="662" y="565" type="line"/>
			<point x="365" y="565" type="line"/>
			<point x="333" y="425" type="line"/>
			<point x="595" y="425" type="line"/>
			<point x="564" y="299" type="line"/>
			<point x="302" y="299" type="line"/>
			<point x="262" y="129" type="line"/>
			<point x="582" y="129" type="line"/>
			<point x="550" y="0" type="line"/>
			<point x="406" y="0" type="line"/>
			<point x="398" y="-11"/>
			<point x="381" y="-36"/>
			<point x="376" y="-44" type="qcurve"/>
			<point x="398" y="-55"/>
			<point x="420" y="-91"/>
			<point x="420" y="-111" type="qcurve"/>
			<point x="420" y="-140"/>
			<point x="397" y="-182"/>
			<point x="358" y="-209"/>
			<point x="308" y="-221"/>
			<point x="282" y="-221" type="qcurve"/>
			<point x="255" y="-221"/>
			<point x="202" y="-209"/>
			<point x="181" y="-198" type="qcurve"/>
			<point x="217" y="-116" type="line"/>
			<point x="230" y="-122"/>
			<point x="263" y="-130"/>
			<point x="278" y="-130" type="qcurve"/>
			<point x="318" y="-130"/>
			<point x="318" y="-106" type="qcurve"/>
			<point x="318" y="-95"/>
			<point x="304" y="-81"/>
			<point x="288" y="-74" type="qcurve"/>
			<point x="268" y="-65" type="line"/>
			<point x="276" y="-51"/>
			<point x="301" y="-14"/>
			<point x="312" y="0" type="qcurve"/>
		</contour>
	</outline>
</glyph>
<glyph name="uni0236" format="2">
  <advance width="498"/>
  <unicode hex="0236"/>
  <outline>
    <contour>
      <point x="259" y="-185" type="curve" smooth="yes"/>
      <point x="368" y="-185"/>
      <point x="475" y="-112"/>
      <point x="475" y="18" type="curve" smooth="yes"/>
      <point x="475" y="91"/>
      <point x="429" y="155"/>
      <point x="335" y="155" type="curve" smooth="yes"/>
      <point x="315" y="155"/>
      <point x="296" y="154"/>
      <point x="275" y="147" type="curve"/>
      <point x="336" y="402" type="line"/>
      <point x="515" y="402" type="line"/>
      <point x="545" y="526" type="line"/>
      <point x="366" y="526" type="line"/>
      <point x="403" y="681" type="line"/>
      <point x="249" y="657" type="line"/>
      <point x="97" y="28" type="line"/>
      <point x="-50" y="-103" type="line"/>
      <point x="9" y="-175" type="line"/>
      <point x="123" y="-76" type="line"/>
      <point x="123" y="-76" type="line"/>
      <point x="138" y="-152"/>
      <point x="196" y="-185"/>
    </contour>
    <contour>
      <point x="279" y="-75" type="curve" smooth="yes"/>
      <point x="244" y="-75"/>
      <point x="233" y="-55"/>
      <point x="233" y="-31" type="curve" smooth="yes"/>
      <point x="233" y="-21"/>
      <point x="234" y="-12"/>
      <point x="243" y="19" type="curve"/>
      <point x="260" y="34"/>
      <point x="286" y="42"/>
      <point x="307" y="42" type="curve" smooth="yes"/>
      <point x="335" y="42"/>
      <point x="349" y="24"/>
      <point x="349" y="-1" type="curve" smooth="yes"/>
      <point x="349" y="-33"/>
      <point x="324" y="-75"/>
    </contour>
  </outline>
</glyph>
<glyph name="uni0238" format="2">
	<advance width="874"/>
	<unicode hex="0238"/>
	<outline>
		<contour>
			<point x="287" y="-14" type="curve" smooth="yes"/>
			<point x="329" y="-14"/>
			<point x="373" y="-4"/>
			<point x="420" y="17" type="curve"/>
			<point x="472" y="-3"/>
			<point x="524" y="-14"/>
			<point x="579" y="-14" type="curve" smooth="yes"/>
			<point x="762" y="-14"/>
			<point x="904" y="127"/>
			<point x="904" y="322" type="curve" smooth="yes"/>
			<point x="904" y="441"/>
			<point x="846" y="537"/>
			<point x="718" y="537" type="curve" smooth="yes"/>
			<point x="687" y="537"/>
			<point x="662" y="530"/>
			<point x="635" y="518" type="curve"/>
			<point x="697" y="776" type="line"/>
			<point x="542" y="752" type="line"/>
			<point x="488" y="526" type="line"/>
			<point x="467" y="531"/>
			<point x="447" y="534"/>
			<point x="423" y="534" type="curve" smooth="yes"/>
			<point x="211" y="534"/>
			<point x="100" y="354"/>
			<point x="100" y="199" type="curve" smooth="yes"/>
			<point x="100" y="84"/>
			<point x="161" y="-14"/>
		</contour>
		<contour>
			<point x="324" y="111" type="curve" smooth="yes"/>
			<point x="267" y="111"/>
			<point x="248" y="150"/>
			<point x="248" y="214" type="curve" smooth="yes"/>
			<point x="248" y="314"/>
			<point x="316" y="411"/>
			<point x="410" y="411" type="curve" smooth="yes"/>
			<point x="440" y="411"/>
			<point x="442" y="410"/>
			<point x="459" y="407" type="curve"/>
			<point x="396" y="141" type="line"/>
			<point x="372" y="118"/>
			<point x="351" y="111"/>
		</contour>
		<contour>
			<point x="588" y="109" type="curve" smooth="yes"/>
			<point x="568" y="109"/>
			<point x="555" y="111"/>
			<point x="538" y="114" type="curve"/>
			<point x="604" y="387" type="line"/>
			<point x="628" y="408"/>
			<point x="662" y="413"/>
			<point x="681" y="413" type="curve" smooth="yes"/>
			<point x="738" y="413"/>
			<point x="756" y="375"/>
			<point x="756" y="311" type="curve" smooth="yes"/>
			<point x="756" y="208"/>
			<point x="682" y="109"/>
		</contour>
	</outline>
</glyph>
<glyph name="uni023A" format="2">
	<advance width="704"/>
	<unicode hex="023A"/>
	<outline>
		<contour>
			<point x="255" y="-97" type="line"/>
			<point x="396" y="151" type="line"/>
			<point x="517" y="151" type="line"/>
			<point x="521" y="102"/>
			<point x="524" y="52"/>
			<point x="527" y="0" type="curve"/>
			<point x="684" y="0" type="line"/>
			<point x="668" y="160"/>
			<point x="643" y="361"/>
			<point x="614" y="533" type="curve"/>
			<point x="740" y="752" type="line"/>
			<point x="666" y="787" type="line"/>
			<point x="592" y="657" type="line"/>
			<point x="584" y="693" type="line"/>
			<point x="445" y="693" type="line"/>
			<point x="306" y="501"/>
			<point x="183" y="298"/>
			<point x="10" y="0" type="curve"/>
			<point x="173" y="0" type="line"/>
			<point x="200" y="52"/>
			<point x="230" y="102"/>
			<point x="257" y="151" type="curve"/>
			<point x="303" y="151" type="line"/>
			<point x="182" y="-62" type="line"/>
		</contour>
		<contour>
			<point x="466" y="273" type="line"/>
			<point x="502" y="336" type="line"/>
			<point x="507" y="273" type="line"/>
		</contour>
		<contour>
			<point x="320" y="273" type="line"/>
			<point x="371" y="364"/>
			<point x="425" y="452"/>
			<point x="481" y="541" type="curve"/>
			<point x="489" y="477" type="line"/>
			<point x="373" y="273" type="line"/>
		</contour>
	</outline>
</glyph>
<glyph name="uni023B" format="2">
	<advance width="630"/>
	<unicode hex="023B"/>
	<outline>
		<contour>
			<point x="263" y="-102" type="line"/>
			<point x="318" y="-5" type="line"/>
			<point x="341" y="-11"/>
			<point x="366" y="-14"/>
			<point x="393" y="-14" type="curve" smooth="yes"/>
			<point x="489" y="-14"/>
			<point x="551" y="3"/>
			<point x="606" y="30" type="curve"/>
			<point x="589" y="157" type="line"/>
			<point x="542" y="134"/>
			<point x="489" y="121"/>
			<point x="425" y="121" type="curve" smooth="yes"/>
			<point x="413" y="121"/>
			<point x="403" y="122"/>
			<point x="392" y="123" type="curve"/>
			<point x="638" y="555" type="line"/>
			<point x="654" y="548"/>
			<point x="671" y="541"/>
			<point x="688" y="530" type="curve"/>
			<point x="757" y="650" type="line"/>
			<point x="742" y="659"/>
			<point x="725" y="667"/>
			<point x="707" y="674" type="curve"/>
			<point x="751" y="751" type="line"/>
			<point x="662" y="790" type="line"/>
			<point x="612" y="701" type="line"/>
			<point x="581" y="706"/>
			<point x="555" y="709"/>
			<point x="533" y="709" type="curve" smooth="yes"/>
			<point x="265" y="709"/>
			<point x="115" y="488"/>
			<point x="115" y="280" type="curve" smooth="yes"/>
			<point x="115" y="167"/>
			<point x="158" y="81"/>
			<point x="231" y="32" type="curve"/>
			<point x="177" y="-64" type="line"/>
		</contour>
		<contour>
			<point x="309" y="168" type="line"/>
			<point x="287" y="196"/>
			<point x="276" y="236"/>
			<point x="276" y="289" type="curve" smooth="yes"/>
			<point x="276" y="444"/>
			<point x="371" y="576"/>
			<point x="523" y="576" type="curve" smooth="yes"/>
			<point x="530" y="576"/>
			<point x="533" y="576"/>
			<point x="540" y="575" type="curve"/>
		</contour>
	</outline>
</glyph>
<glyph name="uni0240" format="2">
  <advance width="491"/>
  <unicode hex="0240"/>
  <outline>
    <contour>
      <point x="371" y="-185" type="curve" smooth="yes"/>
      <point x="395" y="-185"/>
      <point x="427" y="-182"/>
      <point x="462" y="-173" type="curve"/>
      <point x="474" y="-60" type="line"/>
      <point x="452" y="-64"/>
      <point x="430" y="-66"/>
      <point x="409" y="-66" type="curve" smooth="yes"/>
      <point x="365" y="-66"/>
      <point x="339" y="-35"/>
      <point x="313" y="-1" type="curve" smooth="yes"/>
      <point x="288" y="33"/>
      <point x="261" y="71"/>
      <point x="216" y="86" type="curve"/>
      <point x="315" y="198"/>
      <point x="500" y="373"/>
      <point x="561" y="426" type="curve"/>
      <point x="585" y="526" type="line"/>
      <point x="177" y="526" type="line"/>
      <point x="147" y="402" type="line"/>
      <point x="361" y="402" type="line"/>
      <point x="270" y="316"/>
      <point x="140" y="184"/>
      <point x="60" y="88" type="curve"/>
      <point x="40" y="0" type="line"/>
      <point x="72" y="0" type="line" smooth="yes"/>
      <point x="149" y="0"/>
      <point x="189" y="-35"/>
      <point x="222" y="-74" type="curve" smooth="yes"/>
      <point x="264" y="-126"/>
      <point x="293" y="-185"/>
    </contour>
  </outline>
</glyph>
<glyph name="uni0241" format="2">
  <advance width="506"/>
  <unicode hex="0241"/>
  <outline>
    <contour>
      <point x="309" y="176" type="line"/>
      <point x="349" y="334"/>
      <point x="586" y="329"/>
      <point x="586" y="547" type="curve" smooth="yes"/>
      <point x="586" y="665"/>
      <point x="492" y="709"/>
      <point x="386" y="709" type="curve" smooth="yes"/>
      <point x="310" y="709"/>
      <point x="231" y="691"/>
      <point x="172" y="659" type="curve"/>
      <point x="191" y="533" type="line"/>
      <point x="248" y="560"/>
      <point x="307" y="570"/>
      <point x="352" y="570" type="curve" smooth="yes"/>
      <point x="399" y="570"/>
      <point x="430" y="556"/>
      <point x="430" y="521" type="curve" smooth="yes"/>
      <point x="430" y="410"/>
      <point x="208" y="409"/>
      <point x="163" y="218" type="curve"/>
      <point x="110" y="0" type="line"/>
      <point x="266" y="0" type="line"/>
    </contour>
  </outline>
</glyph>
<glyph name="uni0242" format="2">
  <advance width="426"/>
  <unicode hex="0242"/>
  <outline>
    <contour>
      <point x="90" y="0" type="line"/>
      <point x="239" y="0" type="line"/>
      <point x="265" y="112" type="line" smooth="yes"/>
      <point x="278" y="168"/>
      <point x="333" y="192"/>
      <point x="387" y="225" type="curve" smooth="yes"/>
      <point x="442" y="260"/>
      <point x="496" y="304"/>
      <point x="496" y="405" type="curve" smooth="yes"/>
      <point x="496" y="505"/>
      <point x="419" y="540"/>
      <point x="331" y="540" type="curve" smooth="yes"/>
      <point x="258" y="540"/>
      <point x="176" y="517"/>
      <point x="126" y="496" type="curve"/>
      <point x="136" y="375" type="line"/>
      <point x="170" y="391"/>
      <point x="241" y="412"/>
      <point x="292" y="412" type="curve" smooth="yes"/>
      <point x="328" y="412"/>
      <point x="355" y="402"/>
      <point x="355" y="375" type="curve" smooth="yes"/>
      <point x="355" y="328"/>
      <point x="313" y="307"/>
      <point x="263" y="281" type="curve" smooth="yes"/>
      <point x="207" y="251"/>
      <point x="140" y="214"/>
      <point x="119" y="122" type="curve" smooth="yes"/>
    </contour>
  </outline>
</glyph>
<glyph name="uni0243" format="2">
	<advance width="668"/>
	<unicode hex="0243"/>
	<outline>
		<contour>
			<point x="322" y="-9" type="curve" smooth="yes"/>
			<point x="578" y="-9"/>
			<point x="674" y="110"/>
			<point x="674" y="238" type="curve" smooth="yes"/>
			<point x="674" y="294"/>
			<point x="646" y="342"/>
			<point x="587" y="369" type="curve"/>
			<point x="688" y="414"/>
			<point x="708" y="486"/>
			<point x="708" y="545" type="curve" smooth="yes"/>
			<point x="708" y="630"/>
			<point x="639" y="701"/>
			<point x="479" y="701" type="curve" smooth="yes"/>
			<point x="410" y="701"/>
			<point x="321" y="697"/>
			<point x="245" y="682" type="curve"/>
			<point x="143" y="257" type="line"/>
			<point x="81" y="257" type="line"/>
			<point x="60" y="169" type="line"/>
			<point x="122" y="169" type="line"/>
			<point x="85" y="12" type="line"/>
			<point x="153" y="-3"/>
			<point x="242" y="-9"/>
		</contour>
		<contour>
			<point x="351" y="117" type="curve" smooth="yes"/>
			<point x="323" y="117"/>
			<point x="286" y="119"/>
			<point x="265" y="123" type="curve"/>
			<point x="276" y="169" type="line"/>
			<point x="365" y="169" type="line"/>
			<point x="386" y="257" type="line"/>
			<point x="297" y="257" type="line"/>
			<point x="308" y="303" type="line"/>
			<point x="416" y="303" type="line"/>
			<point x="489" y="303"/>
			<point x="517" y="262"/>
			<point x="517" y="225" type="curve" smooth="yes"/>
			<point x="517" y="137"/>
			<point x="430" y="117"/>
		</contour>
		<contour>
			<point x="337" y="420" type="line"/>
			<point x="373" y="572" type="line"/>
			<point x="389" y="575"/>
			<point x="426" y="577"/>
			<point x="454" y="577" type="curve" smooth="yes"/>
			<point x="505" y="577"/>
			<point x="554" y="560"/>
			<point x="554" y="508" type="curve" smooth="yes"/>
			<point x="554" y="460"/>
			<point x="515" y="420"/>
			<point x="435" y="420" type="curve" smooth="yes"/>
		</contour>
	</outline>
</glyph>
<glyph name="uni0244" format="2">
	<advance width="757"/>
	<unicode hex="0244"/>
	<outline>
		<contour>
			<point x="400" y="-14" type="curve" smooth="yes"/>
			<point x="568" y="-14"/>
			<point x="668" y="64"/>
			<point x="713" y="252" type="curve" smooth="yes"/>
			<point x="731" y="327" type="line"/>
			<point x="800" y="327" type="line"/>
			<point x="827" y="437" type="line"/>
			<point x="757" y="437" type="line"/>
			<point x="818" y="693" type="line"/>
			<point x="662" y="693" type="line"/>
			<point x="601" y="437" type="line"/>
			<point x="368" y="437" type="line"/>
			<point x="429" y="693" type="line"/>
			<point x="273" y="693" type="line"/>
			<point x="212" y="437" type="line"/>
			<point x="137" y="437" type="line"/>
			<point x="110" y="327" type="line"/>
			<point x="185" y="327" type="line"/>
			<point x="180" y="305" type="line" smooth="yes"/>
			<point x="170" y="266"/>
			<point x="165" y="229"/>
			<point x="165" y="194" type="curve" smooth="yes"/>
			<point x="165" y="73"/>
			<point x="228" y="-14"/>
		</contour>
		<contour>
			<point x="421" y="121" type="curve" smooth="yes"/>
			<point x="343" y="121"/>
			<point x="321" y="158"/>
			<point x="321" y="210" type="curve" smooth="yes"/>
			<point x="321" y="233"/>
			<point x="324" y="258"/>
			<point x="331" y="283" type="curve"/>
			<point x="341" y="327" type="line"/>
			<point x="575" y="327" type="line"/>
			<point x="560" y="265" type="line" smooth="yes"/>
			<point x="537" y="173"/>
			<point x="501" y="121"/>
		</contour>
	</outline>
</glyph>
<glyph name="uni0246" format="2">
  <advance width="614"/>
  <unicode hex="0246"/>
  <outline>
    <contour>
      <point x="570" y="0" type="line"/>
      <point x="602" y="129" type="line"/>
      <point x="383" y="129" type="line"/>
      <point x="488" y="299" type="line"/>
      <point x="584" y="299" type="line"/>
      <point x="615" y="425" type="line"/>
      <point x="567" y="425" type="line"/>
      <point x="762" y="738" type="line"/>
      <point x="687" y="776" type="line"/>
      <point x="635" y="693" type="line"/>
      <point x="241" y="693" type="line"/>
      <point x="75" y="0" type="line"/>
      <point x="206" y="0" type="line"/>
      <point x="168" y="-62" type="line"/>
      <point x="240" y="-101" type="line"/>
      <point x="303" y="0" type="line"/>
    </contour>
    <contour>
      <point x="365" y="565" type="line"/>
      <point x="556" y="565" type="line"/>
      <point x="469" y="425" type="line"/>
      <point x="333" y="425" type="line"/>
    </contour>
    <contour>
      <point x="302" y="299" type="line"/>
      <point x="391" y="299" type="line"/>
      <point x="286" y="129" type="line"/>
      <point x="262" y="129" type="line"/>
    </contour>
  </outline>
</glyph>
<glyph name="uni0247" format="2">
	<advance width="549"/>
	<unicode hex="0247"/>
	<outline>
		<contour>
			<point x="248" y="-90" type="line"/>
			<point x="280" y="-12" type="line"/>
			<point x="293" y="-13"/>
			<point x="306" y="-14"/>
			<point x="321" y="-14" type="curve" smooth="yes"/>
			<point x="385" y="-14"/>
			<point x="449" y="-1"/>
			<point x="508" y="22" type="curve"/>
			<point x="498" y="132" type="line"/>
			<point x="455" y="116"/>
			<point x="391" y="97"/>
			<point x="335" y="97" type="curve" smooth="yes"/>
			<point x="332" y="97"/>
			<point x="329" y="97"/>
			<point x="326" y="97" type="curve"/>
			<point x="372" y="209" type="line"/>
			<point x="553" y="228"/>
			<point x="599" y="310"/>
			<point x="599" y="392" type="curve" smooth="yes"/>
			<point x="599" y="459"/>
			<point x="561" y="505"/>
			<point x="505" y="526" type="curve"/>
			<point x="533" y="593" type="line"/>
			<point x="461" y="614" type="line"/>
			<point x="429" y="540" type="line"/>
			<point x="220" y="540"/>
			<point x="99" y="376"/>
			<point x="99" y="206" type="curve" smooth="yes"/>
			<point x="99" y="94"/>
			<point x="142" y="35"/>
			<point x="205" y="7" type="curve"/>
			<point x="173" y="-69" type="line"/>
		</contour>
		<contour>
			<point x="252" y="118" type="line"/>
			<point x="221" y="142"/>
			<point x="220" y="188"/>
			<point x="226" y="205" type="curve"/>
			<point x="249" y="204"/>
			<point x="268" y="204"/>
			<point x="288" y="204" type="curve"/>
		</contour>
		<contour>
			<point x="233" y="289" type="curve"/>
			<point x="254" y="353"/>
			<point x="303" y="419"/>
			<point x="383" y="430" type="curve"/>
			<point x="326" y="293" type="line"/>
			<point x="299" y="290"/>
			<point x="269" y="289"/>
		</contour>
		<contour>
			<point x="414" y="309" type="curve"/>
			<point x="466" y="432" type="line"/>
			<point x="477" y="421"/>
			<point x="484" y="408"/>
			<point x="484" y="389" type="curve" smooth="yes"/>
			<point x="484" y="361"/>
			<point x="477" y="327"/>
		</contour>
	</outline>
</glyph>
<glyph name="uni024B" format="2">
  <advance width="588"/>
  <unicode hex="024B"/>
  <outline>
    <contour>
      <point x="361" y="-43" type="line"/>
      <point x="358" y="-54"/>
      <point x="357" y="-67"/>
      <point x="357" y="-80" type="curve" smooth="yes"/>
      <point x="357" y="-139"/>
      <point x="390" y="-187"/>
      <point x="475" y="-187" type="curve" smooth="yes"/>
      <point x="514" y="-187"/>
      <point x="548" y="-181"/>
      <point x="583" y="-172" type="curve"/>
      <point x="594" y="-55" type="line"/>
      <point x="579" y="-58"/>
      <point x="560" y="-62"/>
      <point x="541" y="-62" type="curve" smooth="yes"/>
      <point x="521" y="-62"/>
      <point x="504" y="-55"/>
      <point x="504" y="-30" type="curve" smooth="yes"/>
      <point x="504" y="-17"/>
      <point x="508" y="-2"/>
      <point x="511" y="11" type="curve" smooth="yes"/>
      <point x="628" y="499" type="line"/>
      <point x="551" y="536"/>
      <point x="448" y="538"/>
      <point x="423" y="538" type="curve" smooth="yes"/>
      <point x="239" y="538"/>
      <point x="100" y="389"/>
      <point x="100" y="204" type="curve" smooth="yes"/>
      <point x="100" y="79"/>
      <point x="153" y="-14"/>
      <point x="270" y="-14" type="curve" smooth="yes"/>
      <point x="300" y="-14"/>
      <point x="334" y="-7"/>
      <point x="371" y="7" type="curve"/>
    </contour>
    <contour>
      <point x="392" y="139" type="line"/>
      <point x="369" y="119"/>
      <point x="348" y="111"/>
      <point x="323" y="111" type="curve" smooth="yes"/>
      <point x="266" y="111"/>
      <point x="248" y="151"/>
      <point x="248" y="215" type="curve" smooth="yes"/>
      <point x="248" y="318"/>
      <point x="319" y="415"/>
      <point x="410" y="415" type="curve" smooth="yes"/>
      <point x="440" y="415"/>
      <point x="442" y="414"/>
      <point x="459" y="411" type="curve"/>
    </contour>
  </outline>
</glyph>
<glyph name="uni024C" format="2">
  <advance width="670"/>
  <unicode hex="024C"/>
  <outline>
    <contour>
      <point x="450" y="701" type="curve" smooth="yes"/>
      <point x="395" y="701"/>
      <point x="324" y="696"/>
      <point x="252" y="683" type="curve"/>
      <point x="179" y="377" type="line"/>
      <point x="93" y="377" type="line"/>
      <point x="65" y="253" type="line"/>
      <point x="149" y="253" type="line"/>
      <point x="89" y="0" type="line"/>
      <point x="244" y="0" type="line"/>
      <point x="305" y="253" type="line"/>
      <point x="383" y="253" type="line"/>
      <point x="421" y="188"/>
      <point x="452" y="91"/>
      <point x="482" y="0" type="curve"/>
      <point x="649" y="0" type="line"/>
      <point x="614" y="108"/>
      <point x="573" y="212"/>
      <point x="536" y="281" type="curve"/>
      <point x="680" y="326"/>
      <point x="715" y="415"/>
      <point x="715" y="502" type="curve" smooth="yes"/>
      <point x="715" y="610"/>
      <point x="630" y="701"/>
    </contour>
    <contour>
      <point x="445" y="569" type="curve" smooth="yes"/>
      <point x="536" y="569"/>
      <point x="559" y="528"/>
      <point x="559" y="483" type="curve" smooth="yes"/>
      <point x="559" y="429"/>
      <point x="517" y="376"/>
      <point x="388" y="376" type="curve" smooth="yes"/>
      <point x="335" y="376" type="line"/>
      <point x="380" y="566" type="line"/>
      <point x="396" y="567"/>
      <point x="422" y="569"/>
    </contour>
  </outline>
</glyph>
<glyph name="uni024F" format="2">
  <advance width="547"/>
  <unicode hex="024F"/>
  <outline>
    <contour>
      <point x="474" y="526" type="line"/>
      <point x="457" y="469"/>
      <point x="438" y="414"/>
      <point x="417" y="363" type="curve"/>
      <point x="299" y="363" type="line"/>
      <point x="294" y="422"/>
      <point x="291" y="479"/>
      <point x="290" y="526" type="curve"/>
      <point x="137" y="526" type="line"/>
      <point x="140" y="467"/>
      <point x="144" y="414"/>
      <point x="151" y="363" type="curve"/>
      <point x="106" y="363" type="line"/>
      <point x="84" y="270" type="line"/>
      <point x="163" y="270" type="line"/>
      <point x="178" y="175"/>
      <point x="195" y="94"/>
      <point x="214" y="22" type="curve"/>
      <point x="186" y="-29"/>
      <point x="142" y="-61"/>
      <point x="95" y="-61" type="curve" smooth="yes"/>
      <point x="64" y="-61"/>
      <point x="47" y="-55"/>
      <point x="20" y="-44" type="curve"/>
      <point x="-25" y="-161" type="line"/>
      <point x="4" y="-176"/>
      <point x="35" y="-185"/>
      <point x="82" y="-185" type="curve" smooth="yes"/>
      <point x="233" y="-185"/>
      <point x="310" y="-67"/>
      <point x="382" y="38" type="curve" smooth="yes"/>
      <point x="433" y="113"/>
      <point x="478" y="186"/>
      <point x="521" y="270" type="curve"/>
      <point x="606" y="270" type="line"/>
      <point x="629" y="363" type="line"/>
      <point x="566" y="363" type="line"/>
      <point x="589" y="414"/>
      <point x="609" y="466"/>
      <point x="632" y="526" type="curve"/>
    </contour>
    <contour>
      <point x="316" y="152" type="curve"/>
      <point x="305" y="197"/>
      <point x="301" y="231"/>
      <point x="297" y="270" type="curve"/>
      <point x="386" y="270" type="line"/>
      <point x="366" y="229"/>
      <point x="341" y="187"/>
    </contour>
  </outline>
</glyph>
<glyph name="breve" format="2">
	<advance width="410"/>
	<unicode hex="02D8"/>
	<outline>
		<contour>
			<point x="345" y="598" type="curve" smooth="yes"/>
			<point x="427" y="598"/>
			<point x="516" y="653"/>
			<point x="524" y="764" type="curve"/>
			<point x="422" y="764" type="line"/>
			<point x="414" y="717"/>
			<point x="387" y="693"/>
			<point x="355" y="693" type="curve" smooth="yes"/>
			<point x="322" y="693"/>
			<point x="309" y="712"/>
			<point x="309" y="744" type="curve" smooth="yes"/>
			<point x="309" y="751"/>
			<point x="310" y="757"/>
			<point x="311" y="764" type="curve"/>
			<point x="210" y="764" type="line"/>
			<point x="207" y="753"/>
			<point x="206" y="742"/>
			<point x="206" y="730" type="curve" smooth="yes"/>
			<point x="206" y="641"/>
			<point x="273" y="598"/>
		</contour>
	</outline>
</glyph>
<glyph name="ring" format="2">
	<advance width="324"/>
	<unicode hex="02DA"/>
	<outline>
		<contour>
			<point x="320" y="584" type="curve" smooth="yes"/>
			<point x="384" y="584"/>
			<point x="439" y="624"/>
			<point x="439" y="699" type="curve" smooth="yes"/>
			<point x="439" y="774"/>
			<point x="384" y="814"/>
			<point x="320" y="814" type="curve" smooth="yes"/>
			<point x="259" y="814"/>
			<point x="203" y="774"/>
			<point x="203" y="699" type="curve" smooth="yes"/>
			<point x="203" y="624"/>
			<point x="259" y="584"/>
		</contour>
		<contour>
			<point x="320" y="652" type="curve" smooth="yes"/>
			<point x="297" y="652"/>
			<point x="275" y="668"/>
			<point x="275" y="699" type="curve" smooth="yes"/>
			<point x="275" y="730"/>
			<point x="297" y="746"/>
			<point x="320" y="746" type="curve" smooth="yes"/>
			<point x="344" y="746"/>
			<point x="366" y="730"/>
			<point x="366" y="699" type="curve" smooth="yes"/>
			<point x="366" y="668"/>
			<point x="344" y="652"/>
		</contour>
	</outline>
</glyph>
<glyph name="ogonek" format="2">
	<advance width="312"/>
	<unicode hex="02DB"/>
	<outline>
		<contour>
			<point x="127" y="-221" type="curve" smooth="yes"/>
			<point x="162" y="-221"/>
			<point x="195" y="-213"/>
			<point x="222" y="-201" type="curve"/>
			<point x="232" y="-102" type="line"/>
			<point x="223" y="-105"/>
			<point x="198" y="-113"/>
			<point x="179" y="-113" type="curve" smooth="yes"/>
			<point x="162" y="-113"/>
			<point x="154" y="-108"/>
			<point x="154" y="-97" type="curve" smooth="yes"/>
			<point x="154" y="-80"/>
			<point x="177" y="-46"/>
			<point x="271" y="15" type="curve"/>
			<point x="154" y="15" type="line"/>
			<point x="45" y="-40"/>
			<point x="17" y="-96"/>
			<point x="17" y="-136" type="curve" smooth="yes"/>
			<point x="17" y="-199"/>
			<point x="70" y="-221"/>
		</contour>
	</outline>
</glyph>
<glyph name="hungarumlaut" format="2">
  <advance width="434"/>
  <unicode hex="02DD"/>
  <outline>
    <contour>
      <point x="320" y="799" type="line"/>
      <point x="174" y="638" type="line"/>
      <point x="228" y="577" type="line"/>
      <point x="392" y="713" type="line"/>
    </contour>
    <contour>
      <point x="523" y="799" type="line"/>
      <point x="377" y="638" type="line"/>
      <point x="431" y="577" type="line"/>
      <point x="595" y="713" type="line"/>
    </contour>
  </outline>
</glyph>
<glyph name="dieresistonos" format="2">
	<advance width="615"/>
	<unicode hex="0385"/>
	<outline>
		<contour>
			<point x="431" y="583" type="line"/>
			<point x="559" y="747" type="line"/>
			<point x="480" y="809" type="line"/>
			<point x="374" y="622" type="line"/>
		</contour>
		<contour>
			<point x="290" y="604" type="curve" smooth="yes"/>
			<point x="341" y="604"/>
			<point x="371" y="645"/>
			<point x="371" y="686" type="curve" smooth="yes"/>
			<point x="371" y="727"/>
			<point x="342" y="751"/>
			<point x="305" y="751" type="curve" smooth="yes"/>
			<point x="262" y="751"/>
			<point x="223" y="720"/>
			<point x="223" y="669" type="curve" smooth="yes"/>
			<point x="223" y="629"/>
			<point x="251" y="604"/>
		</contour>
		<contour>
			<point x="616" y="604" type="curve" smooth="yes"/>
			<point x="667" y="604"/>
			<point x="697" y="645"/>
			<point x="697" y="686" type="curve" smooth="yes"/>
			<point x="697" y="727"/>
			<point x="668" y="751"/>
			<point x="631" y="751" type="curve" smooth="yes"/>
			<point x="590" y="751"/>
			<point x="549" y="721"/>
			<point x="549" y="669" type="curve" smooth="yes"/>
			<point x="549" y="629"/>
			<point x="577" y="604"/>
		</contour>
	</outline>
</glyph>
<glyph name="Lambda" format="2">
	<advance width="700"/>
	<unicode hex="039B"/>
	<outline>
		<contour>
			<point x="15" y="0" type="curve"/>
			<point x="170" y="0" type="line"/>
			<point x="258" y="167"/>
			<point x="372" y="371"/>
			<point x="466" y="507" type="curve"/>
			<point x="485" y="364"/>
			<point x="502" y="237"/>
			<point x="518" y="0" type="curve"/>
			<point x="675" y="0" type="line"/>
			<point x="651" y="263"/>
			<point x="626" y="464"/>
			<point x="575" y="693" type="curve"/>
			<point x="437" y="693" type="line"/>
			<point x="285" y="472"/>
			<point x="173" y="291"/>
		</contour>
	</outline>
</glyph>
<glyph name="alpha" format="2">
	<advance width="608"/>
	<unicode hex="03B1"/>
	<outline>
		<contour>
			<point x="286" y="-14" type="curve" smooth="yes"/>
			<point x="352" y="-14"/>
			<point x="399" y="18"/>
			<point x="422" y="39" type="curve"/>
			<point x="446" y="7"/>
			<point x="490" y="-11"/>
			<point x="563" y="-11" type="curve"/>
			<point x="612" y="113" type="line"/>
			<point x="569" y="116"/>
			<point x="552" y="127"/>
			<point x="552" y="161" type="curve" smooth="yes"/>
			<point x="552" y="176"/>
			<point x="555" y="196"/>
			<point x="562" y="223" type="curve" smooth="yes"/>
			<point x="628" y="499" type="line"/>
			<point x="569" y="527"/>
			<point x="499" y="538"/>
			<point x="426" y="538" type="curve" smooth="yes"/>
			<point x="209" y="538"/>
			<point x="100" y="359"/>
			<point x="100" y="194" type="curve" smooth="yes"/>
			<point x="100" y="92"/>
			<point x="150" y="-14"/>
		</contour>
		<contour>
			<point x="323" y="111" type="curve" smooth="yes"/>
			<point x="267" y="111"/>
			<point x="248" y="152"/>
			<point x="248" y="212" type="curve" smooth="yes"/>
			<point x="248" y="305"/>
			<point x="309" y="415"/>
			<point x="414" y="415" type="curve" smooth="yes"/>
			<point x="426" y="415"/>
			<point x="442" y="415"/>
			<point x="459" y="411" type="curve"/>
			<point x="415" y="230" type="line" smooth="yes"/>
			<point x="408" y="203"/>
			<point x="405" y="172"/>
			<point x="404" y="149" type="curve"/>
			<point x="380" y="126"/>
			<point x="358" y="111"/>
		</contour>
	</outline>
</glyph>
<glyph name="beta" format="2">
	<advance width="637"/>
	<unicode hex="03B2"/>
	<outline>
		<contour>
			<point x="30" y="-185" type="line"/>
			<point x="178" y="-185" type="line"/>
			<point x="226" y="16" type="line"/>
			<point x="270" y="0"/>
			<point x="315" y="-8"/>
			<point x="362" y="-8" type="curve" smooth="yes"/>
			<point x="563" y="-8"/>
			<point x="652" y="119"/>
			<point x="652" y="237" type="curve" smooth="yes"/>
			<point x="652" y="313"/>
			<point x="615" y="385"/>
			<point x="547" y="417" type="curve"/>
			<point x="632" y="460"/>
			<point x="677" y="536"/>
			<point x="677" y="609" type="curve" smooth="yes"/>
			<point x="677" y="713"/>
			<point x="602" y="776"/>
			<point x="470" y="776" type="curve" smooth="yes"/>
			<point x="341" y="776"/>
			<point x="245" y="712"/>
			<point x="209" y="561" type="curve" smooth="yes"/>
		</contour>
		<contour>
			<point x="359" y="118" type="curve" smooth="yes"/>
			<point x="324" y="118"/>
			<point x="288" y="126"/>
			<point x="257" y="145" type="curve"/>
			<point x="356" y="556" type="line"/>
			<point x="371" y="617"/>
			<point x="417" y="645"/>
			<point x="458" y="645" type="curve" smooth="yes"/>
			<point x="497" y="645"/>
			<point x="527" y="622"/>
			<point x="527" y="579" type="curve" smooth="yes"/>
			<point x="527" y="527"/>
			<point x="483" y="465"/>
			<point x="414" y="465" type="curve" smooth="yes"/>
			<point x="406" y="465" type="line"/>
			<point x="378" y="345" type="line"/>
			<point x="387" y="345" type="line" smooth="yes"/>
			<point x="465" y="345"/>
			<point x="497" y="299"/>
			<point x="497" y="247" type="curve" smooth="yes"/>
			<point x="497" y="186"/>
			<point x="449" y="118"/>
		</contour>
	</outline>
</glyph>
<glyph name="delta" format="2">
  <advance width="575"/>
  <unicode hex="03B4"/>
  <outline>
    <contour>
      <point x="100" y="201" type="curve" smooth="yes"/>
      <point x="100" y="54"/>
      <point x="200" y="-14"/>
      <point x="312" y="-14" type="curve" smooth="yes"/>
      <point x="477" y="-14"/>
      <point x="602" y="116"/>
      <point x="602" y="275" type="curve" smooth="yes"/>
      <point x="602" y="351"/>
      <point x="574" y="429"/>
      <point x="499" y="492" type="curve" smooth="yes"/>
      <point x="421" y="557" type="line" smooth="yes"/>
      <point x="398" y="576"/>
      <point x="390" y="592"/>
      <point x="390" y="612" type="curve" smooth="yes"/>
      <point x="390" y="639"/>
      <point x="412" y="660"/>
      <point x="460" y="660" type="curve" smooth="yes"/>
      <point x="510" y="660"/>
      <point x="572" y="640"/>
      <point x="597" y="624" type="curve"/>
      <point x="655" y="735" type="line"/>
      <point x="610" y="762"/>
      <point x="546" y="777"/>
      <point x="482" y="777" type="curve" smooth="yes"/>
      <point x="338" y="777"/>
      <point x="248" y="719"/>
      <point x="248" y="606" type="curve" smooth="yes"/>
      <point x="248" y="567"/>
      <point x="263" y="526"/>
      <point x="296" y="487" type="curve"/>
      <point x="163" y="423"/>
      <point x="100" y="306"/>
    </contour>
    <contour>
      <point x="382" y="404" type="line"/>
      <point x="433" y="357"/>
      <point x="453" y="304"/>
      <point x="453" y="255" type="curve" smooth="yes"/>
      <point x="453" y="178"/>
      <point x="402" y="114"/>
      <point x="331" y="114" type="curve" smooth="yes"/>
      <point x="284" y="114"/>
      <point x="244" y="146"/>
      <point x="244" y="221" type="curve" smooth="yes"/>
      <point x="244" y="285"/>
      <point x="283" y="360"/>
      <point x="374" y="411" type="curve"/>
    </contour>
  </outline>
</glyph>
